%TF.GenerationSoftware,KiCad,Pcbnew,7.0.11-7.0.11~ubuntu22.04.1*%
%TF.CreationDate,2024-08-26T13:36:22+02:00*%
%TF.ProjectId,pcb01,70636230-312e-46b6-9963-61645f706362,rev?*%
%TF.SameCoordinates,Original*%
%TF.FileFunction,Legend,Top*%
%TF.FilePolarity,Positive*%
%FSLAX46Y46*%
G04 Gerber Fmt 4.6, Leading zero omitted, Abs format (unit mm)*
G04 Created by KiCad (PCBNEW 7.0.11-7.0.11~ubuntu22.04.1) date 2024-08-26 13:36:22*
%MOMM*%
%LPD*%
G01*
G04 APERTURE LIST*
%ADD10C,0.100000*%
%ADD11C,0.150000*%
%ADD12C,0.120000*%
G04 APERTURE END LIST*
D10*
X83425312Y-105663419D02*
X83091979Y-105187228D01*
X82853884Y-105663419D02*
X82853884Y-104663419D01*
X82853884Y-104663419D02*
X83234836Y-104663419D01*
X83234836Y-104663419D02*
X83330074Y-104711038D01*
X83330074Y-104711038D02*
X83377693Y-104758657D01*
X83377693Y-104758657D02*
X83425312Y-104853895D01*
X83425312Y-104853895D02*
X83425312Y-104996752D01*
X83425312Y-104996752D02*
X83377693Y-105091990D01*
X83377693Y-105091990D02*
X83330074Y-105139609D01*
X83330074Y-105139609D02*
X83234836Y-105187228D01*
X83234836Y-105187228D02*
X82853884Y-105187228D01*
X84377693Y-105663419D02*
X83806265Y-105663419D01*
X84091979Y-105663419D02*
X84091979Y-104663419D01*
X84091979Y-104663419D02*
X83996741Y-104806276D01*
X83996741Y-104806276D02*
X83901503Y-104901514D01*
X83901503Y-104901514D02*
X83806265Y-104949133D01*
X82715789Y-104385800D02*
X84468170Y-104385800D01*
X80218646Y-104663419D02*
X80456741Y-105663419D01*
X80456741Y-105663419D02*
X80647217Y-104949133D01*
X80647217Y-104949133D02*
X80837693Y-105663419D01*
X80837693Y-105663419D02*
X81075789Y-104663419D01*
X81456741Y-105139609D02*
X81790074Y-105139609D01*
X81932931Y-105663419D02*
X81456741Y-105663419D01*
X81456741Y-105663419D02*
X81456741Y-104663419D01*
X81456741Y-104663419D02*
X81932931Y-104663419D01*
X80175789Y-104385800D02*
X82023408Y-104385800D01*
X88505312Y-105663419D02*
X88171979Y-105187228D01*
X87933884Y-105663419D02*
X87933884Y-104663419D01*
X87933884Y-104663419D02*
X88314836Y-104663419D01*
X88314836Y-104663419D02*
X88410074Y-104711038D01*
X88410074Y-104711038D02*
X88457693Y-104758657D01*
X88457693Y-104758657D02*
X88505312Y-104853895D01*
X88505312Y-104853895D02*
X88505312Y-104996752D01*
X88505312Y-104996752D02*
X88457693Y-105091990D01*
X88457693Y-105091990D02*
X88410074Y-105139609D01*
X88410074Y-105139609D02*
X88314836Y-105187228D01*
X88314836Y-105187228D02*
X87933884Y-105187228D01*
X89124360Y-104663419D02*
X89314836Y-104663419D01*
X89314836Y-104663419D02*
X89410074Y-104711038D01*
X89410074Y-104711038D02*
X89505312Y-104806276D01*
X89505312Y-104806276D02*
X89552931Y-104996752D01*
X89552931Y-104996752D02*
X89552931Y-105330085D01*
X89552931Y-105330085D02*
X89505312Y-105520561D01*
X89505312Y-105520561D02*
X89410074Y-105615800D01*
X89410074Y-105615800D02*
X89314836Y-105663419D01*
X89314836Y-105663419D02*
X89124360Y-105663419D01*
X89124360Y-105663419D02*
X89029122Y-105615800D01*
X89029122Y-105615800D02*
X88933884Y-105520561D01*
X88933884Y-105520561D02*
X88886265Y-105330085D01*
X88886265Y-105330085D02*
X88886265Y-104996752D01*
X88886265Y-104996752D02*
X88933884Y-104806276D01*
X88933884Y-104806276D02*
X89029122Y-104711038D01*
X89029122Y-104711038D02*
X89124360Y-104663419D01*
X89981503Y-105663419D02*
X89981503Y-104663419D01*
X89981503Y-104663419D02*
X90314836Y-105377704D01*
X90314836Y-105377704D02*
X90648169Y-104663419D01*
X90648169Y-104663419D02*
X90648169Y-105663419D01*
X87795789Y-104385800D02*
X90786265Y-104385800D01*
X44322419Y-26366115D02*
X43322419Y-26366115D01*
X44322419Y-25889925D02*
X43655752Y-25889925D01*
X43846228Y-25889925D02*
X43750990Y-25842306D01*
X43750990Y-25842306D02*
X43703371Y-25794687D01*
X43703371Y-25794687D02*
X43655752Y-25699449D01*
X43655752Y-25699449D02*
X43655752Y-25604211D01*
X43655752Y-24842306D02*
X44655752Y-24842306D01*
X44274800Y-24842306D02*
X44322419Y-24937544D01*
X44322419Y-24937544D02*
X44322419Y-25128020D01*
X44322419Y-25128020D02*
X44274800Y-25223258D01*
X44274800Y-25223258D02*
X44227180Y-25270877D01*
X44227180Y-25270877D02*
X44131942Y-25318496D01*
X44131942Y-25318496D02*
X43846228Y-25318496D01*
X43846228Y-25318496D02*
X43750990Y-25270877D01*
X43750990Y-25270877D02*
X43703371Y-25223258D01*
X43703371Y-25223258D02*
X43655752Y-25128020D01*
X43655752Y-25128020D02*
X43655752Y-24937544D01*
X43655752Y-24937544D02*
X43703371Y-24842306D01*
X99268646Y-99837419D02*
X99887693Y-99837419D01*
X99887693Y-99837419D02*
X99554360Y-100218371D01*
X99554360Y-100218371D02*
X99697217Y-100218371D01*
X99697217Y-100218371D02*
X99792455Y-100265990D01*
X99792455Y-100265990D02*
X99840074Y-100313609D01*
X99840074Y-100313609D02*
X99887693Y-100408847D01*
X99887693Y-100408847D02*
X99887693Y-100646942D01*
X99887693Y-100646942D02*
X99840074Y-100742180D01*
X99840074Y-100742180D02*
X99792455Y-100789800D01*
X99792455Y-100789800D02*
X99697217Y-100837419D01*
X99697217Y-100837419D02*
X99411503Y-100837419D01*
X99411503Y-100837419D02*
X99316265Y-100789800D01*
X99316265Y-100789800D02*
X99268646Y-100742180D01*
X100268646Y-99932657D02*
X100316265Y-99885038D01*
X100316265Y-99885038D02*
X100411503Y-99837419D01*
X100411503Y-99837419D02*
X100649598Y-99837419D01*
X100649598Y-99837419D02*
X100744836Y-99885038D01*
X100744836Y-99885038D02*
X100792455Y-99932657D01*
X100792455Y-99932657D02*
X100840074Y-100027895D01*
X100840074Y-100027895D02*
X100840074Y-100123133D01*
X100840074Y-100123133D02*
X100792455Y-100265990D01*
X100792455Y-100265990D02*
X100221027Y-100837419D01*
X100221027Y-100837419D02*
X100840074Y-100837419D01*
X101268646Y-100837419D02*
X101268646Y-99837419D01*
X101840074Y-100837419D02*
X101411503Y-100265990D01*
X101840074Y-99837419D02*
X101268646Y-100408847D01*
X137302419Y-30318972D02*
X137302419Y-29747544D01*
X138302419Y-30033258D02*
X137302419Y-30033258D01*
X138302419Y-29509448D02*
X137635752Y-28985639D01*
X137635752Y-29509448D02*
X138302419Y-28985639D01*
X138302419Y-28080877D02*
X138302419Y-28652305D01*
X138302419Y-28366591D02*
X137302419Y-28366591D01*
X137302419Y-28366591D02*
X137445276Y-28461829D01*
X137445276Y-28461829D02*
X137540514Y-28557067D01*
X137540514Y-28557067D02*
X137588133Y-28652305D01*
X138937419Y-87326115D02*
X137937419Y-87326115D01*
X137937419Y-87326115D02*
X137937419Y-87088020D01*
X137937419Y-87088020D02*
X137985038Y-86945163D01*
X137985038Y-86945163D02*
X138080276Y-86849925D01*
X138080276Y-86849925D02*
X138175514Y-86802306D01*
X138175514Y-86802306D02*
X138365990Y-86754687D01*
X138365990Y-86754687D02*
X138508847Y-86754687D01*
X138508847Y-86754687D02*
X138699323Y-86802306D01*
X138699323Y-86802306D02*
X138794561Y-86849925D01*
X138794561Y-86849925D02*
X138889800Y-86945163D01*
X138889800Y-86945163D02*
X138937419Y-87088020D01*
X138937419Y-87088020D02*
X138937419Y-87326115D01*
X138937419Y-86326115D02*
X138270752Y-86326115D01*
X137937419Y-86326115D02*
X137985038Y-86373734D01*
X137985038Y-86373734D02*
X138032657Y-86326115D01*
X138032657Y-86326115D02*
X137985038Y-86278496D01*
X137985038Y-86278496D02*
X137937419Y-86326115D01*
X137937419Y-86326115D02*
X138032657Y-86326115D01*
X138889800Y-85897544D02*
X138937419Y-85802306D01*
X138937419Y-85802306D02*
X138937419Y-85611830D01*
X138937419Y-85611830D02*
X138889800Y-85516592D01*
X138889800Y-85516592D02*
X138794561Y-85468973D01*
X138794561Y-85468973D02*
X138746942Y-85468973D01*
X138746942Y-85468973D02*
X138651704Y-85516592D01*
X138651704Y-85516592D02*
X138604085Y-85611830D01*
X138604085Y-85611830D02*
X138604085Y-85754687D01*
X138604085Y-85754687D02*
X138556466Y-85849925D01*
X138556466Y-85849925D02*
X138461228Y-85897544D01*
X138461228Y-85897544D02*
X138413609Y-85897544D01*
X138413609Y-85897544D02*
X138318371Y-85849925D01*
X138318371Y-85849925D02*
X138270752Y-85754687D01*
X138270752Y-85754687D02*
X138270752Y-85611830D01*
X138270752Y-85611830D02*
X138318371Y-85516592D01*
X138270752Y-85040401D02*
X139270752Y-85040401D01*
X138318371Y-85040401D02*
X138270752Y-84945163D01*
X138270752Y-84945163D02*
X138270752Y-84754687D01*
X138270752Y-84754687D02*
X138318371Y-84659449D01*
X138318371Y-84659449D02*
X138365990Y-84611830D01*
X138365990Y-84611830D02*
X138461228Y-84564211D01*
X138461228Y-84564211D02*
X138746942Y-84564211D01*
X138746942Y-84564211D02*
X138842180Y-84611830D01*
X138842180Y-84611830D02*
X138889800Y-84659449D01*
X138889800Y-84659449D02*
X138937419Y-84754687D01*
X138937419Y-84754687D02*
X138937419Y-84945163D01*
X138937419Y-84945163D02*
X138889800Y-85040401D01*
X138937419Y-83992782D02*
X138889800Y-84088020D01*
X138889800Y-84088020D02*
X138794561Y-84135639D01*
X138794561Y-84135639D02*
X137937419Y-84135639D01*
X138937419Y-83183258D02*
X138413609Y-83183258D01*
X138413609Y-83183258D02*
X138318371Y-83230877D01*
X138318371Y-83230877D02*
X138270752Y-83326115D01*
X138270752Y-83326115D02*
X138270752Y-83516591D01*
X138270752Y-83516591D02*
X138318371Y-83611829D01*
X138889800Y-83183258D02*
X138937419Y-83278496D01*
X138937419Y-83278496D02*
X138937419Y-83516591D01*
X138937419Y-83516591D02*
X138889800Y-83611829D01*
X138889800Y-83611829D02*
X138794561Y-83659448D01*
X138794561Y-83659448D02*
X138699323Y-83659448D01*
X138699323Y-83659448D02*
X138604085Y-83611829D01*
X138604085Y-83611829D02*
X138556466Y-83516591D01*
X138556466Y-83516591D02*
X138556466Y-83278496D01*
X138556466Y-83278496D02*
X138508847Y-83183258D01*
X138270752Y-82802305D02*
X138937419Y-82564210D01*
X138270752Y-82326115D02*
X138937419Y-82564210D01*
X138937419Y-82564210D02*
X139175514Y-82659448D01*
X139175514Y-82659448D02*
X139223133Y-82707067D01*
X139223133Y-82707067D02*
X139270752Y-82802305D01*
X138302419Y-26429687D02*
X137826228Y-26763020D01*
X138302419Y-27001115D02*
X137302419Y-27001115D01*
X137302419Y-27001115D02*
X137302419Y-26620163D01*
X137302419Y-26620163D02*
X137350038Y-26524925D01*
X137350038Y-26524925D02*
X137397657Y-26477306D01*
X137397657Y-26477306D02*
X137492895Y-26429687D01*
X137492895Y-26429687D02*
X137635752Y-26429687D01*
X137635752Y-26429687D02*
X137730990Y-26477306D01*
X137730990Y-26477306D02*
X137778609Y-26524925D01*
X137778609Y-26524925D02*
X137826228Y-26620163D01*
X137826228Y-26620163D02*
X137826228Y-27001115D01*
X138302419Y-26096353D02*
X137635752Y-25572544D01*
X137635752Y-26096353D02*
X138302419Y-25572544D01*
X138302419Y-24667782D02*
X138302419Y-25239210D01*
X138302419Y-24953496D02*
X137302419Y-24953496D01*
X137302419Y-24953496D02*
X137445276Y-25048734D01*
X137445276Y-25048734D02*
X137540514Y-25143972D01*
X137540514Y-25143972D02*
X137588133Y-25239210D01*
X27497693Y-22415038D02*
X27402455Y-22367419D01*
X27402455Y-22367419D02*
X27259598Y-22367419D01*
X27259598Y-22367419D02*
X27116741Y-22415038D01*
X27116741Y-22415038D02*
X27021503Y-22510276D01*
X27021503Y-22510276D02*
X26973884Y-22605514D01*
X26973884Y-22605514D02*
X26926265Y-22795990D01*
X26926265Y-22795990D02*
X26926265Y-22938847D01*
X26926265Y-22938847D02*
X26973884Y-23129323D01*
X26973884Y-23129323D02*
X27021503Y-23224561D01*
X27021503Y-23224561D02*
X27116741Y-23319800D01*
X27116741Y-23319800D02*
X27259598Y-23367419D01*
X27259598Y-23367419D02*
X27354836Y-23367419D01*
X27354836Y-23367419D02*
X27497693Y-23319800D01*
X27497693Y-23319800D02*
X27545312Y-23272180D01*
X27545312Y-23272180D02*
X27545312Y-22938847D01*
X27545312Y-22938847D02*
X27354836Y-22938847D01*
X27973884Y-23367419D02*
X27973884Y-22367419D01*
X27973884Y-22367419D02*
X28545312Y-23367419D01*
X28545312Y-23367419D02*
X28545312Y-22367419D01*
X29021503Y-23367419D02*
X29021503Y-22367419D01*
X29021503Y-22367419D02*
X29259598Y-22367419D01*
X29259598Y-22367419D02*
X29402455Y-22415038D01*
X29402455Y-22415038D02*
X29497693Y-22510276D01*
X29497693Y-22510276D02*
X29545312Y-22605514D01*
X29545312Y-22605514D02*
X29592931Y-22795990D01*
X29592931Y-22795990D02*
X29592931Y-22938847D01*
X29592931Y-22938847D02*
X29545312Y-23129323D01*
X29545312Y-23129323D02*
X29497693Y-23224561D01*
X29497693Y-23224561D02*
X29402455Y-23319800D01*
X29402455Y-23319800D02*
X29259598Y-23367419D01*
X29259598Y-23367419D02*
X29021503Y-23367419D01*
X62184598Y-80787419D02*
X62184598Y-81501704D01*
X62184598Y-81501704D02*
X62136979Y-81644561D01*
X62136979Y-81644561D02*
X62041741Y-81739800D01*
X62041741Y-81739800D02*
X61898884Y-81787419D01*
X61898884Y-81787419D02*
X61803646Y-81787419D01*
X63136979Y-81787419D02*
X62660789Y-81787419D01*
X62660789Y-81787419D02*
X62660789Y-80787419D01*
X64041741Y-81692180D02*
X63994122Y-81739800D01*
X63994122Y-81739800D02*
X63851265Y-81787419D01*
X63851265Y-81787419D02*
X63756027Y-81787419D01*
X63756027Y-81787419D02*
X63613170Y-81739800D01*
X63613170Y-81739800D02*
X63517932Y-81644561D01*
X63517932Y-81644561D02*
X63470313Y-81549323D01*
X63470313Y-81549323D02*
X63422694Y-81358847D01*
X63422694Y-81358847D02*
X63422694Y-81215990D01*
X63422694Y-81215990D02*
X63470313Y-81025514D01*
X63470313Y-81025514D02*
X63517932Y-80930276D01*
X63517932Y-80930276D02*
X63613170Y-80835038D01*
X63613170Y-80835038D02*
X63756027Y-80787419D01*
X63756027Y-80787419D02*
X63851265Y-80787419D01*
X63851265Y-80787419D02*
X63994122Y-80835038D01*
X63994122Y-80835038D02*
X64041741Y-80882657D01*
X64756027Y-80787419D02*
X64756027Y-81501704D01*
X64756027Y-81501704D02*
X64708408Y-81644561D01*
X64708408Y-81644561D02*
X64613170Y-81739800D01*
X64613170Y-81739800D02*
X64470313Y-81787419D01*
X64470313Y-81787419D02*
X64375075Y-81787419D01*
X65708408Y-81787419D02*
X65232218Y-81787419D01*
X65232218Y-81787419D02*
X65232218Y-80787419D01*
X66613170Y-81692180D02*
X66565551Y-81739800D01*
X66565551Y-81739800D02*
X66422694Y-81787419D01*
X66422694Y-81787419D02*
X66327456Y-81787419D01*
X66327456Y-81787419D02*
X66184599Y-81739800D01*
X66184599Y-81739800D02*
X66089361Y-81644561D01*
X66089361Y-81644561D02*
X66041742Y-81549323D01*
X66041742Y-81549323D02*
X65994123Y-81358847D01*
X65994123Y-81358847D02*
X65994123Y-81215990D01*
X65994123Y-81215990D02*
X66041742Y-81025514D01*
X66041742Y-81025514D02*
X66089361Y-80930276D01*
X66089361Y-80930276D02*
X66184599Y-80835038D01*
X66184599Y-80835038D02*
X66327456Y-80787419D01*
X66327456Y-80787419D02*
X66422694Y-80787419D01*
X66422694Y-80787419D02*
X66565551Y-80835038D01*
X66565551Y-80835038D02*
X66613170Y-80882657D01*
X67327456Y-80787419D02*
X67327456Y-81501704D01*
X67327456Y-81501704D02*
X67279837Y-81644561D01*
X67279837Y-81644561D02*
X67184599Y-81739800D01*
X67184599Y-81739800D02*
X67041742Y-81787419D01*
X67041742Y-81787419D02*
X66946504Y-81787419D01*
X68279837Y-81787419D02*
X67803647Y-81787419D01*
X67803647Y-81787419D02*
X67803647Y-80787419D01*
X69184599Y-81692180D02*
X69136980Y-81739800D01*
X69136980Y-81739800D02*
X68994123Y-81787419D01*
X68994123Y-81787419D02*
X68898885Y-81787419D01*
X68898885Y-81787419D02*
X68756028Y-81739800D01*
X68756028Y-81739800D02*
X68660790Y-81644561D01*
X68660790Y-81644561D02*
X68613171Y-81549323D01*
X68613171Y-81549323D02*
X68565552Y-81358847D01*
X68565552Y-81358847D02*
X68565552Y-81215990D01*
X68565552Y-81215990D02*
X68613171Y-81025514D01*
X68613171Y-81025514D02*
X68660790Y-80930276D01*
X68660790Y-80930276D02*
X68756028Y-80835038D01*
X68756028Y-80835038D02*
X68898885Y-80787419D01*
X68898885Y-80787419D02*
X68994123Y-80787419D01*
X68994123Y-80787419D02*
X69136980Y-80835038D01*
X69136980Y-80835038D02*
X69184599Y-80882657D01*
X69898885Y-80787419D02*
X69898885Y-81501704D01*
X69898885Y-81501704D02*
X69851266Y-81644561D01*
X69851266Y-81644561D02*
X69756028Y-81739800D01*
X69756028Y-81739800D02*
X69613171Y-81787419D01*
X69613171Y-81787419D02*
X69517933Y-81787419D01*
X70851266Y-81787419D02*
X70375076Y-81787419D01*
X70375076Y-81787419D02*
X70375076Y-80787419D01*
X71756028Y-81692180D02*
X71708409Y-81739800D01*
X71708409Y-81739800D02*
X71565552Y-81787419D01*
X71565552Y-81787419D02*
X71470314Y-81787419D01*
X71470314Y-81787419D02*
X71327457Y-81739800D01*
X71327457Y-81739800D02*
X71232219Y-81644561D01*
X71232219Y-81644561D02*
X71184600Y-81549323D01*
X71184600Y-81549323D02*
X71136981Y-81358847D01*
X71136981Y-81358847D02*
X71136981Y-81215990D01*
X71136981Y-81215990D02*
X71184600Y-81025514D01*
X71184600Y-81025514D02*
X71232219Y-80930276D01*
X71232219Y-80930276D02*
X71327457Y-80835038D01*
X71327457Y-80835038D02*
X71470314Y-80787419D01*
X71470314Y-80787419D02*
X71565552Y-80787419D01*
X71565552Y-80787419D02*
X71708409Y-80835038D01*
X71708409Y-80835038D02*
X71756028Y-80882657D01*
X30641027Y-22367419D02*
X30974360Y-23367419D01*
X30974360Y-23367419D02*
X31307693Y-22367419D01*
X32069598Y-23319800D02*
X31974360Y-23367419D01*
X31974360Y-23367419D02*
X31783884Y-23367419D01*
X31783884Y-23367419D02*
X31688646Y-23319800D01*
X31688646Y-23319800D02*
X31641027Y-23272180D01*
X31641027Y-23272180D02*
X31593408Y-23176942D01*
X31593408Y-23176942D02*
X31593408Y-22891228D01*
X31593408Y-22891228D02*
X31641027Y-22795990D01*
X31641027Y-22795990D02*
X31688646Y-22748371D01*
X31688646Y-22748371D02*
X31783884Y-22700752D01*
X31783884Y-22700752D02*
X31974360Y-22700752D01*
X31974360Y-22700752D02*
X32069598Y-22748371D01*
X32926741Y-23319800D02*
X32831503Y-23367419D01*
X32831503Y-23367419D02*
X32641027Y-23367419D01*
X32641027Y-23367419D02*
X32545789Y-23319800D01*
X32545789Y-23319800D02*
X32498170Y-23272180D01*
X32498170Y-23272180D02*
X32450551Y-23176942D01*
X32450551Y-23176942D02*
X32450551Y-22891228D01*
X32450551Y-22891228D02*
X32498170Y-22795990D01*
X32498170Y-22795990D02*
X32545789Y-22748371D01*
X32545789Y-22748371D02*
X32641027Y-22700752D01*
X32641027Y-22700752D02*
X32831503Y-22700752D01*
X32831503Y-22700752D02*
X32926741Y-22748371D01*
X97395312Y-105917419D02*
X97061979Y-105441228D01*
X96823884Y-105917419D02*
X96823884Y-104917419D01*
X96823884Y-104917419D02*
X97204836Y-104917419D01*
X97204836Y-104917419D02*
X97300074Y-104965038D01*
X97300074Y-104965038D02*
X97347693Y-105012657D01*
X97347693Y-105012657D02*
X97395312Y-105107895D01*
X97395312Y-105107895D02*
X97395312Y-105250752D01*
X97395312Y-105250752D02*
X97347693Y-105345990D01*
X97347693Y-105345990D02*
X97300074Y-105393609D01*
X97300074Y-105393609D02*
X97204836Y-105441228D01*
X97204836Y-105441228D02*
X96823884Y-105441228D01*
X98252455Y-105917419D02*
X98252455Y-105393609D01*
X98252455Y-105393609D02*
X98204836Y-105298371D01*
X98204836Y-105298371D02*
X98109598Y-105250752D01*
X98109598Y-105250752D02*
X97919122Y-105250752D01*
X97919122Y-105250752D02*
X97823884Y-105298371D01*
X98252455Y-105869800D02*
X98157217Y-105917419D01*
X98157217Y-105917419D02*
X97919122Y-105917419D01*
X97919122Y-105917419D02*
X97823884Y-105869800D01*
X97823884Y-105869800D02*
X97776265Y-105774561D01*
X97776265Y-105774561D02*
X97776265Y-105679323D01*
X97776265Y-105679323D02*
X97823884Y-105584085D01*
X97823884Y-105584085D02*
X97919122Y-105536466D01*
X97919122Y-105536466D02*
X98157217Y-105536466D01*
X98157217Y-105536466D02*
X98252455Y-105488847D01*
X98728646Y-105917419D02*
X98728646Y-105250752D01*
X98728646Y-105345990D02*
X98776265Y-105298371D01*
X98776265Y-105298371D02*
X98871503Y-105250752D01*
X98871503Y-105250752D02*
X99014360Y-105250752D01*
X99014360Y-105250752D02*
X99109598Y-105298371D01*
X99109598Y-105298371D02*
X99157217Y-105393609D01*
X99157217Y-105393609D02*
X99157217Y-105917419D01*
X99157217Y-105393609D02*
X99204836Y-105298371D01*
X99204836Y-105298371D02*
X99300074Y-105250752D01*
X99300074Y-105250752D02*
X99442931Y-105250752D01*
X99442931Y-105250752D02*
X99538170Y-105298371D01*
X99538170Y-105298371D02*
X99585789Y-105393609D01*
X99585789Y-105393609D02*
X99585789Y-105917419D01*
X95347455Y-99837419D02*
X95156979Y-99837419D01*
X95156979Y-99837419D02*
X95061741Y-99885038D01*
X95061741Y-99885038D02*
X95014122Y-99932657D01*
X95014122Y-99932657D02*
X94918884Y-100075514D01*
X94918884Y-100075514D02*
X94871265Y-100265990D01*
X94871265Y-100265990D02*
X94871265Y-100646942D01*
X94871265Y-100646942D02*
X94918884Y-100742180D01*
X94918884Y-100742180D02*
X94966503Y-100789800D01*
X94966503Y-100789800D02*
X95061741Y-100837419D01*
X95061741Y-100837419D02*
X95252217Y-100837419D01*
X95252217Y-100837419D02*
X95347455Y-100789800D01*
X95347455Y-100789800D02*
X95395074Y-100742180D01*
X95395074Y-100742180D02*
X95442693Y-100646942D01*
X95442693Y-100646942D02*
X95442693Y-100408847D01*
X95442693Y-100408847D02*
X95395074Y-100313609D01*
X95395074Y-100313609D02*
X95347455Y-100265990D01*
X95347455Y-100265990D02*
X95252217Y-100218371D01*
X95252217Y-100218371D02*
X95061741Y-100218371D01*
X95061741Y-100218371D02*
X94966503Y-100265990D01*
X94966503Y-100265990D02*
X94918884Y-100313609D01*
X94918884Y-100313609D02*
X94871265Y-100408847D01*
X96299836Y-100170752D02*
X96299836Y-100837419D01*
X96061741Y-99789800D02*
X95823646Y-100504085D01*
X95823646Y-100504085D02*
X96442693Y-100504085D01*
X96823646Y-100837419D02*
X96823646Y-99837419D01*
X97395074Y-100837419D02*
X96966503Y-100265990D01*
X97395074Y-99837419D02*
X96823646Y-100408847D01*
X137302419Y-38573972D02*
X137302419Y-38002544D01*
X138302419Y-38288258D02*
X137302419Y-38288258D01*
X138302419Y-37764448D02*
X137635752Y-37240639D01*
X137635752Y-37764448D02*
X138302419Y-37240639D01*
X137397657Y-36907305D02*
X137350038Y-36859686D01*
X137350038Y-36859686D02*
X137302419Y-36764448D01*
X137302419Y-36764448D02*
X137302419Y-36526353D01*
X137302419Y-36526353D02*
X137350038Y-36431115D01*
X137350038Y-36431115D02*
X137397657Y-36383496D01*
X137397657Y-36383496D02*
X137492895Y-36335877D01*
X137492895Y-36335877D02*
X137588133Y-36335877D01*
X137588133Y-36335877D02*
X137730990Y-36383496D01*
X137730990Y-36383496D02*
X138302419Y-36954924D01*
X138302419Y-36954924D02*
X138302419Y-36335877D01*
X85965312Y-105663419D02*
X85631979Y-105187228D01*
X85393884Y-105663419D02*
X85393884Y-104663419D01*
X85393884Y-104663419D02*
X85774836Y-104663419D01*
X85774836Y-104663419D02*
X85870074Y-104711038D01*
X85870074Y-104711038D02*
X85917693Y-104758657D01*
X85917693Y-104758657D02*
X85965312Y-104853895D01*
X85965312Y-104853895D02*
X85965312Y-104996752D01*
X85965312Y-104996752D02*
X85917693Y-105091990D01*
X85917693Y-105091990D02*
X85870074Y-105139609D01*
X85870074Y-105139609D02*
X85774836Y-105187228D01*
X85774836Y-105187228D02*
X85393884Y-105187228D01*
X86584360Y-104663419D02*
X86679598Y-104663419D01*
X86679598Y-104663419D02*
X86774836Y-104711038D01*
X86774836Y-104711038D02*
X86822455Y-104758657D01*
X86822455Y-104758657D02*
X86870074Y-104853895D01*
X86870074Y-104853895D02*
X86917693Y-105044371D01*
X86917693Y-105044371D02*
X86917693Y-105282466D01*
X86917693Y-105282466D02*
X86870074Y-105472942D01*
X86870074Y-105472942D02*
X86822455Y-105568180D01*
X86822455Y-105568180D02*
X86774836Y-105615800D01*
X86774836Y-105615800D02*
X86679598Y-105663419D01*
X86679598Y-105663419D02*
X86584360Y-105663419D01*
X86584360Y-105663419D02*
X86489122Y-105615800D01*
X86489122Y-105615800D02*
X86441503Y-105568180D01*
X86441503Y-105568180D02*
X86393884Y-105472942D01*
X86393884Y-105472942D02*
X86346265Y-105282466D01*
X86346265Y-105282466D02*
X86346265Y-105044371D01*
X86346265Y-105044371D02*
X86393884Y-104853895D01*
X86393884Y-104853895D02*
X86441503Y-104758657D01*
X86441503Y-104758657D02*
X86489122Y-104711038D01*
X86489122Y-104711038D02*
X86584360Y-104663419D01*
X85255789Y-104385800D02*
X87008170Y-104385800D01*
X138302419Y-34684687D02*
X137826228Y-35018020D01*
X138302419Y-35256115D02*
X137302419Y-35256115D01*
X137302419Y-35256115D02*
X137302419Y-34875163D01*
X137302419Y-34875163D02*
X137350038Y-34779925D01*
X137350038Y-34779925D02*
X137397657Y-34732306D01*
X137397657Y-34732306D02*
X137492895Y-34684687D01*
X137492895Y-34684687D02*
X137635752Y-34684687D01*
X137635752Y-34684687D02*
X137730990Y-34732306D01*
X137730990Y-34732306D02*
X137778609Y-34779925D01*
X137778609Y-34779925D02*
X137826228Y-34875163D01*
X137826228Y-34875163D02*
X137826228Y-35256115D01*
X138302419Y-34351353D02*
X137635752Y-33827544D01*
X137635752Y-34351353D02*
X138302419Y-33827544D01*
X137397657Y-33494210D02*
X137350038Y-33446591D01*
X137350038Y-33446591D02*
X137302419Y-33351353D01*
X137302419Y-33351353D02*
X137302419Y-33113258D01*
X137302419Y-33113258D02*
X137350038Y-33018020D01*
X137350038Y-33018020D02*
X137397657Y-32970401D01*
X137397657Y-32970401D02*
X137492895Y-32922782D01*
X137492895Y-32922782D02*
X137588133Y-32922782D01*
X137588133Y-32922782D02*
X137730990Y-32970401D01*
X137730990Y-32970401D02*
X138302419Y-33541829D01*
X138302419Y-33541829D02*
X138302419Y-32922782D01*
X53212419Y-26366115D02*
X52212419Y-26366115D01*
X52212419Y-26366115D02*
X53212419Y-25794687D01*
X53212419Y-25794687D02*
X52212419Y-25794687D01*
X53212419Y-25318496D02*
X52212419Y-25318496D01*
X52212419Y-25318496D02*
X52926704Y-24985163D01*
X52926704Y-24985163D02*
X52212419Y-24651830D01*
X52212419Y-24651830D02*
X53212419Y-24651830D01*
X53212419Y-24175639D02*
X52212419Y-24175639D01*
D11*
X65913333Y-37149580D02*
X65865714Y-37197200D01*
X65865714Y-37197200D02*
X65722857Y-37244819D01*
X65722857Y-37244819D02*
X65627619Y-37244819D01*
X65627619Y-37244819D02*
X65484762Y-37197200D01*
X65484762Y-37197200D02*
X65389524Y-37101961D01*
X65389524Y-37101961D02*
X65341905Y-37006723D01*
X65341905Y-37006723D02*
X65294286Y-36816247D01*
X65294286Y-36816247D02*
X65294286Y-36673390D01*
X65294286Y-36673390D02*
X65341905Y-36482914D01*
X65341905Y-36482914D02*
X65389524Y-36387676D01*
X65389524Y-36387676D02*
X65484762Y-36292438D01*
X65484762Y-36292438D02*
X65627619Y-36244819D01*
X65627619Y-36244819D02*
X65722857Y-36244819D01*
X65722857Y-36244819D02*
X65865714Y-36292438D01*
X65865714Y-36292438D02*
X65913333Y-36340057D01*
X66294286Y-36340057D02*
X66341905Y-36292438D01*
X66341905Y-36292438D02*
X66437143Y-36244819D01*
X66437143Y-36244819D02*
X66675238Y-36244819D01*
X66675238Y-36244819D02*
X66770476Y-36292438D01*
X66770476Y-36292438D02*
X66818095Y-36340057D01*
X66818095Y-36340057D02*
X66865714Y-36435295D01*
X66865714Y-36435295D02*
X66865714Y-36530533D01*
X66865714Y-36530533D02*
X66818095Y-36673390D01*
X66818095Y-36673390D02*
X66246667Y-37244819D01*
X66246667Y-37244819D02*
X66865714Y-37244819D01*
X82383333Y-41634580D02*
X82335714Y-41682200D01*
X82335714Y-41682200D02*
X82192857Y-41729819D01*
X82192857Y-41729819D02*
X82097619Y-41729819D01*
X82097619Y-41729819D02*
X81954762Y-41682200D01*
X81954762Y-41682200D02*
X81859524Y-41586961D01*
X81859524Y-41586961D02*
X81811905Y-41491723D01*
X81811905Y-41491723D02*
X81764286Y-41301247D01*
X81764286Y-41301247D02*
X81764286Y-41158390D01*
X81764286Y-41158390D02*
X81811905Y-40967914D01*
X81811905Y-40967914D02*
X81859524Y-40872676D01*
X81859524Y-40872676D02*
X81954762Y-40777438D01*
X81954762Y-40777438D02*
X82097619Y-40729819D01*
X82097619Y-40729819D02*
X82192857Y-40729819D01*
X82192857Y-40729819D02*
X82335714Y-40777438D01*
X82335714Y-40777438D02*
X82383333Y-40825057D01*
X83288095Y-40729819D02*
X82811905Y-40729819D01*
X82811905Y-40729819D02*
X82764286Y-41206009D01*
X82764286Y-41206009D02*
X82811905Y-41158390D01*
X82811905Y-41158390D02*
X82907143Y-41110771D01*
X82907143Y-41110771D02*
X83145238Y-41110771D01*
X83145238Y-41110771D02*
X83240476Y-41158390D01*
X83240476Y-41158390D02*
X83288095Y-41206009D01*
X83288095Y-41206009D02*
X83335714Y-41301247D01*
X83335714Y-41301247D02*
X83335714Y-41539342D01*
X83335714Y-41539342D02*
X83288095Y-41634580D01*
X83288095Y-41634580D02*
X83240476Y-41682200D01*
X83240476Y-41682200D02*
X83145238Y-41729819D01*
X83145238Y-41729819D02*
X82907143Y-41729819D01*
X82907143Y-41729819D02*
X82811905Y-41682200D01*
X82811905Y-41682200D02*
X82764286Y-41634580D01*
X36028333Y-52389580D02*
X35980714Y-52437200D01*
X35980714Y-52437200D02*
X35837857Y-52484819D01*
X35837857Y-52484819D02*
X35742619Y-52484819D01*
X35742619Y-52484819D02*
X35599762Y-52437200D01*
X35599762Y-52437200D02*
X35504524Y-52341961D01*
X35504524Y-52341961D02*
X35456905Y-52246723D01*
X35456905Y-52246723D02*
X35409286Y-52056247D01*
X35409286Y-52056247D02*
X35409286Y-51913390D01*
X35409286Y-51913390D02*
X35456905Y-51722914D01*
X35456905Y-51722914D02*
X35504524Y-51627676D01*
X35504524Y-51627676D02*
X35599762Y-51532438D01*
X35599762Y-51532438D02*
X35742619Y-51484819D01*
X35742619Y-51484819D02*
X35837857Y-51484819D01*
X35837857Y-51484819D02*
X35980714Y-51532438D01*
X35980714Y-51532438D02*
X36028333Y-51580057D01*
X36885476Y-51818152D02*
X36885476Y-52484819D01*
X36647381Y-51437200D02*
X36409286Y-52151485D01*
X36409286Y-52151485D02*
X37028333Y-52151485D01*
X46021666Y-28184819D02*
X46021666Y-28899104D01*
X46021666Y-28899104D02*
X45974047Y-29041961D01*
X45974047Y-29041961D02*
X45878809Y-29137200D01*
X45878809Y-29137200D02*
X45735952Y-29184819D01*
X45735952Y-29184819D02*
X45640714Y-29184819D01*
X46402619Y-28184819D02*
X47069285Y-28184819D01*
X47069285Y-28184819D02*
X46640714Y-29184819D01*
X76708095Y-43904819D02*
X76708095Y-44714342D01*
X76708095Y-44714342D02*
X76755714Y-44809580D01*
X76755714Y-44809580D02*
X76803333Y-44857200D01*
X76803333Y-44857200D02*
X76898571Y-44904819D01*
X76898571Y-44904819D02*
X77089047Y-44904819D01*
X77089047Y-44904819D02*
X77184285Y-44857200D01*
X77184285Y-44857200D02*
X77231904Y-44809580D01*
X77231904Y-44809580D02*
X77279523Y-44714342D01*
X77279523Y-44714342D02*
X77279523Y-43904819D01*
X77708095Y-44000057D02*
X77755714Y-43952438D01*
X77755714Y-43952438D02*
X77850952Y-43904819D01*
X77850952Y-43904819D02*
X78089047Y-43904819D01*
X78089047Y-43904819D02*
X78184285Y-43952438D01*
X78184285Y-43952438D02*
X78231904Y-44000057D01*
X78231904Y-44000057D02*
X78279523Y-44095295D01*
X78279523Y-44095295D02*
X78279523Y-44190533D01*
X78279523Y-44190533D02*
X78231904Y-44333390D01*
X78231904Y-44333390D02*
X77660476Y-44904819D01*
X77660476Y-44904819D02*
X78279523Y-44904819D01*
X102959819Y-102409523D02*
X103674104Y-102409523D01*
X103674104Y-102409523D02*
X103816961Y-102457142D01*
X103816961Y-102457142D02*
X103912200Y-102552380D01*
X103912200Y-102552380D02*
X103959819Y-102695237D01*
X103959819Y-102695237D02*
X103959819Y-102790475D01*
X103959819Y-101409523D02*
X103959819Y-101980951D01*
X103959819Y-101695237D02*
X102959819Y-101695237D01*
X102959819Y-101695237D02*
X103102676Y-101790475D01*
X103102676Y-101790475D02*
X103197914Y-101885713D01*
X103197914Y-101885713D02*
X103245533Y-101980951D01*
X103959819Y-100457142D02*
X103959819Y-101028570D01*
X103959819Y-100742856D02*
X102959819Y-100742856D01*
X102959819Y-100742856D02*
X103102676Y-100838094D01*
X103102676Y-100838094D02*
X103197914Y-100933332D01*
X103197914Y-100933332D02*
X103245533Y-101028570D01*
X65913333Y-28894580D02*
X65865714Y-28942200D01*
X65865714Y-28942200D02*
X65722857Y-28989819D01*
X65722857Y-28989819D02*
X65627619Y-28989819D01*
X65627619Y-28989819D02*
X65484762Y-28942200D01*
X65484762Y-28942200D02*
X65389524Y-28846961D01*
X65389524Y-28846961D02*
X65341905Y-28751723D01*
X65341905Y-28751723D02*
X65294286Y-28561247D01*
X65294286Y-28561247D02*
X65294286Y-28418390D01*
X65294286Y-28418390D02*
X65341905Y-28227914D01*
X65341905Y-28227914D02*
X65389524Y-28132676D01*
X65389524Y-28132676D02*
X65484762Y-28037438D01*
X65484762Y-28037438D02*
X65627619Y-27989819D01*
X65627619Y-27989819D02*
X65722857Y-27989819D01*
X65722857Y-27989819D02*
X65865714Y-28037438D01*
X65865714Y-28037438D02*
X65913333Y-28085057D01*
X66865714Y-28989819D02*
X66294286Y-28989819D01*
X66580000Y-28989819D02*
X66580000Y-27989819D01*
X66580000Y-27989819D02*
X66484762Y-28132676D01*
X66484762Y-28132676D02*
X66389524Y-28227914D01*
X66389524Y-28227914D02*
X66294286Y-28275533D01*
X115466905Y-83639819D02*
X115466905Y-82639819D01*
X115466905Y-82639819D02*
X115705000Y-82639819D01*
X115705000Y-82639819D02*
X115847857Y-82687438D01*
X115847857Y-82687438D02*
X115943095Y-82782676D01*
X115943095Y-82782676D02*
X115990714Y-82877914D01*
X115990714Y-82877914D02*
X116038333Y-83068390D01*
X116038333Y-83068390D02*
X116038333Y-83211247D01*
X116038333Y-83211247D02*
X115990714Y-83401723D01*
X115990714Y-83401723D02*
X115943095Y-83496961D01*
X115943095Y-83496961D02*
X115847857Y-83592200D01*
X115847857Y-83592200D02*
X115705000Y-83639819D01*
X115705000Y-83639819D02*
X115466905Y-83639819D01*
X116990714Y-83639819D02*
X116419286Y-83639819D01*
X116705000Y-83639819D02*
X116705000Y-82639819D01*
X116705000Y-82639819D02*
X116609762Y-82782676D01*
X116609762Y-82782676D02*
X116514524Y-82877914D01*
X116514524Y-82877914D02*
X116419286Y-82925533D01*
X134946666Y-20839819D02*
X134946666Y-21554104D01*
X134946666Y-21554104D02*
X134899047Y-21696961D01*
X134899047Y-21696961D02*
X134803809Y-21792200D01*
X134803809Y-21792200D02*
X134660952Y-21839819D01*
X134660952Y-21839819D02*
X134565714Y-21839819D01*
X135899047Y-20839819D02*
X135422857Y-20839819D01*
X135422857Y-20839819D02*
X135375238Y-21316009D01*
X135375238Y-21316009D02*
X135422857Y-21268390D01*
X135422857Y-21268390D02*
X135518095Y-21220771D01*
X135518095Y-21220771D02*
X135756190Y-21220771D01*
X135756190Y-21220771D02*
X135851428Y-21268390D01*
X135851428Y-21268390D02*
X135899047Y-21316009D01*
X135899047Y-21316009D02*
X135946666Y-21411247D01*
X135946666Y-21411247D02*
X135946666Y-21649342D01*
X135946666Y-21649342D02*
X135899047Y-21744580D01*
X135899047Y-21744580D02*
X135851428Y-21792200D01*
X135851428Y-21792200D02*
X135756190Y-21839819D01*
X135756190Y-21839819D02*
X135518095Y-21839819D01*
X135518095Y-21839819D02*
X135422857Y-21792200D01*
X135422857Y-21792200D02*
X135375238Y-21744580D01*
X112926905Y-83639819D02*
X112926905Y-82639819D01*
X112926905Y-82639819D02*
X113165000Y-82639819D01*
X113165000Y-82639819D02*
X113307857Y-82687438D01*
X113307857Y-82687438D02*
X113403095Y-82782676D01*
X113403095Y-82782676D02*
X113450714Y-82877914D01*
X113450714Y-82877914D02*
X113498333Y-83068390D01*
X113498333Y-83068390D02*
X113498333Y-83211247D01*
X113498333Y-83211247D02*
X113450714Y-83401723D01*
X113450714Y-83401723D02*
X113403095Y-83496961D01*
X113403095Y-83496961D02*
X113307857Y-83592200D01*
X113307857Y-83592200D02*
X113165000Y-83639819D01*
X113165000Y-83639819D02*
X112926905Y-83639819D01*
X113879286Y-82735057D02*
X113926905Y-82687438D01*
X113926905Y-82687438D02*
X114022143Y-82639819D01*
X114022143Y-82639819D02*
X114260238Y-82639819D01*
X114260238Y-82639819D02*
X114355476Y-82687438D01*
X114355476Y-82687438D02*
X114403095Y-82735057D01*
X114403095Y-82735057D02*
X114450714Y-82830295D01*
X114450714Y-82830295D02*
X114450714Y-82925533D01*
X114450714Y-82925533D02*
X114403095Y-83068390D01*
X114403095Y-83068390D02*
X113831667Y-83639819D01*
X113831667Y-83639819D02*
X114450714Y-83639819D01*
X49831666Y-28184819D02*
X49831666Y-28899104D01*
X49831666Y-28899104D02*
X49784047Y-29041961D01*
X49784047Y-29041961D02*
X49688809Y-29137200D01*
X49688809Y-29137200D02*
X49545952Y-29184819D01*
X49545952Y-29184819D02*
X49450714Y-29184819D01*
X50450714Y-28613390D02*
X50355476Y-28565771D01*
X50355476Y-28565771D02*
X50307857Y-28518152D01*
X50307857Y-28518152D02*
X50260238Y-28422914D01*
X50260238Y-28422914D02*
X50260238Y-28375295D01*
X50260238Y-28375295D02*
X50307857Y-28280057D01*
X50307857Y-28280057D02*
X50355476Y-28232438D01*
X50355476Y-28232438D02*
X50450714Y-28184819D01*
X50450714Y-28184819D02*
X50641190Y-28184819D01*
X50641190Y-28184819D02*
X50736428Y-28232438D01*
X50736428Y-28232438D02*
X50784047Y-28280057D01*
X50784047Y-28280057D02*
X50831666Y-28375295D01*
X50831666Y-28375295D02*
X50831666Y-28422914D01*
X50831666Y-28422914D02*
X50784047Y-28518152D01*
X50784047Y-28518152D02*
X50736428Y-28565771D01*
X50736428Y-28565771D02*
X50641190Y-28613390D01*
X50641190Y-28613390D02*
X50450714Y-28613390D01*
X50450714Y-28613390D02*
X50355476Y-28661009D01*
X50355476Y-28661009D02*
X50307857Y-28708628D01*
X50307857Y-28708628D02*
X50260238Y-28803866D01*
X50260238Y-28803866D02*
X50260238Y-28994342D01*
X50260238Y-28994342D02*
X50307857Y-29089580D01*
X50307857Y-29089580D02*
X50355476Y-29137200D01*
X50355476Y-29137200D02*
X50450714Y-29184819D01*
X50450714Y-29184819D02*
X50641190Y-29184819D01*
X50641190Y-29184819D02*
X50736428Y-29137200D01*
X50736428Y-29137200D02*
X50784047Y-29089580D01*
X50784047Y-29089580D02*
X50831666Y-28994342D01*
X50831666Y-28994342D02*
X50831666Y-28803866D01*
X50831666Y-28803866D02*
X50784047Y-28708628D01*
X50784047Y-28708628D02*
X50736428Y-28661009D01*
X50736428Y-28661009D02*
X50641190Y-28613390D01*
X29670476Y-61894819D02*
X30337142Y-62894819D01*
X30337142Y-61894819D02*
X29670476Y-62894819D01*
X31241904Y-62894819D02*
X30670476Y-62894819D01*
X30956190Y-62894819D02*
X30956190Y-61894819D01*
X30956190Y-61894819D02*
X30860952Y-62037676D01*
X30860952Y-62037676D02*
X30765714Y-62132914D01*
X30765714Y-62132914D02*
X30670476Y-62180533D01*
X131111666Y-33899819D02*
X131111666Y-34614104D01*
X131111666Y-34614104D02*
X131064047Y-34756961D01*
X131064047Y-34756961D02*
X130968809Y-34852200D01*
X130968809Y-34852200D02*
X130825952Y-34899819D01*
X130825952Y-34899819D02*
X130730714Y-34899819D01*
X132016428Y-33899819D02*
X131825952Y-33899819D01*
X131825952Y-33899819D02*
X131730714Y-33947438D01*
X131730714Y-33947438D02*
X131683095Y-33995057D01*
X131683095Y-33995057D02*
X131587857Y-34137914D01*
X131587857Y-34137914D02*
X131540238Y-34328390D01*
X131540238Y-34328390D02*
X131540238Y-34709342D01*
X131540238Y-34709342D02*
X131587857Y-34804580D01*
X131587857Y-34804580D02*
X131635476Y-34852200D01*
X131635476Y-34852200D02*
X131730714Y-34899819D01*
X131730714Y-34899819D02*
X131921190Y-34899819D01*
X131921190Y-34899819D02*
X132016428Y-34852200D01*
X132016428Y-34852200D02*
X132064047Y-34804580D01*
X132064047Y-34804580D02*
X132111666Y-34709342D01*
X132111666Y-34709342D02*
X132111666Y-34471247D01*
X132111666Y-34471247D02*
X132064047Y-34376009D01*
X132064047Y-34376009D02*
X132016428Y-34328390D01*
X132016428Y-34328390D02*
X131921190Y-34280771D01*
X131921190Y-34280771D02*
X131730714Y-34280771D01*
X131730714Y-34280771D02*
X131635476Y-34328390D01*
X131635476Y-34328390D02*
X131587857Y-34376009D01*
X131587857Y-34376009D02*
X131540238Y-34471247D01*
X120546905Y-83639819D02*
X120546905Y-82639819D01*
X120546905Y-82639819D02*
X120785000Y-82639819D01*
X120785000Y-82639819D02*
X120927857Y-82687438D01*
X120927857Y-82687438D02*
X121023095Y-82782676D01*
X121023095Y-82782676D02*
X121070714Y-82877914D01*
X121070714Y-82877914D02*
X121118333Y-83068390D01*
X121118333Y-83068390D02*
X121118333Y-83211247D01*
X121118333Y-83211247D02*
X121070714Y-83401723D01*
X121070714Y-83401723D02*
X121023095Y-83496961D01*
X121023095Y-83496961D02*
X120927857Y-83592200D01*
X120927857Y-83592200D02*
X120785000Y-83639819D01*
X120785000Y-83639819D02*
X120546905Y-83639819D01*
X121451667Y-82639819D02*
X122118333Y-82639819D01*
X122118333Y-82639819D02*
X121689762Y-83639819D01*
X28400476Y-27394819D02*
X28400476Y-28109104D01*
X28400476Y-28109104D02*
X28352857Y-28251961D01*
X28352857Y-28251961D02*
X28257619Y-28347200D01*
X28257619Y-28347200D02*
X28114762Y-28394819D01*
X28114762Y-28394819D02*
X28019524Y-28394819D01*
X29400476Y-28394819D02*
X28829048Y-28394819D01*
X29114762Y-28394819D02*
X29114762Y-27394819D01*
X29114762Y-27394819D02*
X29019524Y-27537676D01*
X29019524Y-27537676D02*
X28924286Y-27632914D01*
X28924286Y-27632914D02*
X28829048Y-27680533D01*
X30019524Y-27394819D02*
X30114762Y-27394819D01*
X30114762Y-27394819D02*
X30210000Y-27442438D01*
X30210000Y-27442438D02*
X30257619Y-27490057D01*
X30257619Y-27490057D02*
X30305238Y-27585295D01*
X30305238Y-27585295D02*
X30352857Y-27775771D01*
X30352857Y-27775771D02*
X30352857Y-28013866D01*
X30352857Y-28013866D02*
X30305238Y-28204342D01*
X30305238Y-28204342D02*
X30257619Y-28299580D01*
X30257619Y-28299580D02*
X30210000Y-28347200D01*
X30210000Y-28347200D02*
X30114762Y-28394819D01*
X30114762Y-28394819D02*
X30019524Y-28394819D01*
X30019524Y-28394819D02*
X29924286Y-28347200D01*
X29924286Y-28347200D02*
X29876667Y-28299580D01*
X29876667Y-28299580D02*
X29829048Y-28204342D01*
X29829048Y-28204342D02*
X29781429Y-28013866D01*
X29781429Y-28013866D02*
X29781429Y-27775771D01*
X29781429Y-27775771D02*
X29829048Y-27585295D01*
X29829048Y-27585295D02*
X29876667Y-27490057D01*
X29876667Y-27490057D02*
X29924286Y-27442438D01*
X29924286Y-27442438D02*
X30019524Y-27394819D01*
X70113628Y-30856190D02*
X70589819Y-30856190D01*
X69589819Y-31189523D02*
X70113628Y-30856190D01*
X70113628Y-30856190D02*
X69589819Y-30522857D01*
X70589819Y-29665714D02*
X70589819Y-30237142D01*
X70589819Y-29951428D02*
X69589819Y-29951428D01*
X69589819Y-29951428D02*
X69732676Y-30046666D01*
X69732676Y-30046666D02*
X69827914Y-30141904D01*
X69827914Y-30141904D02*
X69875533Y-30237142D01*
X119883095Y-44114819D02*
X119883095Y-44924342D01*
X119883095Y-44924342D02*
X119930714Y-45019580D01*
X119930714Y-45019580D02*
X119978333Y-45067200D01*
X119978333Y-45067200D02*
X120073571Y-45114819D01*
X120073571Y-45114819D02*
X120264047Y-45114819D01*
X120264047Y-45114819D02*
X120359285Y-45067200D01*
X120359285Y-45067200D02*
X120406904Y-45019580D01*
X120406904Y-45019580D02*
X120454523Y-44924342D01*
X120454523Y-44924342D02*
X120454523Y-44114819D01*
X120835476Y-44114819D02*
X121454523Y-44114819D01*
X121454523Y-44114819D02*
X121121190Y-44495771D01*
X121121190Y-44495771D02*
X121264047Y-44495771D01*
X121264047Y-44495771D02*
X121359285Y-44543390D01*
X121359285Y-44543390D02*
X121406904Y-44591009D01*
X121406904Y-44591009D02*
X121454523Y-44686247D01*
X121454523Y-44686247D02*
X121454523Y-44924342D01*
X121454523Y-44924342D02*
X121406904Y-45019580D01*
X121406904Y-45019580D02*
X121359285Y-45067200D01*
X121359285Y-45067200D02*
X121264047Y-45114819D01*
X121264047Y-45114819D02*
X120978333Y-45114819D01*
X120978333Y-45114819D02*
X120883095Y-45067200D01*
X120883095Y-45067200D02*
X120835476Y-45019580D01*
X33109819Y-88391904D02*
X33919342Y-88391904D01*
X33919342Y-88391904D02*
X34014580Y-88344285D01*
X34014580Y-88344285D02*
X34062200Y-88296666D01*
X34062200Y-88296666D02*
X34109819Y-88201428D01*
X34109819Y-88201428D02*
X34109819Y-88010952D01*
X34109819Y-88010952D02*
X34062200Y-87915714D01*
X34062200Y-87915714D02*
X34014580Y-87868095D01*
X34014580Y-87868095D02*
X33919342Y-87820476D01*
X33919342Y-87820476D02*
X33109819Y-87820476D01*
X33109819Y-86868095D02*
X33109819Y-87344285D01*
X33109819Y-87344285D02*
X33586009Y-87391904D01*
X33586009Y-87391904D02*
X33538390Y-87344285D01*
X33538390Y-87344285D02*
X33490771Y-87249047D01*
X33490771Y-87249047D02*
X33490771Y-87010952D01*
X33490771Y-87010952D02*
X33538390Y-86915714D01*
X33538390Y-86915714D02*
X33586009Y-86868095D01*
X33586009Y-86868095D02*
X33681247Y-86820476D01*
X33681247Y-86820476D02*
X33919342Y-86820476D01*
X33919342Y-86820476D02*
X34014580Y-86868095D01*
X34014580Y-86868095D02*
X34062200Y-86915714D01*
X34062200Y-86915714D02*
X34109819Y-87010952D01*
X34109819Y-87010952D02*
X34109819Y-87249047D01*
X34109819Y-87249047D02*
X34062200Y-87344285D01*
X34062200Y-87344285D02*
X34014580Y-87391904D01*
X56874580Y-92876666D02*
X56922200Y-92924285D01*
X56922200Y-92924285D02*
X56969819Y-93067142D01*
X56969819Y-93067142D02*
X56969819Y-93162380D01*
X56969819Y-93162380D02*
X56922200Y-93305237D01*
X56922200Y-93305237D02*
X56826961Y-93400475D01*
X56826961Y-93400475D02*
X56731723Y-93448094D01*
X56731723Y-93448094D02*
X56541247Y-93495713D01*
X56541247Y-93495713D02*
X56398390Y-93495713D01*
X56398390Y-93495713D02*
X56207914Y-93448094D01*
X56207914Y-93448094D02*
X56112676Y-93400475D01*
X56112676Y-93400475D02*
X56017438Y-93305237D01*
X56017438Y-93305237D02*
X55969819Y-93162380D01*
X55969819Y-93162380D02*
X55969819Y-93067142D01*
X55969819Y-93067142D02*
X56017438Y-92924285D01*
X56017438Y-92924285D02*
X56065057Y-92876666D01*
X56969819Y-92400475D02*
X56969819Y-92209999D01*
X56969819Y-92209999D02*
X56922200Y-92114761D01*
X56922200Y-92114761D02*
X56874580Y-92067142D01*
X56874580Y-92067142D02*
X56731723Y-91971904D01*
X56731723Y-91971904D02*
X56541247Y-91924285D01*
X56541247Y-91924285D02*
X56160295Y-91924285D01*
X56160295Y-91924285D02*
X56065057Y-91971904D01*
X56065057Y-91971904D02*
X56017438Y-92019523D01*
X56017438Y-92019523D02*
X55969819Y-92114761D01*
X55969819Y-92114761D02*
X55969819Y-92305237D01*
X55969819Y-92305237D02*
X56017438Y-92400475D01*
X56017438Y-92400475D02*
X56065057Y-92448094D01*
X56065057Y-92448094D02*
X56160295Y-92495713D01*
X56160295Y-92495713D02*
X56398390Y-92495713D01*
X56398390Y-92495713D02*
X56493628Y-92448094D01*
X56493628Y-92448094D02*
X56541247Y-92400475D01*
X56541247Y-92400475D02*
X56588866Y-92305237D01*
X56588866Y-92305237D02*
X56588866Y-92114761D01*
X56588866Y-92114761D02*
X56541247Y-92019523D01*
X56541247Y-92019523D02*
X56493628Y-91971904D01*
X56493628Y-91971904D02*
X56398390Y-91924285D01*
X94488095Y-43904819D02*
X94488095Y-44714342D01*
X94488095Y-44714342D02*
X94535714Y-44809580D01*
X94535714Y-44809580D02*
X94583333Y-44857200D01*
X94583333Y-44857200D02*
X94678571Y-44904819D01*
X94678571Y-44904819D02*
X94869047Y-44904819D01*
X94869047Y-44904819D02*
X94964285Y-44857200D01*
X94964285Y-44857200D02*
X95011904Y-44809580D01*
X95011904Y-44809580D02*
X95059523Y-44714342D01*
X95059523Y-44714342D02*
X95059523Y-43904819D01*
X95440476Y-43904819D02*
X96107142Y-43904819D01*
X96107142Y-43904819D02*
X95678571Y-44904819D01*
X133016666Y-101054819D02*
X133016666Y-101769104D01*
X133016666Y-101769104D02*
X132969047Y-101911961D01*
X132969047Y-101911961D02*
X132873809Y-102007200D01*
X132873809Y-102007200D02*
X132730952Y-102054819D01*
X132730952Y-102054819D02*
X132635714Y-102054819D01*
X133921428Y-101388152D02*
X133921428Y-102054819D01*
X133683333Y-101007200D02*
X133445238Y-101721485D01*
X133445238Y-101721485D02*
X134064285Y-101721485D01*
X134304580Y-49656666D02*
X134352200Y-49704285D01*
X134352200Y-49704285D02*
X134399819Y-49847142D01*
X134399819Y-49847142D02*
X134399819Y-49942380D01*
X134399819Y-49942380D02*
X134352200Y-50085237D01*
X134352200Y-50085237D02*
X134256961Y-50180475D01*
X134256961Y-50180475D02*
X134161723Y-50228094D01*
X134161723Y-50228094D02*
X133971247Y-50275713D01*
X133971247Y-50275713D02*
X133828390Y-50275713D01*
X133828390Y-50275713D02*
X133637914Y-50228094D01*
X133637914Y-50228094D02*
X133542676Y-50180475D01*
X133542676Y-50180475D02*
X133447438Y-50085237D01*
X133447438Y-50085237D02*
X133399819Y-49942380D01*
X133399819Y-49942380D02*
X133399819Y-49847142D01*
X133399819Y-49847142D02*
X133447438Y-49704285D01*
X133447438Y-49704285D02*
X133495057Y-49656666D01*
X133399819Y-49323332D02*
X133399819Y-48656666D01*
X133399819Y-48656666D02*
X134399819Y-49085237D01*
X100203333Y-41634580D02*
X100155714Y-41682200D01*
X100155714Y-41682200D02*
X100012857Y-41729819D01*
X100012857Y-41729819D02*
X99917619Y-41729819D01*
X99917619Y-41729819D02*
X99774762Y-41682200D01*
X99774762Y-41682200D02*
X99679524Y-41586961D01*
X99679524Y-41586961D02*
X99631905Y-41491723D01*
X99631905Y-41491723D02*
X99584286Y-41301247D01*
X99584286Y-41301247D02*
X99584286Y-41158390D01*
X99584286Y-41158390D02*
X99631905Y-40967914D01*
X99631905Y-40967914D02*
X99679524Y-40872676D01*
X99679524Y-40872676D02*
X99774762Y-40777438D01*
X99774762Y-40777438D02*
X99917619Y-40729819D01*
X99917619Y-40729819D02*
X100012857Y-40729819D01*
X100012857Y-40729819D02*
X100155714Y-40777438D01*
X100155714Y-40777438D02*
X100203333Y-40825057D01*
X101060476Y-40729819D02*
X100870000Y-40729819D01*
X100870000Y-40729819D02*
X100774762Y-40777438D01*
X100774762Y-40777438D02*
X100727143Y-40825057D01*
X100727143Y-40825057D02*
X100631905Y-40967914D01*
X100631905Y-40967914D02*
X100584286Y-41158390D01*
X100584286Y-41158390D02*
X100584286Y-41539342D01*
X100584286Y-41539342D02*
X100631905Y-41634580D01*
X100631905Y-41634580D02*
X100679524Y-41682200D01*
X100679524Y-41682200D02*
X100774762Y-41729819D01*
X100774762Y-41729819D02*
X100965238Y-41729819D01*
X100965238Y-41729819D02*
X101060476Y-41682200D01*
X101060476Y-41682200D02*
X101108095Y-41634580D01*
X101108095Y-41634580D02*
X101155714Y-41539342D01*
X101155714Y-41539342D02*
X101155714Y-41301247D01*
X101155714Y-41301247D02*
X101108095Y-41206009D01*
X101108095Y-41206009D02*
X101060476Y-41158390D01*
X101060476Y-41158390D02*
X100965238Y-41110771D01*
X100965238Y-41110771D02*
X100774762Y-41110771D01*
X100774762Y-41110771D02*
X100679524Y-41158390D01*
X100679524Y-41158390D02*
X100631905Y-41206009D01*
X100631905Y-41206009D02*
X100584286Y-41301247D01*
X118006905Y-83639819D02*
X118006905Y-82639819D01*
X118006905Y-82639819D02*
X118245000Y-82639819D01*
X118245000Y-82639819D02*
X118387857Y-82687438D01*
X118387857Y-82687438D02*
X118483095Y-82782676D01*
X118483095Y-82782676D02*
X118530714Y-82877914D01*
X118530714Y-82877914D02*
X118578333Y-83068390D01*
X118578333Y-83068390D02*
X118578333Y-83211247D01*
X118578333Y-83211247D02*
X118530714Y-83401723D01*
X118530714Y-83401723D02*
X118483095Y-83496961D01*
X118483095Y-83496961D02*
X118387857Y-83592200D01*
X118387857Y-83592200D02*
X118245000Y-83639819D01*
X118245000Y-83639819D02*
X118006905Y-83639819D01*
X119149762Y-83068390D02*
X119054524Y-83020771D01*
X119054524Y-83020771D02*
X119006905Y-82973152D01*
X119006905Y-82973152D02*
X118959286Y-82877914D01*
X118959286Y-82877914D02*
X118959286Y-82830295D01*
X118959286Y-82830295D02*
X119006905Y-82735057D01*
X119006905Y-82735057D02*
X119054524Y-82687438D01*
X119054524Y-82687438D02*
X119149762Y-82639819D01*
X119149762Y-82639819D02*
X119340238Y-82639819D01*
X119340238Y-82639819D02*
X119435476Y-82687438D01*
X119435476Y-82687438D02*
X119483095Y-82735057D01*
X119483095Y-82735057D02*
X119530714Y-82830295D01*
X119530714Y-82830295D02*
X119530714Y-82877914D01*
X119530714Y-82877914D02*
X119483095Y-82973152D01*
X119483095Y-82973152D02*
X119435476Y-83020771D01*
X119435476Y-83020771D02*
X119340238Y-83068390D01*
X119340238Y-83068390D02*
X119149762Y-83068390D01*
X119149762Y-83068390D02*
X119054524Y-83116009D01*
X119054524Y-83116009D02*
X119006905Y-83163628D01*
X119006905Y-83163628D02*
X118959286Y-83258866D01*
X118959286Y-83258866D02*
X118959286Y-83449342D01*
X118959286Y-83449342D02*
X119006905Y-83544580D01*
X119006905Y-83544580D02*
X119054524Y-83592200D01*
X119054524Y-83592200D02*
X119149762Y-83639819D01*
X119149762Y-83639819D02*
X119340238Y-83639819D01*
X119340238Y-83639819D02*
X119435476Y-83592200D01*
X119435476Y-83592200D02*
X119483095Y-83544580D01*
X119483095Y-83544580D02*
X119530714Y-83449342D01*
X119530714Y-83449342D02*
X119530714Y-83258866D01*
X119530714Y-83258866D02*
X119483095Y-83163628D01*
X119483095Y-83163628D02*
X119435476Y-83116009D01*
X119435476Y-83116009D02*
X119340238Y-83068390D01*
X104864819Y-101091904D02*
X105674342Y-101091904D01*
X105674342Y-101091904D02*
X105769580Y-101044285D01*
X105769580Y-101044285D02*
X105817200Y-100996666D01*
X105817200Y-100996666D02*
X105864819Y-100901428D01*
X105864819Y-100901428D02*
X105864819Y-100710952D01*
X105864819Y-100710952D02*
X105817200Y-100615714D01*
X105817200Y-100615714D02*
X105769580Y-100568095D01*
X105769580Y-100568095D02*
X105674342Y-100520476D01*
X105674342Y-100520476D02*
X104864819Y-100520476D01*
X104864819Y-99615714D02*
X104864819Y-99806190D01*
X104864819Y-99806190D02*
X104912438Y-99901428D01*
X104912438Y-99901428D02*
X104960057Y-99949047D01*
X104960057Y-99949047D02*
X105102914Y-100044285D01*
X105102914Y-100044285D02*
X105293390Y-100091904D01*
X105293390Y-100091904D02*
X105674342Y-100091904D01*
X105674342Y-100091904D02*
X105769580Y-100044285D01*
X105769580Y-100044285D02*
X105817200Y-99996666D01*
X105817200Y-99996666D02*
X105864819Y-99901428D01*
X105864819Y-99901428D02*
X105864819Y-99710952D01*
X105864819Y-99710952D02*
X105817200Y-99615714D01*
X105817200Y-99615714D02*
X105769580Y-99568095D01*
X105769580Y-99568095D02*
X105674342Y-99520476D01*
X105674342Y-99520476D02*
X105436247Y-99520476D01*
X105436247Y-99520476D02*
X105341009Y-99568095D01*
X105341009Y-99568095D02*
X105293390Y-99615714D01*
X105293390Y-99615714D02*
X105245771Y-99710952D01*
X105245771Y-99710952D02*
X105245771Y-99901428D01*
X105245771Y-99901428D02*
X105293390Y-99996666D01*
X105293390Y-99996666D02*
X105341009Y-100044285D01*
X105341009Y-100044285D02*
X105436247Y-100091904D01*
X93009819Y-103203333D02*
X93724104Y-103203333D01*
X93724104Y-103203333D02*
X93866961Y-103250952D01*
X93866961Y-103250952D02*
X93962200Y-103346190D01*
X93962200Y-103346190D02*
X94009819Y-103489047D01*
X94009819Y-103489047D02*
X94009819Y-103584285D01*
X94009819Y-102679523D02*
X94009819Y-102489047D01*
X94009819Y-102489047D02*
X93962200Y-102393809D01*
X93962200Y-102393809D02*
X93914580Y-102346190D01*
X93914580Y-102346190D02*
X93771723Y-102250952D01*
X93771723Y-102250952D02*
X93581247Y-102203333D01*
X93581247Y-102203333D02*
X93200295Y-102203333D01*
X93200295Y-102203333D02*
X93105057Y-102250952D01*
X93105057Y-102250952D02*
X93057438Y-102298571D01*
X93057438Y-102298571D02*
X93009819Y-102393809D01*
X93009819Y-102393809D02*
X93009819Y-102584285D01*
X93009819Y-102584285D02*
X93057438Y-102679523D01*
X93057438Y-102679523D02*
X93105057Y-102727142D01*
X93105057Y-102727142D02*
X93200295Y-102774761D01*
X93200295Y-102774761D02*
X93438390Y-102774761D01*
X93438390Y-102774761D02*
X93533628Y-102727142D01*
X93533628Y-102727142D02*
X93581247Y-102679523D01*
X93581247Y-102679523D02*
X93628866Y-102584285D01*
X93628866Y-102584285D02*
X93628866Y-102393809D01*
X93628866Y-102393809D02*
X93581247Y-102298571D01*
X93581247Y-102298571D02*
X93533628Y-102250952D01*
X93533628Y-102250952D02*
X93438390Y-102203333D01*
X30491667Y-38997200D02*
X30634524Y-39044819D01*
X30634524Y-39044819D02*
X30872619Y-39044819D01*
X30872619Y-39044819D02*
X30967857Y-38997200D01*
X30967857Y-38997200D02*
X31015476Y-38949580D01*
X31015476Y-38949580D02*
X31063095Y-38854342D01*
X31063095Y-38854342D02*
X31063095Y-38759104D01*
X31063095Y-38759104D02*
X31015476Y-38663866D01*
X31015476Y-38663866D02*
X30967857Y-38616247D01*
X30967857Y-38616247D02*
X30872619Y-38568628D01*
X30872619Y-38568628D02*
X30682143Y-38521009D01*
X30682143Y-38521009D02*
X30586905Y-38473390D01*
X30586905Y-38473390D02*
X30539286Y-38425771D01*
X30539286Y-38425771D02*
X30491667Y-38330533D01*
X30491667Y-38330533D02*
X30491667Y-38235295D01*
X30491667Y-38235295D02*
X30539286Y-38140057D01*
X30539286Y-38140057D02*
X30586905Y-38092438D01*
X30586905Y-38092438D02*
X30682143Y-38044819D01*
X30682143Y-38044819D02*
X30920238Y-38044819D01*
X30920238Y-38044819D02*
X31063095Y-38092438D01*
X31396429Y-38044819D02*
X31634524Y-39044819D01*
X31634524Y-39044819D02*
X31825000Y-38330533D01*
X31825000Y-38330533D02*
X32015476Y-39044819D01*
X32015476Y-39044819D02*
X32253572Y-38044819D01*
X33158333Y-39044819D02*
X32586905Y-39044819D01*
X32872619Y-39044819D02*
X32872619Y-38044819D01*
X32872619Y-38044819D02*
X32777381Y-38187676D01*
X32777381Y-38187676D02*
X32682143Y-38282914D01*
X32682143Y-38282914D02*
X32586905Y-38330533D01*
X107761905Y-83639819D02*
X107761905Y-82639819D01*
X107761905Y-82639819D02*
X108000000Y-82639819D01*
X108000000Y-82639819D02*
X108142857Y-82687438D01*
X108142857Y-82687438D02*
X108238095Y-82782676D01*
X108238095Y-82782676D02*
X108285714Y-82877914D01*
X108285714Y-82877914D02*
X108333333Y-83068390D01*
X108333333Y-83068390D02*
X108333333Y-83211247D01*
X108333333Y-83211247D02*
X108285714Y-83401723D01*
X108285714Y-83401723D02*
X108238095Y-83496961D01*
X108238095Y-83496961D02*
X108142857Y-83592200D01*
X108142857Y-83592200D02*
X108000000Y-83639819D01*
X108000000Y-83639819D02*
X107761905Y-83639819D01*
X109190476Y-82973152D02*
X109190476Y-83639819D01*
X108952381Y-82592200D02*
X108714286Y-83306485D01*
X108714286Y-83306485D02*
X109333333Y-83306485D01*
X68413333Y-22584580D02*
X68365714Y-22632200D01*
X68365714Y-22632200D02*
X68222857Y-22679819D01*
X68222857Y-22679819D02*
X68127619Y-22679819D01*
X68127619Y-22679819D02*
X67984762Y-22632200D01*
X67984762Y-22632200D02*
X67889524Y-22536961D01*
X67889524Y-22536961D02*
X67841905Y-22441723D01*
X67841905Y-22441723D02*
X67794286Y-22251247D01*
X67794286Y-22251247D02*
X67794286Y-22108390D01*
X67794286Y-22108390D02*
X67841905Y-21917914D01*
X67841905Y-21917914D02*
X67889524Y-21822676D01*
X67889524Y-21822676D02*
X67984762Y-21727438D01*
X67984762Y-21727438D02*
X68127619Y-21679819D01*
X68127619Y-21679819D02*
X68222857Y-21679819D01*
X68222857Y-21679819D02*
X68365714Y-21727438D01*
X68365714Y-21727438D02*
X68413333Y-21775057D01*
X68746667Y-21679819D02*
X69365714Y-21679819D01*
X69365714Y-21679819D02*
X69032381Y-22060771D01*
X69032381Y-22060771D02*
X69175238Y-22060771D01*
X69175238Y-22060771D02*
X69270476Y-22108390D01*
X69270476Y-22108390D02*
X69318095Y-22156009D01*
X69318095Y-22156009D02*
X69365714Y-22251247D01*
X69365714Y-22251247D02*
X69365714Y-22489342D01*
X69365714Y-22489342D02*
X69318095Y-22584580D01*
X69318095Y-22584580D02*
X69270476Y-22632200D01*
X69270476Y-22632200D02*
X69175238Y-22679819D01*
X69175238Y-22679819D02*
X68889524Y-22679819D01*
X68889524Y-22679819D02*
X68794286Y-22632200D01*
X68794286Y-22632200D02*
X68746667Y-22584580D01*
X77134819Y-31876904D02*
X77944342Y-31876904D01*
X77944342Y-31876904D02*
X78039580Y-31829285D01*
X78039580Y-31829285D02*
X78087200Y-31781666D01*
X78087200Y-31781666D02*
X78134819Y-31686428D01*
X78134819Y-31686428D02*
X78134819Y-31495952D01*
X78134819Y-31495952D02*
X78087200Y-31400714D01*
X78087200Y-31400714D02*
X78039580Y-31353095D01*
X78039580Y-31353095D02*
X77944342Y-31305476D01*
X77944342Y-31305476D02*
X77134819Y-31305476D01*
X77563390Y-30686428D02*
X77515771Y-30781666D01*
X77515771Y-30781666D02*
X77468152Y-30829285D01*
X77468152Y-30829285D02*
X77372914Y-30876904D01*
X77372914Y-30876904D02*
X77325295Y-30876904D01*
X77325295Y-30876904D02*
X77230057Y-30829285D01*
X77230057Y-30829285D02*
X77182438Y-30781666D01*
X77182438Y-30781666D02*
X77134819Y-30686428D01*
X77134819Y-30686428D02*
X77134819Y-30495952D01*
X77134819Y-30495952D02*
X77182438Y-30400714D01*
X77182438Y-30400714D02*
X77230057Y-30353095D01*
X77230057Y-30353095D02*
X77325295Y-30305476D01*
X77325295Y-30305476D02*
X77372914Y-30305476D01*
X77372914Y-30305476D02*
X77468152Y-30353095D01*
X77468152Y-30353095D02*
X77515771Y-30400714D01*
X77515771Y-30400714D02*
X77563390Y-30495952D01*
X77563390Y-30495952D02*
X77563390Y-30686428D01*
X77563390Y-30686428D02*
X77611009Y-30781666D01*
X77611009Y-30781666D02*
X77658628Y-30829285D01*
X77658628Y-30829285D02*
X77753866Y-30876904D01*
X77753866Y-30876904D02*
X77944342Y-30876904D01*
X77944342Y-30876904D02*
X78039580Y-30829285D01*
X78039580Y-30829285D02*
X78087200Y-30781666D01*
X78087200Y-30781666D02*
X78134819Y-30686428D01*
X78134819Y-30686428D02*
X78134819Y-30495952D01*
X78134819Y-30495952D02*
X78087200Y-30400714D01*
X78087200Y-30400714D02*
X78039580Y-30353095D01*
X78039580Y-30353095D02*
X77944342Y-30305476D01*
X77944342Y-30305476D02*
X77753866Y-30305476D01*
X77753866Y-30305476D02*
X77658628Y-30353095D01*
X77658628Y-30353095D02*
X77611009Y-30400714D01*
X77611009Y-30400714D02*
X77563390Y-30495952D01*
X52578095Y-28874819D02*
X52578095Y-29684342D01*
X52578095Y-29684342D02*
X52625714Y-29779580D01*
X52625714Y-29779580D02*
X52673333Y-29827200D01*
X52673333Y-29827200D02*
X52768571Y-29874819D01*
X52768571Y-29874819D02*
X52959047Y-29874819D01*
X52959047Y-29874819D02*
X53054285Y-29827200D01*
X53054285Y-29827200D02*
X53101904Y-29779580D01*
X53101904Y-29779580D02*
X53149523Y-29684342D01*
X53149523Y-29684342D02*
X53149523Y-28874819D01*
X54149523Y-29874819D02*
X53578095Y-29874819D01*
X53863809Y-29874819D02*
X53863809Y-28874819D01*
X53863809Y-28874819D02*
X53768571Y-29017676D01*
X53768571Y-29017676D02*
X53673333Y-29112914D01*
X53673333Y-29112914D02*
X53578095Y-29160533D01*
X110386905Y-83639819D02*
X110386905Y-82639819D01*
X110386905Y-82639819D02*
X110625000Y-82639819D01*
X110625000Y-82639819D02*
X110767857Y-82687438D01*
X110767857Y-82687438D02*
X110863095Y-82782676D01*
X110863095Y-82782676D02*
X110910714Y-82877914D01*
X110910714Y-82877914D02*
X110958333Y-83068390D01*
X110958333Y-83068390D02*
X110958333Y-83211247D01*
X110958333Y-83211247D02*
X110910714Y-83401723D01*
X110910714Y-83401723D02*
X110863095Y-83496961D01*
X110863095Y-83496961D02*
X110767857Y-83592200D01*
X110767857Y-83592200D02*
X110625000Y-83639819D01*
X110625000Y-83639819D02*
X110386905Y-83639819D01*
X111291667Y-82639819D02*
X111910714Y-82639819D01*
X111910714Y-82639819D02*
X111577381Y-83020771D01*
X111577381Y-83020771D02*
X111720238Y-83020771D01*
X111720238Y-83020771D02*
X111815476Y-83068390D01*
X111815476Y-83068390D02*
X111863095Y-83116009D01*
X111863095Y-83116009D02*
X111910714Y-83211247D01*
X111910714Y-83211247D02*
X111910714Y-83449342D01*
X111910714Y-83449342D02*
X111863095Y-83544580D01*
X111863095Y-83544580D02*
X111815476Y-83592200D01*
X111815476Y-83592200D02*
X111720238Y-83639819D01*
X111720238Y-83639819D02*
X111434524Y-83639819D01*
X111434524Y-83639819D02*
X111339286Y-83592200D01*
X111339286Y-83592200D02*
X111291667Y-83544580D01*
X43172142Y-21949580D02*
X43124523Y-21997200D01*
X43124523Y-21997200D02*
X42981666Y-22044819D01*
X42981666Y-22044819D02*
X42886428Y-22044819D01*
X42886428Y-22044819D02*
X42743571Y-21997200D01*
X42743571Y-21997200D02*
X42648333Y-21901961D01*
X42648333Y-21901961D02*
X42600714Y-21806723D01*
X42600714Y-21806723D02*
X42553095Y-21616247D01*
X42553095Y-21616247D02*
X42553095Y-21473390D01*
X42553095Y-21473390D02*
X42600714Y-21282914D01*
X42600714Y-21282914D02*
X42648333Y-21187676D01*
X42648333Y-21187676D02*
X42743571Y-21092438D01*
X42743571Y-21092438D02*
X42886428Y-21044819D01*
X42886428Y-21044819D02*
X42981666Y-21044819D01*
X42981666Y-21044819D02*
X43124523Y-21092438D01*
X43124523Y-21092438D02*
X43172142Y-21140057D01*
X44124523Y-22044819D02*
X43553095Y-22044819D01*
X43838809Y-22044819D02*
X43838809Y-21044819D01*
X43838809Y-21044819D02*
X43743571Y-21187676D01*
X43743571Y-21187676D02*
X43648333Y-21282914D01*
X43648333Y-21282914D02*
X43553095Y-21330533D01*
X45076904Y-22044819D02*
X44505476Y-22044819D01*
X44791190Y-22044819D02*
X44791190Y-21044819D01*
X44791190Y-21044819D02*
X44695952Y-21187676D01*
X44695952Y-21187676D02*
X44600714Y-21282914D01*
X44600714Y-21282914D02*
X44505476Y-21330533D01*
X61049819Y-88391904D02*
X61859342Y-88391904D01*
X61859342Y-88391904D02*
X61954580Y-88344285D01*
X61954580Y-88344285D02*
X62002200Y-88296666D01*
X62002200Y-88296666D02*
X62049819Y-88201428D01*
X62049819Y-88201428D02*
X62049819Y-88010952D01*
X62049819Y-88010952D02*
X62002200Y-87915714D01*
X62002200Y-87915714D02*
X61954580Y-87868095D01*
X61954580Y-87868095D02*
X61859342Y-87820476D01*
X61859342Y-87820476D02*
X61049819Y-87820476D01*
X61383152Y-86915714D02*
X62049819Y-86915714D01*
X61002200Y-87153809D02*
X61716485Y-87391904D01*
X61716485Y-87391904D02*
X61716485Y-86772857D01*
X69227142Y-41059580D02*
X69179523Y-41107200D01*
X69179523Y-41107200D02*
X69036666Y-41154819D01*
X69036666Y-41154819D02*
X68941428Y-41154819D01*
X68941428Y-41154819D02*
X68798571Y-41107200D01*
X68798571Y-41107200D02*
X68703333Y-41011961D01*
X68703333Y-41011961D02*
X68655714Y-40916723D01*
X68655714Y-40916723D02*
X68608095Y-40726247D01*
X68608095Y-40726247D02*
X68608095Y-40583390D01*
X68608095Y-40583390D02*
X68655714Y-40392914D01*
X68655714Y-40392914D02*
X68703333Y-40297676D01*
X68703333Y-40297676D02*
X68798571Y-40202438D01*
X68798571Y-40202438D02*
X68941428Y-40154819D01*
X68941428Y-40154819D02*
X69036666Y-40154819D01*
X69036666Y-40154819D02*
X69179523Y-40202438D01*
X69179523Y-40202438D02*
X69227142Y-40250057D01*
X70179523Y-41154819D02*
X69608095Y-41154819D01*
X69893809Y-41154819D02*
X69893809Y-40154819D01*
X69893809Y-40154819D02*
X69798571Y-40297676D01*
X69798571Y-40297676D02*
X69703333Y-40392914D01*
X69703333Y-40392914D02*
X69608095Y-40440533D01*
X70560476Y-40250057D02*
X70608095Y-40202438D01*
X70608095Y-40202438D02*
X70703333Y-40154819D01*
X70703333Y-40154819D02*
X70941428Y-40154819D01*
X70941428Y-40154819D02*
X71036666Y-40202438D01*
X71036666Y-40202438D02*
X71084285Y-40250057D01*
X71084285Y-40250057D02*
X71131904Y-40345295D01*
X71131904Y-40345295D02*
X71131904Y-40440533D01*
X71131904Y-40440533D02*
X71084285Y-40583390D01*
X71084285Y-40583390D02*
X70512857Y-41154819D01*
X70512857Y-41154819D02*
X71131904Y-41154819D01*
X95034580Y-93942970D02*
X95082200Y-93990589D01*
X95082200Y-93990589D02*
X95129819Y-94133446D01*
X95129819Y-94133446D02*
X95129819Y-94228684D01*
X95129819Y-94228684D02*
X95082200Y-94371541D01*
X95082200Y-94371541D02*
X94986961Y-94466779D01*
X94986961Y-94466779D02*
X94891723Y-94514398D01*
X94891723Y-94514398D02*
X94701247Y-94562017D01*
X94701247Y-94562017D02*
X94558390Y-94562017D01*
X94558390Y-94562017D02*
X94367914Y-94514398D01*
X94367914Y-94514398D02*
X94272676Y-94466779D01*
X94272676Y-94466779D02*
X94177438Y-94371541D01*
X94177438Y-94371541D02*
X94129819Y-94228684D01*
X94129819Y-94228684D02*
X94129819Y-94133446D01*
X94129819Y-94133446D02*
X94177438Y-93990589D01*
X94177438Y-93990589D02*
X94225057Y-93942970D01*
X95129819Y-92990589D02*
X95129819Y-93562017D01*
X95129819Y-93276303D02*
X94129819Y-93276303D01*
X94129819Y-93276303D02*
X94272676Y-93371541D01*
X94272676Y-93371541D02*
X94367914Y-93466779D01*
X94367914Y-93466779D02*
X94415533Y-93562017D01*
X94129819Y-92657255D02*
X94129819Y-92038208D01*
X94129819Y-92038208D02*
X94510771Y-92371541D01*
X94510771Y-92371541D02*
X94510771Y-92228684D01*
X94510771Y-92228684D02*
X94558390Y-92133446D01*
X94558390Y-92133446D02*
X94606009Y-92085827D01*
X94606009Y-92085827D02*
X94701247Y-92038208D01*
X94701247Y-92038208D02*
X94939342Y-92038208D01*
X94939342Y-92038208D02*
X95034580Y-92085827D01*
X95034580Y-92085827D02*
X95082200Y-92133446D01*
X95082200Y-92133446D02*
X95129819Y-92228684D01*
X95129819Y-92228684D02*
X95129819Y-92514398D01*
X95129819Y-92514398D02*
X95082200Y-92609636D01*
X95082200Y-92609636D02*
X95034580Y-92657255D01*
X123086905Y-83639819D02*
X123086905Y-82639819D01*
X123086905Y-82639819D02*
X123325000Y-82639819D01*
X123325000Y-82639819D02*
X123467857Y-82687438D01*
X123467857Y-82687438D02*
X123563095Y-82782676D01*
X123563095Y-82782676D02*
X123610714Y-82877914D01*
X123610714Y-82877914D02*
X123658333Y-83068390D01*
X123658333Y-83068390D02*
X123658333Y-83211247D01*
X123658333Y-83211247D02*
X123610714Y-83401723D01*
X123610714Y-83401723D02*
X123563095Y-83496961D01*
X123563095Y-83496961D02*
X123467857Y-83592200D01*
X123467857Y-83592200D02*
X123325000Y-83639819D01*
X123325000Y-83639819D02*
X123086905Y-83639819D01*
X124515476Y-82639819D02*
X124325000Y-82639819D01*
X124325000Y-82639819D02*
X124229762Y-82687438D01*
X124229762Y-82687438D02*
X124182143Y-82735057D01*
X124182143Y-82735057D02*
X124086905Y-82877914D01*
X124086905Y-82877914D02*
X124039286Y-83068390D01*
X124039286Y-83068390D02*
X124039286Y-83449342D01*
X124039286Y-83449342D02*
X124086905Y-83544580D01*
X124086905Y-83544580D02*
X124134524Y-83592200D01*
X124134524Y-83592200D02*
X124229762Y-83639819D01*
X124229762Y-83639819D02*
X124420238Y-83639819D01*
X124420238Y-83639819D02*
X124515476Y-83592200D01*
X124515476Y-83592200D02*
X124563095Y-83544580D01*
X124563095Y-83544580D02*
X124610714Y-83449342D01*
X124610714Y-83449342D02*
X124610714Y-83211247D01*
X124610714Y-83211247D02*
X124563095Y-83116009D01*
X124563095Y-83116009D02*
X124515476Y-83068390D01*
X124515476Y-83068390D02*
X124420238Y-83020771D01*
X124420238Y-83020771D02*
X124229762Y-83020771D01*
X124229762Y-83020771D02*
X124134524Y-83068390D01*
X124134524Y-83068390D02*
X124086905Y-83116009D01*
X124086905Y-83116009D02*
X124039286Y-83211247D01*
X128571666Y-111484819D02*
X128571666Y-112199104D01*
X128571666Y-112199104D02*
X128524047Y-112341961D01*
X128524047Y-112341961D02*
X128428809Y-112437200D01*
X128428809Y-112437200D02*
X128285952Y-112484819D01*
X128285952Y-112484819D02*
X128190714Y-112484819D01*
X129571666Y-112484819D02*
X129000238Y-112484819D01*
X129285952Y-112484819D02*
X129285952Y-111484819D01*
X129285952Y-111484819D02*
X129190714Y-111627676D01*
X129190714Y-111627676D02*
X129095476Y-111722914D01*
X129095476Y-111722914D02*
X129000238Y-111770533D01*
X28934580Y-93987857D02*
X28982200Y-94035476D01*
X28982200Y-94035476D02*
X29029819Y-94178333D01*
X29029819Y-94178333D02*
X29029819Y-94273571D01*
X29029819Y-94273571D02*
X28982200Y-94416428D01*
X28982200Y-94416428D02*
X28886961Y-94511666D01*
X28886961Y-94511666D02*
X28791723Y-94559285D01*
X28791723Y-94559285D02*
X28601247Y-94606904D01*
X28601247Y-94606904D02*
X28458390Y-94606904D01*
X28458390Y-94606904D02*
X28267914Y-94559285D01*
X28267914Y-94559285D02*
X28172676Y-94511666D01*
X28172676Y-94511666D02*
X28077438Y-94416428D01*
X28077438Y-94416428D02*
X28029819Y-94273571D01*
X28029819Y-94273571D02*
X28029819Y-94178333D01*
X28029819Y-94178333D02*
X28077438Y-94035476D01*
X28077438Y-94035476D02*
X28125057Y-93987857D01*
X29029819Y-93035476D02*
X29029819Y-93606904D01*
X29029819Y-93321190D02*
X28029819Y-93321190D01*
X28029819Y-93321190D02*
X28172676Y-93416428D01*
X28172676Y-93416428D02*
X28267914Y-93511666D01*
X28267914Y-93511666D02*
X28315533Y-93606904D01*
X28029819Y-92416428D02*
X28029819Y-92321190D01*
X28029819Y-92321190D02*
X28077438Y-92225952D01*
X28077438Y-92225952D02*
X28125057Y-92178333D01*
X28125057Y-92178333D02*
X28220295Y-92130714D01*
X28220295Y-92130714D02*
X28410771Y-92083095D01*
X28410771Y-92083095D02*
X28648866Y-92083095D01*
X28648866Y-92083095D02*
X28839342Y-92130714D01*
X28839342Y-92130714D02*
X28934580Y-92178333D01*
X28934580Y-92178333D02*
X28982200Y-92225952D01*
X28982200Y-92225952D02*
X29029819Y-92321190D01*
X29029819Y-92321190D02*
X29029819Y-92416428D01*
X29029819Y-92416428D02*
X28982200Y-92511666D01*
X28982200Y-92511666D02*
X28934580Y-92559285D01*
X28934580Y-92559285D02*
X28839342Y-92606904D01*
X28839342Y-92606904D02*
X28648866Y-92654523D01*
X28648866Y-92654523D02*
X28410771Y-92654523D01*
X28410771Y-92654523D02*
X28220295Y-92606904D01*
X28220295Y-92606904D02*
X28125057Y-92559285D01*
X28125057Y-92559285D02*
X28077438Y-92511666D01*
X28077438Y-92511666D02*
X28029819Y-92416428D01*
X132119761Y-104594819D02*
X131786428Y-104118628D01*
X131548333Y-104594819D02*
X131548333Y-103594819D01*
X131548333Y-103594819D02*
X131929285Y-103594819D01*
X131929285Y-103594819D02*
X132024523Y-103642438D01*
X132024523Y-103642438D02*
X132072142Y-103690057D01*
X132072142Y-103690057D02*
X132119761Y-103785295D01*
X132119761Y-103785295D02*
X132119761Y-103928152D01*
X132119761Y-103928152D02*
X132072142Y-104023390D01*
X132072142Y-104023390D02*
X132024523Y-104071009D01*
X132024523Y-104071009D02*
X131929285Y-104118628D01*
X131929285Y-104118628D02*
X131548333Y-104118628D01*
X132405476Y-103594819D02*
X132738809Y-104594819D01*
X132738809Y-104594819D02*
X133072142Y-103594819D01*
X133929285Y-104594819D02*
X133357857Y-104594819D01*
X133643571Y-104594819D02*
X133643571Y-103594819D01*
X133643571Y-103594819D02*
X133548333Y-103737676D01*
X133548333Y-103737676D02*
X133453095Y-103832914D01*
X133453095Y-103832914D02*
X133357857Y-103880533D01*
X32218333Y-31104819D02*
X31885000Y-30628628D01*
X31646905Y-31104819D02*
X31646905Y-30104819D01*
X31646905Y-30104819D02*
X32027857Y-30104819D01*
X32027857Y-30104819D02*
X32123095Y-30152438D01*
X32123095Y-30152438D02*
X32170714Y-30200057D01*
X32170714Y-30200057D02*
X32218333Y-30295295D01*
X32218333Y-30295295D02*
X32218333Y-30438152D01*
X32218333Y-30438152D02*
X32170714Y-30533390D01*
X32170714Y-30533390D02*
X32123095Y-30581009D01*
X32123095Y-30581009D02*
X32027857Y-30628628D01*
X32027857Y-30628628D02*
X31646905Y-30628628D01*
X33170714Y-31104819D02*
X32599286Y-31104819D01*
X32885000Y-31104819D02*
X32885000Y-30104819D01*
X32885000Y-30104819D02*
X32789762Y-30247676D01*
X32789762Y-30247676D02*
X32694524Y-30342914D01*
X32694524Y-30342914D02*
X32599286Y-30390533D01*
X125626905Y-83639819D02*
X125626905Y-82639819D01*
X125626905Y-82639819D02*
X125865000Y-82639819D01*
X125865000Y-82639819D02*
X126007857Y-82687438D01*
X126007857Y-82687438D02*
X126103095Y-82782676D01*
X126103095Y-82782676D02*
X126150714Y-82877914D01*
X126150714Y-82877914D02*
X126198333Y-83068390D01*
X126198333Y-83068390D02*
X126198333Y-83211247D01*
X126198333Y-83211247D02*
X126150714Y-83401723D01*
X126150714Y-83401723D02*
X126103095Y-83496961D01*
X126103095Y-83496961D02*
X126007857Y-83592200D01*
X126007857Y-83592200D02*
X125865000Y-83639819D01*
X125865000Y-83639819D02*
X125626905Y-83639819D01*
X127103095Y-82639819D02*
X126626905Y-82639819D01*
X126626905Y-82639819D02*
X126579286Y-83116009D01*
X126579286Y-83116009D02*
X126626905Y-83068390D01*
X126626905Y-83068390D02*
X126722143Y-83020771D01*
X126722143Y-83020771D02*
X126960238Y-83020771D01*
X126960238Y-83020771D02*
X127055476Y-83068390D01*
X127055476Y-83068390D02*
X127103095Y-83116009D01*
X127103095Y-83116009D02*
X127150714Y-83211247D01*
X127150714Y-83211247D02*
X127150714Y-83449342D01*
X127150714Y-83449342D02*
X127103095Y-83544580D01*
X127103095Y-83544580D02*
X127055476Y-83592200D01*
X127055476Y-83592200D02*
X126960238Y-83639819D01*
X126960238Y-83639819D02*
X126722143Y-83639819D01*
X126722143Y-83639819D02*
X126626905Y-83592200D01*
X126626905Y-83592200D02*
X126579286Y-83544580D01*
X30988095Y-53204819D02*
X30988095Y-54014342D01*
X30988095Y-54014342D02*
X31035714Y-54109580D01*
X31035714Y-54109580D02*
X31083333Y-54157200D01*
X31083333Y-54157200D02*
X31178571Y-54204819D01*
X31178571Y-54204819D02*
X31369047Y-54204819D01*
X31369047Y-54204819D02*
X31464285Y-54157200D01*
X31464285Y-54157200D02*
X31511904Y-54109580D01*
X31511904Y-54109580D02*
X31559523Y-54014342D01*
X31559523Y-54014342D02*
X31559523Y-53204819D01*
X32083333Y-54204819D02*
X32273809Y-54204819D01*
X32273809Y-54204819D02*
X32369047Y-54157200D01*
X32369047Y-54157200D02*
X32416666Y-54109580D01*
X32416666Y-54109580D02*
X32511904Y-53966723D01*
X32511904Y-53966723D02*
X32559523Y-53776247D01*
X32559523Y-53776247D02*
X32559523Y-53395295D01*
X32559523Y-53395295D02*
X32511904Y-53300057D01*
X32511904Y-53300057D02*
X32464285Y-53252438D01*
X32464285Y-53252438D02*
X32369047Y-53204819D01*
X32369047Y-53204819D02*
X32178571Y-53204819D01*
X32178571Y-53204819D02*
X32083333Y-53252438D01*
X32083333Y-53252438D02*
X32035714Y-53300057D01*
X32035714Y-53300057D02*
X31988095Y-53395295D01*
X31988095Y-53395295D02*
X31988095Y-53633390D01*
X31988095Y-53633390D02*
X32035714Y-53728628D01*
X32035714Y-53728628D02*
X32083333Y-53776247D01*
X32083333Y-53776247D02*
X32178571Y-53823866D01*
X32178571Y-53823866D02*
X32369047Y-53823866D01*
X32369047Y-53823866D02*
X32464285Y-53776247D01*
X32464285Y-53776247D02*
X32511904Y-53728628D01*
X32511904Y-53728628D02*
X32559523Y-53633390D01*
X101959580Y-87796666D02*
X102007200Y-87844285D01*
X102007200Y-87844285D02*
X102054819Y-87987142D01*
X102054819Y-87987142D02*
X102054819Y-88082380D01*
X102054819Y-88082380D02*
X102007200Y-88225237D01*
X102007200Y-88225237D02*
X101911961Y-88320475D01*
X101911961Y-88320475D02*
X101816723Y-88368094D01*
X101816723Y-88368094D02*
X101626247Y-88415713D01*
X101626247Y-88415713D02*
X101483390Y-88415713D01*
X101483390Y-88415713D02*
X101292914Y-88368094D01*
X101292914Y-88368094D02*
X101197676Y-88320475D01*
X101197676Y-88320475D02*
X101102438Y-88225237D01*
X101102438Y-88225237D02*
X101054819Y-88082380D01*
X101054819Y-88082380D02*
X101054819Y-87987142D01*
X101054819Y-87987142D02*
X101102438Y-87844285D01*
X101102438Y-87844285D02*
X101150057Y-87796666D01*
X101483390Y-87225237D02*
X101435771Y-87320475D01*
X101435771Y-87320475D02*
X101388152Y-87368094D01*
X101388152Y-87368094D02*
X101292914Y-87415713D01*
X101292914Y-87415713D02*
X101245295Y-87415713D01*
X101245295Y-87415713D02*
X101150057Y-87368094D01*
X101150057Y-87368094D02*
X101102438Y-87320475D01*
X101102438Y-87320475D02*
X101054819Y-87225237D01*
X101054819Y-87225237D02*
X101054819Y-87034761D01*
X101054819Y-87034761D02*
X101102438Y-86939523D01*
X101102438Y-86939523D02*
X101150057Y-86891904D01*
X101150057Y-86891904D02*
X101245295Y-86844285D01*
X101245295Y-86844285D02*
X101292914Y-86844285D01*
X101292914Y-86844285D02*
X101388152Y-86891904D01*
X101388152Y-86891904D02*
X101435771Y-86939523D01*
X101435771Y-86939523D02*
X101483390Y-87034761D01*
X101483390Y-87034761D02*
X101483390Y-87225237D01*
X101483390Y-87225237D02*
X101531009Y-87320475D01*
X101531009Y-87320475D02*
X101578628Y-87368094D01*
X101578628Y-87368094D02*
X101673866Y-87415713D01*
X101673866Y-87415713D02*
X101864342Y-87415713D01*
X101864342Y-87415713D02*
X101959580Y-87368094D01*
X101959580Y-87368094D02*
X102007200Y-87320475D01*
X102007200Y-87320475D02*
X102054819Y-87225237D01*
X102054819Y-87225237D02*
X102054819Y-87034761D01*
X102054819Y-87034761D02*
X102007200Y-86939523D01*
X102007200Y-86939523D02*
X101959580Y-86891904D01*
X101959580Y-86891904D02*
X101864342Y-86844285D01*
X101864342Y-86844285D02*
X101673866Y-86844285D01*
X101673866Y-86844285D02*
X101578628Y-86891904D01*
X101578628Y-86891904D02*
X101531009Y-86939523D01*
X101531009Y-86939523D02*
X101483390Y-87034761D01*
D12*
%TO.C,C2*%
X68550000Y-35660000D02*
X68550000Y-35345000D01*
X68550000Y-35660000D02*
X63610000Y-35660000D01*
X68550000Y-33235000D02*
X68550000Y-32920000D01*
X68550000Y-32920000D02*
X63610000Y-32920000D01*
X63610000Y-35660000D02*
X63610000Y-35345000D01*
X63610000Y-33235000D02*
X63610000Y-32920000D01*
%TO.C,C5*%
X85060000Y-45185000D02*
X85060000Y-44870000D01*
X85060000Y-45185000D02*
X80120000Y-45185000D01*
X85060000Y-42760000D02*
X85060000Y-42445000D01*
X85060000Y-42445000D02*
X80120000Y-42445000D01*
X80120000Y-45185000D02*
X80120000Y-44870000D01*
X80120000Y-42760000D02*
X80120000Y-42445000D01*
%TO.C,C4*%
X38665000Y-50900000D02*
X38665000Y-50585000D01*
X38665000Y-50900000D02*
X33725000Y-50900000D01*
X38665000Y-48475000D02*
X38665000Y-48160000D01*
X38665000Y-48160000D02*
X33725000Y-48160000D01*
X33725000Y-50900000D02*
X33725000Y-50585000D01*
X33725000Y-48475000D02*
X33725000Y-48160000D01*
%TO.C,J7*%
X47415000Y-27730000D02*
X46355000Y-27730000D01*
X47415000Y-26670000D02*
X47415000Y-27730000D01*
X47415000Y-25670000D02*
X47415000Y-23610000D01*
X47415000Y-25670000D02*
X45295000Y-25670000D01*
X47415000Y-23610000D02*
X45295000Y-23610000D01*
X45295000Y-25670000D02*
X45295000Y-23610000D01*
%TO.C,U2*%
X76135000Y-45600000D02*
X76135000Y-81400000D01*
X76135000Y-81400000D02*
X86415000Y-81400000D01*
X78625000Y-45660000D02*
X78625000Y-81340000D01*
X78625000Y-81340000D02*
X83925000Y-81340000D01*
X80275000Y-45660000D02*
X78625000Y-45660000D01*
X83925000Y-45660000D02*
X82275000Y-45660000D01*
X83925000Y-81340000D02*
X83925000Y-45660000D01*
X86415000Y-45600000D02*
X76135000Y-45600000D01*
X86415000Y-81400000D02*
X86415000Y-45600000D01*
X80275000Y-45660000D02*
G75*
G03*
X82275000Y-45660000I1000000J0D01*
G01*
%TO.C,J11*%
X107315000Y-104200000D02*
X127695000Y-104200000D01*
X107315000Y-104200000D02*
X107315000Y-101540000D01*
X127695000Y-104200000D02*
X127695000Y-101540000D01*
X104715000Y-102870000D02*
X104715000Y-101540000D01*
X104715000Y-101540000D02*
X106045000Y-101540000D01*
X107315000Y-101540000D02*
X127695000Y-101540000D01*
%TO.C,C1*%
X68550000Y-27405000D02*
X68550000Y-27090000D01*
X68550000Y-27405000D02*
X63610000Y-27405000D01*
X68550000Y-24980000D02*
X68550000Y-24665000D01*
X68550000Y-24665000D02*
X63610000Y-24665000D01*
X63610000Y-27405000D02*
X63610000Y-27090000D01*
X63610000Y-24980000D02*
X63610000Y-24665000D01*
%TO.C,D1*%
X117165000Y-84255000D02*
X115245000Y-84255000D01*
X115245000Y-84255000D02*
X115245000Y-87115000D01*
X117165000Y-87115000D02*
X117165000Y-84255000D01*
%TO.C,J5*%
X133950000Y-25425000D02*
X133950000Y-38185000D01*
X133950000Y-25425000D02*
X136610000Y-25425000D01*
X133950000Y-38185000D02*
X136610000Y-38185000D01*
X135280000Y-22825000D02*
X136610000Y-22825000D01*
X136610000Y-22825000D02*
X136610000Y-24155000D01*
X136610000Y-25425000D02*
X136610000Y-38185000D01*
%TO.C,D2*%
X114625000Y-84255000D02*
X112705000Y-84255000D01*
X112705000Y-84255000D02*
X112705000Y-87115000D01*
X114625000Y-87115000D02*
X114625000Y-84255000D01*
%TO.C,J8*%
X51225000Y-27730000D02*
X50165000Y-27730000D01*
X51225000Y-26670000D02*
X51225000Y-27730000D01*
X51225000Y-25670000D02*
X51225000Y-23610000D01*
X51225000Y-25670000D02*
X49105000Y-25670000D01*
X51225000Y-23610000D02*
X49105000Y-23610000D01*
X49105000Y-25670000D02*
X49105000Y-23610000D01*
%TO.C,X1*%
X27830000Y-63440000D02*
X27830000Y-81340000D01*
X27830000Y-81340000D02*
X33130000Y-81340000D01*
X29480000Y-63440000D02*
X27830000Y-63440000D01*
X33130000Y-63440000D02*
X31480000Y-63440000D01*
X33130000Y-81340000D02*
X33130000Y-63440000D01*
X29480000Y-63440000D02*
G75*
G03*
X31480000Y-63440000I1000000J0D01*
G01*
%TO.C,J6*%
X132505000Y-33445000D02*
X131445000Y-33445000D01*
X132505000Y-32385000D02*
X132505000Y-33445000D01*
X132505000Y-31385000D02*
X132505000Y-29325000D01*
X132505000Y-31385000D02*
X130385000Y-31385000D01*
X132505000Y-29325000D02*
X130385000Y-29325000D01*
X130385000Y-31385000D02*
X130385000Y-29325000D01*
%TO.C,D7*%
X122245000Y-84255000D02*
X120325000Y-84255000D01*
X120325000Y-84255000D02*
X120325000Y-87115000D01*
X122245000Y-87115000D02*
X122245000Y-84255000D01*
%TO.C,J10*%
X29845000Y-24070000D02*
X27245000Y-24070000D01*
X29845000Y-24070000D02*
X29845000Y-26730000D01*
X27245000Y-24070000D02*
X27245000Y-26730000D01*
X32445000Y-25400000D02*
X32445000Y-26730000D01*
X32445000Y-26730000D02*
X31115000Y-26730000D01*
X29845000Y-26730000D02*
X27245000Y-26730000D01*
%TO.C,Y1*%
X71135000Y-33580000D02*
X71135000Y-27180000D01*
X76185000Y-33580000D02*
X76185000Y-27180000D01*
X71135000Y-33580000D02*
G75*
G03*
X76185000Y-33580000I2525000J0D01*
G01*
X76185000Y-27180000D02*
G75*
G03*
X71135000Y-27180000I-2525000J0D01*
G01*
%TO.C,U3*%
X111695000Y-45600000D02*
X111695000Y-81400000D01*
X111695000Y-81400000D02*
X129595000Y-81400000D01*
X114185000Y-45660000D02*
X114185000Y-81340000D01*
X114185000Y-81340000D02*
X127105000Y-81340000D01*
X119645000Y-45660000D02*
X114185000Y-45660000D01*
X127105000Y-45660000D02*
X121645000Y-45660000D01*
X127105000Y-81340000D02*
X127105000Y-45660000D01*
X129595000Y-45600000D02*
X111695000Y-45600000D01*
X129595000Y-81400000D02*
X129595000Y-45600000D01*
X119645000Y-45660000D02*
G75*
G03*
X121645000Y-45660000I1000000J0D01*
G01*
%TO.C,U5*%
X32900000Y-99120000D02*
X53460000Y-99120000D01*
X53460000Y-99120000D02*
X53460000Y-88840000D01*
X32960000Y-96630000D02*
X53400000Y-96630000D01*
X53400000Y-96630000D02*
X53400000Y-91330000D01*
X32960000Y-94980000D02*
X32960000Y-96630000D01*
X32960000Y-91330000D02*
X32960000Y-92980000D01*
X53400000Y-91330000D02*
X32960000Y-91330000D01*
X32900000Y-88840000D02*
X32900000Y-99120000D01*
X53460000Y-88840000D02*
X32900000Y-88840000D01*
X32960000Y-94980000D02*
G75*
G03*
X32960000Y-92980000I0J1000000D01*
G01*
%TO.C,C9*%
X60425000Y-90280000D02*
X60110000Y-90280000D01*
X60425000Y-90280000D02*
X60425000Y-95220000D01*
X58000000Y-90280000D02*
X57685000Y-90280000D01*
X57685000Y-90280000D02*
X57685000Y-95220000D01*
X60425000Y-95220000D02*
X60110000Y-95220000D01*
X58000000Y-95220000D02*
X57685000Y-95220000D01*
%TO.C,U7*%
X93915000Y-45600000D02*
X93915000Y-81400000D01*
X93915000Y-81400000D02*
X104195000Y-81400000D01*
X96405000Y-45660000D02*
X96405000Y-81340000D01*
X96405000Y-81340000D02*
X101705000Y-81340000D01*
X98055000Y-45660000D02*
X96405000Y-45660000D01*
X101705000Y-45660000D02*
X100055000Y-45660000D01*
X101705000Y-81340000D02*
X101705000Y-45660000D01*
X104195000Y-45600000D02*
X93915000Y-45600000D01*
X104195000Y-81400000D02*
X104195000Y-45600000D01*
X98055000Y-45660000D02*
G75*
G03*
X100055000Y-45660000I1000000J0D01*
G01*
%TO.C,J4*%
X137220000Y-101600000D02*
X137220000Y-63440000D01*
X137220000Y-101600000D02*
X134560000Y-101600000D01*
X137220000Y-63440000D02*
X134560000Y-63440000D01*
X135890000Y-104200000D02*
X134560000Y-104200000D01*
X134560000Y-104200000D02*
X134560000Y-102870000D01*
X134560000Y-101600000D02*
X134560000Y-63440000D01*
%TO.C,C7*%
X132815000Y-47020000D02*
X132500000Y-47020000D01*
X132815000Y-47020000D02*
X132815000Y-51960000D01*
X130390000Y-47020000D02*
X130075000Y-47020000D01*
X130075000Y-47020000D02*
X130075000Y-51960000D01*
X132815000Y-51960000D02*
X132500000Y-51960000D01*
X130390000Y-51960000D02*
X130075000Y-51960000D01*
%TO.C,C6*%
X102840000Y-45185000D02*
X102840000Y-44870000D01*
X102840000Y-45185000D02*
X97900000Y-45185000D01*
X102840000Y-42760000D02*
X102840000Y-42445000D01*
X102840000Y-42445000D02*
X97900000Y-42445000D01*
X97900000Y-45185000D02*
X97900000Y-44870000D01*
X97900000Y-42760000D02*
X97900000Y-42445000D01*
%TO.C,D11*%
X82860000Y-103460000D02*
X84780000Y-103460000D01*
X84780000Y-103460000D02*
X84780000Y-100600000D01*
X82860000Y-100600000D02*
X82860000Y-103460000D01*
%TO.C,D8*%
X119705000Y-84255000D02*
X117785000Y-84255000D01*
X117785000Y-84255000D02*
X117785000Y-87115000D01*
X119705000Y-87115000D02*
X119705000Y-84255000D01*
%TO.C,U6*%
X104655000Y-99120000D02*
X130295000Y-99120000D01*
X130295000Y-99120000D02*
X130295000Y-88840000D01*
X104715000Y-96630000D02*
X130235000Y-96630000D01*
X130235000Y-96630000D02*
X130235000Y-91330000D01*
X104715000Y-94980000D02*
X104715000Y-96630000D01*
X104715000Y-91330000D02*
X104715000Y-92980000D01*
X130235000Y-91330000D02*
X104715000Y-91330000D01*
X104655000Y-88840000D02*
X104655000Y-99120000D01*
X130295000Y-88840000D02*
X104655000Y-88840000D01*
X104715000Y-94980000D02*
G75*
G03*
X104715000Y-92980000I0J1000000D01*
G01*
%TO.C,J9*%
X94555000Y-104200000D02*
X94555000Y-102870000D01*
X95885000Y-104200000D02*
X94555000Y-104200000D01*
X97155000Y-104200000D02*
X102295000Y-104200000D01*
X97155000Y-104200000D02*
X97155000Y-101540000D01*
X102295000Y-104200000D02*
X102295000Y-101540000D01*
X97155000Y-101540000D02*
X102295000Y-101540000D01*
%TO.C,SW1*%
X28705000Y-44040000D02*
X28705000Y-41840000D01*
X29175000Y-46010000D02*
X34375000Y-46010000D01*
X29775000Y-39770000D02*
X34175000Y-39770000D01*
X34945000Y-41840000D02*
X34945000Y-44040000D01*
X33239214Y-42890000D02*
G75*
G03*
X30410786Y-42890000I-1414214J0D01*
G01*
X30410786Y-42890000D02*
G75*
G03*
X33239214Y-42890000I1414214J0D01*
G01*
%TO.C,D4*%
X109460000Y-84255000D02*
X107540000Y-84255000D01*
X107540000Y-84255000D02*
X107540000Y-87115000D01*
X109460000Y-87115000D02*
X109460000Y-84255000D01*
%TO.C,C3*%
X76130000Y-23595000D02*
X76130000Y-23280000D01*
X76130000Y-23595000D02*
X71190000Y-23595000D01*
X76130000Y-21170000D02*
X76130000Y-20855000D01*
X76130000Y-20855000D02*
X71190000Y-20855000D01*
X71190000Y-23595000D02*
X71190000Y-23280000D01*
X71190000Y-21170000D02*
X71190000Y-20855000D01*
%TO.C,U8*%
X78620000Y-40065000D02*
X129660000Y-40065000D01*
X129660000Y-40065000D02*
X129660000Y-22165000D01*
X78680000Y-37575000D02*
X129600000Y-37575000D01*
X129600000Y-37575000D02*
X129600000Y-24655000D01*
X78680000Y-32115000D02*
X78680000Y-37575000D01*
X78680000Y-24655000D02*
X78680000Y-30115000D01*
X129600000Y-24655000D02*
X78680000Y-24655000D01*
X78620000Y-22165000D02*
X78620000Y-40065000D01*
X129660000Y-22165000D02*
X78620000Y-22165000D01*
X78680000Y-32115000D02*
G75*
G03*
X78680000Y-30115000I0J1000000D01*
G01*
%TO.C,U1*%
X40580000Y-30360000D02*
X40580000Y-81400000D01*
X40580000Y-81400000D02*
X58480000Y-81400000D01*
X43070000Y-30420000D02*
X43070000Y-81340000D01*
X43070000Y-81340000D02*
X55990000Y-81340000D01*
X48530000Y-30420000D02*
X43070000Y-30420000D01*
X55990000Y-30420000D02*
X50530000Y-30420000D01*
X55990000Y-81340000D02*
X55990000Y-30420000D01*
X58480000Y-30360000D02*
X40580000Y-30360000D01*
X58480000Y-81400000D02*
X58480000Y-30360000D01*
X48530000Y-30420000D02*
G75*
G03*
X50530000Y-30420000I1000000J0D01*
G01*
%TO.C,D3*%
X112085000Y-84255000D02*
X110165000Y-84255000D01*
X110165000Y-84255000D02*
X110165000Y-87115000D01*
X112085000Y-87115000D02*
X112085000Y-84255000D01*
%TO.C,C11*%
X36420000Y-29712349D02*
X36420000Y-28912349D01*
X36020000Y-29312349D02*
X36820000Y-29312349D01*
X34655000Y-25302651D02*
X42815000Y-25302651D01*
X34655000Y-25262651D02*
X42815000Y-25262651D01*
X34655000Y-25222651D02*
X42815000Y-25222651D01*
X34656000Y-25182651D02*
X42814000Y-25182651D01*
X34658000Y-25142651D02*
X42812000Y-25142651D01*
X34659000Y-25102651D02*
X42811000Y-25102651D01*
X34661000Y-25062651D02*
X42809000Y-25062651D01*
X34664000Y-25022651D02*
X42806000Y-25022651D01*
X34667000Y-24982651D02*
X42803000Y-24982651D01*
X34670000Y-24942651D02*
X42800000Y-24942651D01*
X34674000Y-24902651D02*
X42796000Y-24902651D01*
X34678000Y-24862651D02*
X42792000Y-24862651D01*
X34683000Y-24822651D02*
X42787000Y-24822651D01*
X34687000Y-24782651D02*
X42783000Y-24782651D01*
X34693000Y-24742651D02*
X42777000Y-24742651D01*
X34698000Y-24702651D02*
X42772000Y-24702651D01*
X34705000Y-24662651D02*
X42765000Y-24662651D01*
X34711000Y-24622651D02*
X42759000Y-24622651D01*
X34718000Y-24581651D02*
X42752000Y-24581651D01*
X34725000Y-24541651D02*
X42745000Y-24541651D01*
X34733000Y-24501651D02*
X42737000Y-24501651D01*
X34741000Y-24461651D02*
X42729000Y-24461651D01*
X34750000Y-24421651D02*
X42720000Y-24421651D01*
X34759000Y-24381651D02*
X42711000Y-24381651D01*
X34768000Y-24341651D02*
X42702000Y-24341651D01*
X34778000Y-24301651D02*
X42692000Y-24301651D01*
X34788000Y-24261651D02*
X42682000Y-24261651D01*
X34799000Y-24221651D02*
X42671000Y-24221651D01*
X34810000Y-24181651D02*
X42660000Y-24181651D01*
X34821000Y-24141651D02*
X42649000Y-24141651D01*
X34833000Y-24101651D02*
X42637000Y-24101651D01*
X34846000Y-24061651D02*
X42624000Y-24061651D01*
X34858000Y-24021651D02*
X42612000Y-24021651D01*
X34872000Y-23981651D02*
X42598000Y-23981651D01*
X34885000Y-23941651D02*
X42585000Y-23941651D01*
X34900000Y-23901651D02*
X42570000Y-23901651D01*
X34914000Y-23861651D02*
X42556000Y-23861651D01*
X34930000Y-23821651D02*
X37695000Y-23821651D01*
X39775000Y-23821651D02*
X42540000Y-23821651D01*
X34945000Y-23781651D02*
X37695000Y-23781651D01*
X39775000Y-23781651D02*
X42525000Y-23781651D01*
X34961000Y-23741651D02*
X37695000Y-23741651D01*
X39775000Y-23741651D02*
X42509000Y-23741651D01*
X34978000Y-23701651D02*
X37695000Y-23701651D01*
X39775000Y-23701651D02*
X42492000Y-23701651D01*
X34995000Y-23661651D02*
X37695000Y-23661651D01*
X39775000Y-23661651D02*
X42475000Y-23661651D01*
X35013000Y-23621651D02*
X37695000Y-23621651D01*
X39775000Y-23621651D02*
X42457000Y-23621651D01*
X35031000Y-23581651D02*
X37695000Y-23581651D01*
X39775000Y-23581651D02*
X42439000Y-23581651D01*
X35049000Y-23541651D02*
X37695000Y-23541651D01*
X39775000Y-23541651D02*
X42421000Y-23541651D01*
X35069000Y-23501651D02*
X37695000Y-23501651D01*
X39775000Y-23501651D02*
X42401000Y-23501651D01*
X35088000Y-23461651D02*
X37695000Y-23461651D01*
X39775000Y-23461651D02*
X42382000Y-23461651D01*
X35108000Y-23421651D02*
X37695000Y-23421651D01*
X39775000Y-23421651D02*
X42362000Y-23421651D01*
X35129000Y-23381651D02*
X37695000Y-23381651D01*
X39775000Y-23381651D02*
X42341000Y-23381651D01*
X35151000Y-23341651D02*
X37695000Y-23341651D01*
X39775000Y-23341651D02*
X42319000Y-23341651D01*
X35173000Y-23301651D02*
X37695000Y-23301651D01*
X39775000Y-23301651D02*
X42297000Y-23301651D01*
X35195000Y-23261651D02*
X37695000Y-23261651D01*
X39775000Y-23261651D02*
X42275000Y-23261651D01*
X35218000Y-23221651D02*
X37695000Y-23221651D01*
X39775000Y-23221651D02*
X42252000Y-23221651D01*
X35242000Y-23181651D02*
X37695000Y-23181651D01*
X39775000Y-23181651D02*
X42228000Y-23181651D01*
X35266000Y-23141651D02*
X37695000Y-23141651D01*
X39775000Y-23141651D02*
X42204000Y-23141651D01*
X35291000Y-23101651D02*
X37695000Y-23101651D01*
X39775000Y-23101651D02*
X42179000Y-23101651D01*
X35317000Y-23061651D02*
X37695000Y-23061651D01*
X39775000Y-23061651D02*
X42153000Y-23061651D01*
X35343000Y-23021651D02*
X37695000Y-23021651D01*
X39775000Y-23021651D02*
X42127000Y-23021651D01*
X35370000Y-22981651D02*
X37695000Y-22981651D01*
X39775000Y-22981651D02*
X42100000Y-22981651D01*
X35397000Y-22941651D02*
X37695000Y-22941651D01*
X39775000Y-22941651D02*
X42073000Y-22941651D01*
X35426000Y-22901651D02*
X37695000Y-22901651D01*
X39775000Y-22901651D02*
X42044000Y-22901651D01*
X35455000Y-22861651D02*
X37695000Y-22861651D01*
X39775000Y-22861651D02*
X42015000Y-22861651D01*
X35485000Y-22821651D02*
X37695000Y-22821651D01*
X39775000Y-22821651D02*
X41985000Y-22821651D01*
X35515000Y-22781651D02*
X37695000Y-22781651D01*
X39775000Y-22781651D02*
X41955000Y-22781651D01*
X35546000Y-22741651D02*
X37695000Y-22741651D01*
X39775000Y-22741651D02*
X41924000Y-22741651D01*
X35579000Y-22701651D02*
X37695000Y-22701651D01*
X39775000Y-22701651D02*
X41891000Y-22701651D01*
X35611000Y-22661651D02*
X37695000Y-22661651D01*
X39775000Y-22661651D02*
X41859000Y-22661651D01*
X35645000Y-22621651D02*
X37695000Y-22621651D01*
X39775000Y-22621651D02*
X41825000Y-22621651D01*
X35680000Y-22581651D02*
X37695000Y-22581651D01*
X39775000Y-22581651D02*
X41790000Y-22581651D01*
X35716000Y-22541651D02*
X37695000Y-22541651D01*
X39775000Y-22541651D02*
X41754000Y-22541651D01*
X35752000Y-22501651D02*
X37695000Y-22501651D01*
X39775000Y-22501651D02*
X41718000Y-22501651D01*
X35790000Y-22461651D02*
X37695000Y-22461651D01*
X39775000Y-22461651D02*
X41680000Y-22461651D01*
X35828000Y-22421651D02*
X37695000Y-22421651D01*
X39775000Y-22421651D02*
X41642000Y-22421651D01*
X35868000Y-22381651D02*
X37695000Y-22381651D01*
X39775000Y-22381651D02*
X41602000Y-22381651D01*
X35909000Y-22341651D02*
X37695000Y-22341651D01*
X39775000Y-22341651D02*
X41561000Y-22341651D01*
X35951000Y-22301651D02*
X37695000Y-22301651D01*
X39775000Y-22301651D02*
X41519000Y-22301651D01*
X35994000Y-22261651D02*
X37695000Y-22261651D01*
X39775000Y-22261651D02*
X41476000Y-22261651D01*
X36038000Y-22221651D02*
X37695000Y-22221651D01*
X39775000Y-22221651D02*
X41432000Y-22221651D01*
X36084000Y-22181651D02*
X37695000Y-22181651D01*
X39775000Y-22181651D02*
X41386000Y-22181651D01*
X36131000Y-22141651D02*
X37695000Y-22141651D01*
X39775000Y-22141651D02*
X41339000Y-22141651D01*
X36179000Y-22101651D02*
X37695000Y-22101651D01*
X39775000Y-22101651D02*
X41291000Y-22101651D01*
X36230000Y-22061651D02*
X37695000Y-22061651D01*
X39775000Y-22061651D02*
X41240000Y-22061651D01*
X36281000Y-22021651D02*
X37695000Y-22021651D01*
X39775000Y-22021651D02*
X41189000Y-22021651D01*
X36335000Y-21981651D02*
X37695000Y-21981651D01*
X39775000Y-21981651D02*
X41135000Y-21981651D01*
X36390000Y-21941651D02*
X37695000Y-21941651D01*
X39775000Y-21941651D02*
X41080000Y-21941651D01*
X36448000Y-21901651D02*
X37695000Y-21901651D01*
X39775000Y-21901651D02*
X41022000Y-21901651D01*
X36507000Y-21861651D02*
X37695000Y-21861651D01*
X39775000Y-21861651D02*
X40963000Y-21861651D01*
X36569000Y-21821651D02*
X37695000Y-21821651D01*
X39775000Y-21821651D02*
X40901000Y-21821651D01*
X36633000Y-21781651D02*
X37695000Y-21781651D01*
X39775000Y-21781651D02*
X40837000Y-21781651D01*
X36701000Y-21741651D02*
X40769000Y-21741651D01*
X36771000Y-21701651D02*
X40699000Y-21701651D01*
X36845000Y-21661651D02*
X40625000Y-21661651D01*
X36922000Y-21621651D02*
X40548000Y-21621651D01*
X37004000Y-21581651D02*
X40466000Y-21581651D01*
X37090000Y-21541651D02*
X40380000Y-21541651D01*
X37183000Y-21501651D02*
X40287000Y-21501651D01*
X37282000Y-21461651D02*
X40188000Y-21461651D01*
X37389000Y-21421651D02*
X40081000Y-21421651D01*
X37506000Y-21381651D02*
X39964000Y-21381651D01*
X37637000Y-21341651D02*
X39833000Y-21341651D01*
X37787000Y-21301651D02*
X39683000Y-21301651D01*
X37967000Y-21261651D02*
X39503000Y-21261651D01*
X38202000Y-21221651D02*
X39268000Y-21221651D01*
X42855000Y-25302651D02*
G75*
G03*
X34615000Y-25302651I-4120000J0D01*
G01*
X34615000Y-25302651D02*
G75*
G03*
X42855000Y-25302651I4120000J0D01*
G01*
%TO.C,U4*%
X60842500Y-99120000D02*
X91562500Y-99120000D01*
X91562500Y-99120000D02*
X91562500Y-88840000D01*
X60902500Y-96630000D02*
X91502500Y-96630000D01*
X91502500Y-96630000D02*
X91502500Y-91330000D01*
X60902500Y-94980000D02*
X60902500Y-96630000D01*
X60902500Y-91330000D02*
X60902500Y-92980000D01*
X91502500Y-91330000D02*
X60902500Y-91330000D01*
X60842500Y-88840000D02*
X60842500Y-99120000D01*
X91562500Y-88840000D02*
X60842500Y-88840000D01*
X60902500Y-94980000D02*
G75*
G03*
X60902500Y-92980000I0J1000000D01*
G01*
%TO.C,D9*%
X87940000Y-103460000D02*
X89860000Y-103460000D01*
X89860000Y-103460000D02*
X89860000Y-100600000D01*
X87940000Y-100600000D02*
X87940000Y-103460000D01*
%TO.C,C12*%
X67065225Y-42975000D02*
X67565225Y-42975000D01*
X67315225Y-42725000D02*
X67315225Y-43225000D01*
X69870000Y-41870000D02*
X69870000Y-47030000D01*
X69910000Y-41870000D02*
X69910000Y-47030000D01*
X69950000Y-41871000D02*
X69950000Y-47029000D01*
X69990000Y-41872000D02*
X69990000Y-47028000D01*
X70030000Y-41874000D02*
X70030000Y-47026000D01*
X70070000Y-41877000D02*
X70070000Y-47023000D01*
X70110000Y-41881000D02*
X70110000Y-43410000D01*
X70110000Y-45490000D02*
X70110000Y-47019000D01*
X70150000Y-41885000D02*
X70150000Y-43410000D01*
X70150000Y-45490000D02*
X70150000Y-47015000D01*
X70190000Y-41889000D02*
X70190000Y-43410000D01*
X70190000Y-45490000D02*
X70190000Y-47011000D01*
X70230000Y-41894000D02*
X70230000Y-43410000D01*
X70230000Y-45490000D02*
X70230000Y-47006000D01*
X70270000Y-41900000D02*
X70270000Y-43410000D01*
X70270000Y-45490000D02*
X70270000Y-47000000D01*
X70310000Y-41907000D02*
X70310000Y-43410000D01*
X70310000Y-45490000D02*
X70310000Y-46993000D01*
X70350000Y-41914000D02*
X70350000Y-43410000D01*
X70350000Y-45490000D02*
X70350000Y-46986000D01*
X70390000Y-41922000D02*
X70390000Y-43410000D01*
X70390000Y-45490000D02*
X70390000Y-46978000D01*
X70430000Y-41930000D02*
X70430000Y-43410000D01*
X70430000Y-45490000D02*
X70430000Y-46970000D01*
X70470000Y-41939000D02*
X70470000Y-43410000D01*
X70470000Y-45490000D02*
X70470000Y-46961000D01*
X70510000Y-41949000D02*
X70510000Y-43410000D01*
X70510000Y-45490000D02*
X70510000Y-46951000D01*
X70550000Y-41959000D02*
X70550000Y-43410000D01*
X70550000Y-45490000D02*
X70550000Y-46941000D01*
X70591000Y-41970000D02*
X70591000Y-43410000D01*
X70591000Y-45490000D02*
X70591000Y-46930000D01*
X70631000Y-41982000D02*
X70631000Y-43410000D01*
X70631000Y-45490000D02*
X70631000Y-46918000D01*
X70671000Y-41995000D02*
X70671000Y-43410000D01*
X70671000Y-45490000D02*
X70671000Y-46905000D01*
X70711000Y-42008000D02*
X70711000Y-43410000D01*
X70711000Y-45490000D02*
X70711000Y-46892000D01*
X70751000Y-42022000D02*
X70751000Y-43410000D01*
X70751000Y-45490000D02*
X70751000Y-46878000D01*
X70791000Y-42036000D02*
X70791000Y-43410000D01*
X70791000Y-45490000D02*
X70791000Y-46864000D01*
X70831000Y-42052000D02*
X70831000Y-43410000D01*
X70831000Y-45490000D02*
X70831000Y-46848000D01*
X70871000Y-42068000D02*
X70871000Y-43410000D01*
X70871000Y-45490000D02*
X70871000Y-46832000D01*
X70911000Y-42085000D02*
X70911000Y-43410000D01*
X70911000Y-45490000D02*
X70911000Y-46815000D01*
X70951000Y-42102000D02*
X70951000Y-43410000D01*
X70951000Y-45490000D02*
X70951000Y-46798000D01*
X70991000Y-42121000D02*
X70991000Y-43410000D01*
X70991000Y-45490000D02*
X70991000Y-46779000D01*
X71031000Y-42140000D02*
X71031000Y-43410000D01*
X71031000Y-45490000D02*
X71031000Y-46760000D01*
X71071000Y-42160000D02*
X71071000Y-43410000D01*
X71071000Y-45490000D02*
X71071000Y-46740000D01*
X71111000Y-42182000D02*
X71111000Y-43410000D01*
X71111000Y-45490000D02*
X71111000Y-46718000D01*
X71151000Y-42203000D02*
X71151000Y-43410000D01*
X71151000Y-45490000D02*
X71151000Y-46697000D01*
X71191000Y-42226000D02*
X71191000Y-43410000D01*
X71191000Y-45490000D02*
X71191000Y-46674000D01*
X71231000Y-42250000D02*
X71231000Y-43410000D01*
X71231000Y-45490000D02*
X71231000Y-46650000D01*
X71271000Y-42275000D02*
X71271000Y-43410000D01*
X71271000Y-45490000D02*
X71271000Y-46625000D01*
X71311000Y-42301000D02*
X71311000Y-43410000D01*
X71311000Y-45490000D02*
X71311000Y-46599000D01*
X71351000Y-42328000D02*
X71351000Y-43410000D01*
X71351000Y-45490000D02*
X71351000Y-46572000D01*
X71391000Y-42355000D02*
X71391000Y-43410000D01*
X71391000Y-45490000D02*
X71391000Y-46545000D01*
X71431000Y-42385000D02*
X71431000Y-43410000D01*
X71431000Y-45490000D02*
X71431000Y-46515000D01*
X71471000Y-42415000D02*
X71471000Y-43410000D01*
X71471000Y-45490000D02*
X71471000Y-46485000D01*
X71511000Y-42446000D02*
X71511000Y-43410000D01*
X71511000Y-45490000D02*
X71511000Y-46454000D01*
X71551000Y-42479000D02*
X71551000Y-43410000D01*
X71551000Y-45490000D02*
X71551000Y-46421000D01*
X71591000Y-42513000D02*
X71591000Y-43410000D01*
X71591000Y-45490000D02*
X71591000Y-46387000D01*
X71631000Y-42549000D02*
X71631000Y-43410000D01*
X71631000Y-45490000D02*
X71631000Y-46351000D01*
X71671000Y-42586000D02*
X71671000Y-43410000D01*
X71671000Y-45490000D02*
X71671000Y-46314000D01*
X71711000Y-42624000D02*
X71711000Y-43410000D01*
X71711000Y-45490000D02*
X71711000Y-46276000D01*
X71751000Y-42665000D02*
X71751000Y-43410000D01*
X71751000Y-45490000D02*
X71751000Y-46235000D01*
X71791000Y-42707000D02*
X71791000Y-43410000D01*
X71791000Y-45490000D02*
X71791000Y-46193000D01*
X71831000Y-42751000D02*
X71831000Y-43410000D01*
X71831000Y-45490000D02*
X71831000Y-46149000D01*
X71871000Y-42797000D02*
X71871000Y-43410000D01*
X71871000Y-45490000D02*
X71871000Y-46103000D01*
X71911000Y-42845000D02*
X71911000Y-43410000D01*
X71911000Y-45490000D02*
X71911000Y-46055000D01*
X71951000Y-42896000D02*
X71951000Y-43410000D01*
X71951000Y-45490000D02*
X71951000Y-46004000D01*
X71991000Y-42950000D02*
X71991000Y-43410000D01*
X71991000Y-45490000D02*
X71991000Y-45950000D01*
X72031000Y-43007000D02*
X72031000Y-43410000D01*
X72031000Y-45490000D02*
X72031000Y-45893000D01*
X72071000Y-43067000D02*
X72071000Y-43410000D01*
X72071000Y-45490000D02*
X72071000Y-45833000D01*
X72111000Y-43131000D02*
X72111000Y-43410000D01*
X72111000Y-45490000D02*
X72111000Y-45769000D01*
X72151000Y-43199000D02*
X72151000Y-43410000D01*
X72151000Y-45490000D02*
X72151000Y-45701000D01*
X72191000Y-43272000D02*
X72191000Y-45628000D01*
X72231000Y-43352000D02*
X72231000Y-45548000D01*
X72271000Y-43439000D02*
X72271000Y-45461000D01*
X72311000Y-43535000D02*
X72311000Y-45365000D01*
X72351000Y-43645000D02*
X72351000Y-45255000D01*
X72391000Y-43773000D02*
X72391000Y-45127000D01*
X72431000Y-43932000D02*
X72431000Y-44968000D01*
X72471000Y-44166000D02*
X72471000Y-44734000D01*
X72490000Y-44450000D02*
G75*
G03*
X67250000Y-44450000I-2620000J0D01*
G01*
X67250000Y-44450000D02*
G75*
G03*
X72490000Y-44450000I2620000J0D01*
G01*
%TO.C,C13*%
X96950000Y-96104888D02*
X96950000Y-95604888D01*
X96700000Y-95854888D02*
X97200000Y-95854888D01*
X95845000Y-93300113D02*
X101005000Y-93300113D01*
X95845000Y-93260113D02*
X101005000Y-93260113D01*
X95846000Y-93220113D02*
X101004000Y-93220113D01*
X95847000Y-93180113D02*
X101003000Y-93180113D01*
X95849000Y-93140113D02*
X101001000Y-93140113D01*
X95852000Y-93100113D02*
X100998000Y-93100113D01*
X95856000Y-93060113D02*
X97385000Y-93060113D01*
X99465000Y-93060113D02*
X100994000Y-93060113D01*
X95860000Y-93020113D02*
X97385000Y-93020113D01*
X99465000Y-93020113D02*
X100990000Y-93020113D01*
X95864000Y-92980113D02*
X97385000Y-92980113D01*
X99465000Y-92980113D02*
X100986000Y-92980113D01*
X95869000Y-92940113D02*
X97385000Y-92940113D01*
X99465000Y-92940113D02*
X100981000Y-92940113D01*
X95875000Y-92900113D02*
X97385000Y-92900113D01*
X99465000Y-92900113D02*
X100975000Y-92900113D01*
X95882000Y-92860113D02*
X97385000Y-92860113D01*
X99465000Y-92860113D02*
X100968000Y-92860113D01*
X95889000Y-92820113D02*
X97385000Y-92820113D01*
X99465000Y-92820113D02*
X100961000Y-92820113D01*
X95897000Y-92780113D02*
X97385000Y-92780113D01*
X99465000Y-92780113D02*
X100953000Y-92780113D01*
X95905000Y-92740113D02*
X97385000Y-92740113D01*
X99465000Y-92740113D02*
X100945000Y-92740113D01*
X95914000Y-92700113D02*
X97385000Y-92700113D01*
X99465000Y-92700113D02*
X100936000Y-92700113D01*
X95924000Y-92660113D02*
X97385000Y-92660113D01*
X99465000Y-92660113D02*
X100926000Y-92660113D01*
X95934000Y-92620113D02*
X97385000Y-92620113D01*
X99465000Y-92620113D02*
X100916000Y-92620113D01*
X95945000Y-92579113D02*
X97385000Y-92579113D01*
X99465000Y-92579113D02*
X100905000Y-92579113D01*
X95957000Y-92539113D02*
X97385000Y-92539113D01*
X99465000Y-92539113D02*
X100893000Y-92539113D01*
X95970000Y-92499113D02*
X97385000Y-92499113D01*
X99465000Y-92499113D02*
X100880000Y-92499113D01*
X95983000Y-92459113D02*
X97385000Y-92459113D01*
X99465000Y-92459113D02*
X100867000Y-92459113D01*
X95997000Y-92419113D02*
X97385000Y-92419113D01*
X99465000Y-92419113D02*
X100853000Y-92419113D01*
X96011000Y-92379113D02*
X97385000Y-92379113D01*
X99465000Y-92379113D02*
X100839000Y-92379113D01*
X96027000Y-92339113D02*
X97385000Y-92339113D01*
X99465000Y-92339113D02*
X100823000Y-92339113D01*
X96043000Y-92299113D02*
X97385000Y-92299113D01*
X99465000Y-92299113D02*
X100807000Y-92299113D01*
X96060000Y-92259113D02*
X97385000Y-92259113D01*
X99465000Y-92259113D02*
X100790000Y-92259113D01*
X96077000Y-92219113D02*
X97385000Y-92219113D01*
X99465000Y-92219113D02*
X100773000Y-92219113D01*
X96096000Y-92179113D02*
X97385000Y-92179113D01*
X99465000Y-92179113D02*
X100754000Y-92179113D01*
X96115000Y-92139113D02*
X97385000Y-92139113D01*
X99465000Y-92139113D02*
X100735000Y-92139113D01*
X96135000Y-92099113D02*
X97385000Y-92099113D01*
X99465000Y-92099113D02*
X100715000Y-92099113D01*
X96157000Y-92059113D02*
X97385000Y-92059113D01*
X99465000Y-92059113D02*
X100693000Y-92059113D01*
X96178000Y-92019113D02*
X97385000Y-92019113D01*
X99465000Y-92019113D02*
X100672000Y-92019113D01*
X96201000Y-91979113D02*
X97385000Y-91979113D01*
X99465000Y-91979113D02*
X100649000Y-91979113D01*
X96225000Y-91939113D02*
X97385000Y-91939113D01*
X99465000Y-91939113D02*
X100625000Y-91939113D01*
X96250000Y-91899113D02*
X97385000Y-91899113D01*
X99465000Y-91899113D02*
X100600000Y-91899113D01*
X96276000Y-91859113D02*
X97385000Y-91859113D01*
X99465000Y-91859113D02*
X100574000Y-91859113D01*
X96303000Y-91819113D02*
X97385000Y-91819113D01*
X99465000Y-91819113D02*
X100547000Y-91819113D01*
X96330000Y-91779113D02*
X97385000Y-91779113D01*
X99465000Y-91779113D02*
X100520000Y-91779113D01*
X96360000Y-91739113D02*
X97385000Y-91739113D01*
X99465000Y-91739113D02*
X100490000Y-91739113D01*
X96390000Y-91699113D02*
X97385000Y-91699113D01*
X99465000Y-91699113D02*
X100460000Y-91699113D01*
X96421000Y-91659113D02*
X97385000Y-91659113D01*
X99465000Y-91659113D02*
X100429000Y-91659113D01*
X96454000Y-91619113D02*
X97385000Y-91619113D01*
X99465000Y-91619113D02*
X100396000Y-91619113D01*
X96488000Y-91579113D02*
X97385000Y-91579113D01*
X99465000Y-91579113D02*
X100362000Y-91579113D01*
X96524000Y-91539113D02*
X97385000Y-91539113D01*
X99465000Y-91539113D02*
X100326000Y-91539113D01*
X96561000Y-91499113D02*
X97385000Y-91499113D01*
X99465000Y-91499113D02*
X100289000Y-91499113D01*
X96599000Y-91459113D02*
X97385000Y-91459113D01*
X99465000Y-91459113D02*
X100251000Y-91459113D01*
X96640000Y-91419113D02*
X97385000Y-91419113D01*
X99465000Y-91419113D02*
X100210000Y-91419113D01*
X96682000Y-91379113D02*
X97385000Y-91379113D01*
X99465000Y-91379113D02*
X100168000Y-91379113D01*
X96726000Y-91339113D02*
X97385000Y-91339113D01*
X99465000Y-91339113D02*
X100124000Y-91339113D01*
X96772000Y-91299113D02*
X97385000Y-91299113D01*
X99465000Y-91299113D02*
X100078000Y-91299113D01*
X96820000Y-91259113D02*
X97385000Y-91259113D01*
X99465000Y-91259113D02*
X100030000Y-91259113D01*
X96871000Y-91219113D02*
X97385000Y-91219113D01*
X99465000Y-91219113D02*
X99979000Y-91219113D01*
X96925000Y-91179113D02*
X97385000Y-91179113D01*
X99465000Y-91179113D02*
X99925000Y-91179113D01*
X96982000Y-91139113D02*
X97385000Y-91139113D01*
X99465000Y-91139113D02*
X99868000Y-91139113D01*
X97042000Y-91099113D02*
X97385000Y-91099113D01*
X99465000Y-91099113D02*
X99808000Y-91099113D01*
X97106000Y-91059113D02*
X97385000Y-91059113D01*
X99465000Y-91059113D02*
X99744000Y-91059113D01*
X97174000Y-91019113D02*
X97385000Y-91019113D01*
X99465000Y-91019113D02*
X99676000Y-91019113D01*
X97247000Y-90979113D02*
X99603000Y-90979113D01*
X97327000Y-90939113D02*
X99523000Y-90939113D01*
X97414000Y-90899113D02*
X99436000Y-90899113D01*
X97510000Y-90859113D02*
X99340000Y-90859113D01*
X97620000Y-90819113D02*
X99230000Y-90819113D01*
X97748000Y-90779113D02*
X99102000Y-90779113D01*
X97907000Y-90739113D02*
X98943000Y-90739113D01*
X98141000Y-90699113D02*
X98709000Y-90699113D01*
X101045000Y-93300113D02*
G75*
G03*
X95805000Y-93300113I-2620000J0D01*
G01*
X95805000Y-93300113D02*
G75*
G03*
X101045000Y-93300113I2620000J0D01*
G01*
%TO.C,D6*%
X124785000Y-84255000D02*
X122865000Y-84255000D01*
X122865000Y-84255000D02*
X122865000Y-87115000D01*
X124785000Y-87115000D02*
X124785000Y-84255000D01*
%TO.C,D12*%
X80320000Y-103460000D02*
X82240000Y-103460000D01*
X82240000Y-103460000D02*
X82240000Y-100600000D01*
X80320000Y-100600000D02*
X80320000Y-103460000D01*
%TO.C,J1*%
X131715000Y-117770000D02*
X131715000Y-112770000D01*
X131715000Y-112770000D02*
X126195000Y-112770000D01*
X126196000Y-113770000D02*
X124920000Y-113770000D01*
X126195000Y-112770000D02*
X126195000Y-113770000D01*
X125520000Y-113330000D02*
X125520000Y-112730000D01*
X125520000Y-112730000D02*
X124920000Y-113030000D01*
X124920000Y-113030000D02*
X125520000Y-113330000D01*
X122730000Y-113770000D02*
X122154000Y-113770000D01*
X120415000Y-113770000D02*
X119614000Y-113770000D01*
X117875000Y-113770000D02*
X117074000Y-113770000D01*
X115335000Y-113770000D02*
X114534000Y-113770000D01*
X112795000Y-113770000D02*
X111994000Y-113770000D01*
X110255000Y-113770000D02*
X109454000Y-113770000D01*
X107715000Y-113770000D02*
X106914000Y-113770000D01*
X105175000Y-113770000D02*
X104374000Y-113770000D01*
X102635000Y-113770000D02*
X101834000Y-113770000D01*
X100095000Y-113770000D02*
X99294000Y-113770000D01*
X97555000Y-113770000D02*
X96754000Y-113770000D01*
X95015000Y-113770000D02*
X94214000Y-113770000D01*
X92475000Y-113770000D02*
X91674000Y-113770000D01*
X89935000Y-113770000D02*
X89134000Y-113770000D01*
X87395000Y-113770000D02*
X86594000Y-113770000D01*
X84855000Y-113770000D02*
X84054000Y-113770000D01*
X82315000Y-113770000D02*
X81514000Y-113770000D01*
X79775000Y-113770000D02*
X78974000Y-113770000D01*
X77235000Y-113770000D02*
X76434000Y-113770000D01*
X74695000Y-113770000D02*
X73894000Y-113770000D01*
X72155000Y-113770000D02*
X71354000Y-113770000D01*
X69615000Y-113770000D02*
X68814000Y-113770000D01*
X67075000Y-113770000D02*
X66274000Y-113770000D01*
X64535000Y-113770000D02*
X63734000Y-113770000D01*
X61995000Y-113770000D02*
X61194000Y-113770000D01*
X59455000Y-113770000D02*
X58654000Y-113770000D01*
X56915000Y-113770000D02*
X56114000Y-113770000D01*
X54375000Y-113770000D02*
X53574000Y-113770000D01*
X51835000Y-113770000D02*
X51034000Y-113770000D01*
X49295000Y-113770000D02*
X48494000Y-113770000D01*
X46755000Y-113770000D02*
X45954000Y-113770000D01*
X44215000Y-113770000D02*
X42715000Y-113770000D01*
X42715000Y-112770000D02*
X42715000Y-113770000D01*
X37195000Y-117770000D02*
X37195000Y-112770000D01*
X37195000Y-112770000D02*
X42715000Y-112770000D01*
%TO.C,C10*%
X32485000Y-90240000D02*
X32170000Y-90240000D01*
X32485000Y-90240000D02*
X32485000Y-95180000D01*
X30060000Y-90240000D02*
X29745000Y-90240000D01*
X29745000Y-90240000D02*
X29745000Y-95180000D01*
X32485000Y-95180000D02*
X32170000Y-95180000D01*
X30060000Y-95180000D02*
X29745000Y-95180000D01*
%TO.C,RV1*%
X131575000Y-105165000D02*
X131575000Y-112005000D01*
X131575000Y-105165000D02*
X134605000Y-105165000D01*
X131575000Y-112005000D02*
X134605000Y-112005000D01*
X135905000Y-105165000D02*
X138815000Y-105165000D01*
X135905000Y-112005000D02*
X138815000Y-112005000D01*
X138815000Y-105165000D02*
X138815000Y-112005000D01*
%TO.C,R1*%
X29115000Y-31650000D02*
X35655000Y-31650000D01*
X29115000Y-31980000D02*
X29115000Y-31650000D01*
X29115000Y-34060000D02*
X29115000Y-34390000D01*
X29115000Y-34390000D02*
X35655000Y-34390000D01*
X35655000Y-31650000D02*
X35655000Y-31980000D01*
X35655000Y-34390000D02*
X35655000Y-34060000D01*
%TO.C,D5*%
X127325000Y-84255000D02*
X125405000Y-84255000D01*
X125405000Y-84255000D02*
X125405000Y-87115000D01*
X127325000Y-87115000D02*
X127325000Y-84255000D01*
%TO.C,U9*%
X31750000Y-54590000D02*
X29800000Y-54590000D01*
X31750000Y-54590000D02*
X33700000Y-54590000D01*
X31750000Y-59710000D02*
X29800000Y-59710000D01*
X31750000Y-59710000D02*
X33700000Y-59710000D01*
X29050000Y-54685000D02*
X28810000Y-54355000D01*
X29290000Y-54355000D01*
X29050000Y-54685000D01*
G36*
X29050000Y-54685000D02*
G01*
X28810000Y-54355000D01*
X29290000Y-54355000D01*
X29050000Y-54685000D01*
G37*
%TO.C,D10*%
X85400000Y-103460000D02*
X87320000Y-103460000D01*
X87320000Y-103460000D02*
X87320000Y-100600000D01*
X85400000Y-100600000D02*
X85400000Y-103460000D01*
%TO.C,C8*%
X104240000Y-90200000D02*
X103925000Y-90200000D01*
X104240000Y-90200000D02*
X104240000Y-95140000D01*
X101815000Y-90200000D02*
X101500000Y-90200000D01*
X101500000Y-90200000D02*
X101500000Y-95140000D01*
X104240000Y-95140000D02*
X103925000Y-95140000D01*
X101815000Y-95140000D02*
X101500000Y-95140000D01*
%TD*%
M02*
