%TF.GenerationSoftware,KiCad,Pcbnew,7.0.11-7.0.11~ubuntu22.04.1*%
%TF.CreationDate,2024-08-26T13:36:22+02:00*%
%TF.ProjectId,pcb01,70636230-312e-46b6-9963-61645f706362,rev?*%
%TF.SameCoordinates,Original*%
%TF.FileFunction,Legend,Bot*%
%TF.FilePolarity,Positive*%
%FSLAX46Y46*%
G04 Gerber Fmt 4.6, Leading zero omitted, Abs format (unit mm)*
G04 Created by KiCad (PCBNEW 7.0.11-7.0.11~ubuntu22.04.1) date 2024-08-26 13:36:22*
%MOMM*%
%LPD*%
G01*
G04 APERTURE LIST*
%ADD10C,0.150000*%
%ADD11C,0.120000*%
G04 APERTURE END LIST*
D10*
X129603476Y-88787819D02*
X129936809Y-88311628D01*
X130174904Y-88787819D02*
X130174904Y-87787819D01*
X130174904Y-87787819D02*
X129793952Y-87787819D01*
X129793952Y-87787819D02*
X129698714Y-87835438D01*
X129698714Y-87835438D02*
X129651095Y-87883057D01*
X129651095Y-87883057D02*
X129603476Y-87978295D01*
X129603476Y-87978295D02*
X129603476Y-88121152D01*
X129603476Y-88121152D02*
X129651095Y-88216390D01*
X129651095Y-88216390D02*
X129698714Y-88264009D01*
X129698714Y-88264009D02*
X129793952Y-88311628D01*
X129793952Y-88311628D02*
X130174904Y-88311628D01*
X129174904Y-88787819D02*
X129174904Y-87787819D01*
X129174904Y-87787819D02*
X128603476Y-88787819D01*
X128603476Y-88787819D02*
X128603476Y-87787819D01*
X128174904Y-87883057D02*
X128127285Y-87835438D01*
X128127285Y-87835438D02*
X128032047Y-87787819D01*
X128032047Y-87787819D02*
X127793952Y-87787819D01*
X127793952Y-87787819D02*
X127698714Y-87835438D01*
X127698714Y-87835438D02*
X127651095Y-87883057D01*
X127651095Y-87883057D02*
X127603476Y-87978295D01*
X127603476Y-87978295D02*
X127603476Y-88073533D01*
X127603476Y-88073533D02*
X127651095Y-88216390D01*
X127651095Y-88216390D02*
X128222523Y-88787819D01*
X128222523Y-88787819D02*
X127603476Y-88787819D01*
X105653976Y-84329819D02*
X105987309Y-83853628D01*
X106225404Y-84329819D02*
X106225404Y-83329819D01*
X106225404Y-83329819D02*
X105844452Y-83329819D01*
X105844452Y-83329819D02*
X105749214Y-83377438D01*
X105749214Y-83377438D02*
X105701595Y-83425057D01*
X105701595Y-83425057D02*
X105653976Y-83520295D01*
X105653976Y-83520295D02*
X105653976Y-83663152D01*
X105653976Y-83663152D02*
X105701595Y-83758390D01*
X105701595Y-83758390D02*
X105749214Y-83806009D01*
X105749214Y-83806009D02*
X105844452Y-83853628D01*
X105844452Y-83853628D02*
X106225404Y-83853628D01*
X105225404Y-84329819D02*
X105225404Y-83329819D01*
X105225404Y-83329819D02*
X104653976Y-84329819D01*
X104653976Y-84329819D02*
X104653976Y-83329819D01*
X103653976Y-84329819D02*
X104225404Y-84329819D01*
X103939690Y-84329819D02*
X103939690Y-83329819D01*
X103939690Y-83329819D02*
X104034928Y-83472676D01*
X104034928Y-83472676D02*
X104130166Y-83567914D01*
X104130166Y-83567914D02*
X104225404Y-83615533D01*
X83329819Y-104284523D02*
X82853628Y-103951190D01*
X83329819Y-103713095D02*
X82329819Y-103713095D01*
X82329819Y-103713095D02*
X82329819Y-104094047D01*
X82329819Y-104094047D02*
X82377438Y-104189285D01*
X82377438Y-104189285D02*
X82425057Y-104236904D01*
X82425057Y-104236904D02*
X82520295Y-104284523D01*
X82520295Y-104284523D02*
X82663152Y-104284523D01*
X82663152Y-104284523D02*
X82758390Y-104236904D01*
X82758390Y-104236904D02*
X82806009Y-104189285D01*
X82806009Y-104189285D02*
X82853628Y-104094047D01*
X82853628Y-104094047D02*
X82853628Y-103713095D01*
X83329819Y-104713095D02*
X82329819Y-104713095D01*
X82329819Y-104713095D02*
X83329819Y-105284523D01*
X83329819Y-105284523D02*
X82329819Y-105284523D01*
X82329819Y-105665476D02*
X82329819Y-106284523D01*
X82329819Y-106284523D02*
X82710771Y-105951190D01*
X82710771Y-105951190D02*
X82710771Y-106094047D01*
X82710771Y-106094047D02*
X82758390Y-106189285D01*
X82758390Y-106189285D02*
X82806009Y-106236904D01*
X82806009Y-106236904D02*
X82901247Y-106284523D01*
X82901247Y-106284523D02*
X83139342Y-106284523D01*
X83139342Y-106284523D02*
X83234580Y-106236904D01*
X83234580Y-106236904D02*
X83282200Y-106189285D01*
X83282200Y-106189285D02*
X83329819Y-106094047D01*
X83329819Y-106094047D02*
X83329819Y-105808333D01*
X83329819Y-105808333D02*
X83282200Y-105713095D01*
X83282200Y-105713095D02*
X83234580Y-105665476D01*
D11*
%TO.C,RN2*%
X129163000Y-87373000D02*
X128663000Y-87373000D01*
X129163000Y-85093000D02*
X128663000Y-85093000D01*
%TO.C,RN1*%
X104713500Y-87115000D02*
X105213500Y-87115000D01*
X104713500Y-84835000D02*
X105213500Y-84835000D01*
%TO.C,RN3*%
X86115000Y-105225000D02*
X86115000Y-104725000D01*
X83835000Y-105225000D02*
X83835000Y-104725000D01*
%TD*%
M02*
