M48
; DRILL file {KiCad 7.0.11-7.0.11~ubuntu22.04.1} date Mon 26 Aug 2024 01:36:19 PM CEST
; FORMAT={-:-/ absolute / inch / decimal}
; #@! TF.CreationDate,2024-08-26T13:36:19+02:00
; #@! TF.GenerationSoftware,Kicad,Pcbnew,7.0.11-7.0.11~ubuntu22.04.1
; #@! TF.FileFunction,Plated,1,2,PTH
FMAT,2
INCH
; #@! TA.AperFunction,Plated,PTH,ViaDrill
T1C0.0118
; #@! TA.AperFunction,Plated,PTH,ComponentDrill
T2C0.0315
; #@! TA.AperFunction,Plated,PTH,ComponentDrill
T3C0.0394
%
G90
G05
T1
X1.075Y-2.325
X1.3Y-2.275
X1.3Y-2.425
X1.4Y-2.225
X1.425Y-2.425
X1.45Y-3.775
X1.475Y-1.4
X1.6Y-3.925
X1.6Y-4.125
X1.6Y-4.375
X1.61Y-3.23
X1.61Y-3.28
X1.635Y-3.255
X1.6501Y-3.65
X1.66Y-3.23
X1.66Y-3.28
X1.675Y-4.525
X1.7Y-3.75
X1.7Y-4.35
X1.725Y-4.2
X1.75Y-3.775
X1.775Y-2.05
X1.775Y-2.7
X1.8Y-1.4
X1.8Y-2.15
X1.8Y-2.6
X1.8Y-3.725
X1.8Y-3.925
X1.8Y-4.15
X1.825Y-2.25
X1.825Y-2.5
X1.85Y-2.0
X1.85Y-2.75
X1.875Y-2.1
X1.875Y-2.65
X1.9Y-2.2
X1.9Y-2.55
X1.9Y-3.7
X1.9Y-4.35
X1.925Y-2.3
X1.925Y-2.45
X1.925Y-4.175
X1.95Y-3.775
X1.9501Y-2.35
X2.0Y-4.525
X2.025Y-3.775
X2.05Y-4.1
X2.1Y-3.8
X2.125Y-1.6
X2.125Y-3.6
X2.15Y-4.1
X2.1501Y-1.85
X2.2Y-3.475
X2.225Y-3.23
X2.225Y-3.28
X2.225Y-3.45
X2.25Y-3.255
X2.275Y-3.23
X2.275Y-3.28
X2.33Y-3.15
X2.33Y-3.205
X2.35Y-4.095
X2.375Y-1.8
X2.375Y-2.85
X2.375Y-3.275
X2.375Y-3.975
X2.4Y-1.9
X2.4Y-2.95
X2.4Y-3.3
X2.425Y-1.85
X2.425Y-3.05
X2.425Y-3.325
X2.45Y-2.8
X2.45Y-3.425
X2.475Y-2.75
X2.475Y-3.25
X2.5Y-1.95
X2.5Y-2.15
X2.5Y-3.05
X2.5Y-3.475
X2.515Y-3.15
X2.515Y-3.2
X2.525Y-2.05
X2.525Y-2.95
X2.54Y-3.175
X2.55Y-2.85
X2.55Y-4.05
X2.565Y-3.15
X2.565Y-3.2
X2.575Y-2.05
X2.575Y-2.8
X2.6Y-2.15
X2.6Y-2.9
X2.6Y-3.4
X2.6Y-3.725
X2.6Y-3.975
X2.65Y-2.8
X2.65Y-3.0
X2.65Y-3.375
X2.65Y-3.75
X2.65Y-4.05
X2.675Y-2.9
X2.675Y-3.1
X2.675Y-3.35
X2.7001Y-3.425
X2.715Y-3.15
X2.715Y-3.2
X2.725Y-4.4
X2.74Y-3.175
X2.75Y-3.775
X2.765Y-3.15
X2.765Y-3.2
X2.8001Y-3.4
X2.825Y-4.325
X2.85Y-3.775
X2.9001Y-3.425
X2.925Y-4.375
X2.95Y-3.7795
X3.0001Y-3.425
X3.025Y-4.35
X3.05Y-3.7795
X3.1001Y-3.425
X3.125Y-2.325
X3.125Y-3.15
X3.15Y-2.45
X3.15Y-3.05
X3.175Y-2.35
X3.175Y-2.95
X3.2Y-2.55
X3.2Y-4.0882
X3.2001Y-3.425
X3.225Y-2.85
X3.225Y-2.95
X3.25Y-2.55
X3.25Y-3.775
X3.275Y-2.65
X3.275Y-2.85
X3.3Y-4.0882
X3.3001Y-3.425
X3.35Y-1.325
X3.35Y-3.775
X3.375Y-1.65
X3.375Y-4.325
X3.4Y-4.0882
X3.4001Y-3.425
X3.45Y-1.125
X3.45Y-2.55
X3.4501Y-3.7
X3.475Y-3.775
X3.475Y-4.0882
X3.4751Y-1.9
X3.4751Y-3.15
X3.5Y-1.65
X3.5Y-2.4
X3.5Y-3.125
X3.575Y-4.35
X3.6Y-1.65
X3.6Y-2.65
X3.625Y-3.8
X3.625Y-4.375
X3.65Y-2.75
X3.7Y-1.65
X3.725Y-3.975
X3.75Y-3.45
X3.8Y-3.775
X3.8251Y-2.625
X3.8436Y-3.175
X3.8751Y-2.65
X3.8751Y-3.175
X4.0Y-3.375
X4.025Y-4.175
X4.025Y-4.4
X4.2251Y-2.6
X4.2251Y-3.15
X4.275Y-2.85
X4.275Y-3.1955
X4.275Y-3.3884
X4.3205Y-2.95
X4.3205Y-3.175
X4.375Y-3.3884
X4.475Y-3.3884
X4.55Y-3.1
X4.55Y-3.2
X4.575Y-3.3884
X4.6Y-4.3455
X4.65Y-1.675
X4.65Y-2.75
X4.675Y-1.2
X4.675Y-1.275
X4.675Y-3.3884
X4.7Y-1.675
X4.7Y-2.9
X4.725Y-3.05
X4.725Y-3.2
X4.75Y-1.675
X4.75Y-2.85
X4.775Y-3.3884
X4.8Y-1.675
X4.8Y-3.0
X4.85Y-1.675
X4.85Y-2.95
X4.85Y-3.2
X4.875Y-3.385
X4.875Y-4.375
X4.9Y-1.675
X4.9Y-3.1
X4.925Y-2.85
X4.925Y-3.2
X4.95Y-1.675
X4.95Y-3.05
X4.975Y-2.75
X4.975Y-3.2
X5.0Y-1.675
X5.0Y-3.15
X5.015Y-3.355
X5.025Y-4.425
X5.05Y-4.3
X5.15Y-3.475
X5.175Y-3.825
X5.25Y-2.8
X5.25Y-3.525
T2
X1.05Y-2.55
X1.05Y-2.65
X1.05Y-2.75
X1.05Y-2.85
X1.05Y-2.95
X1.05Y-3.05
X1.05Y-3.15
X1.125Y-1.3
X1.225Y-3.5516
X1.225Y-3.7484
X1.3266Y-1.95
X1.35Y-2.55
X1.35Y-2.65
X1.35Y-2.75
X1.35Y-2.85
X1.35Y-2.95
X1.35Y-3.05
X1.35Y-3.15
X1.35Y-3.55
X1.35Y-3.85
X1.425Y-1.3
X1.45Y-3.55
X1.45Y-3.85
X1.5234Y-1.95
X1.525Y-0.8977
X1.525Y-1.0946
X1.55Y-3.55
X1.55Y-3.85
X1.65Y-1.25
X1.65Y-1.35
X1.65Y-1.45
X1.65Y-1.55
X1.65Y-1.65
X1.65Y-1.75
X1.65Y-1.85
X1.65Y-1.95
X1.65Y-2.05
X1.65Y-2.15
X1.65Y-2.25
X1.65Y-2.35
X1.65Y-2.45
X1.65Y-2.55
X1.65Y-2.65
X1.65Y-2.75
X1.65Y-2.85
X1.65Y-2.95
X1.65Y-3.05
X1.65Y-3.15
X1.65Y-3.55
X1.65Y-3.85
X1.75Y-3.55
X1.75Y-3.85
X1.825Y-0.9713
X1.825Y-1.05
X1.85Y-3.55
X1.85Y-3.85
X1.95Y-3.55
X1.95Y-3.85
X1.975Y-0.9713
X1.975Y-1.05
X2.05Y-3.55
X2.05Y-3.85
X2.25Y-1.25
X2.25Y-1.35
X2.25Y-1.45
X2.25Y-1.55
X2.25Y-1.65
X2.25Y-1.75
X2.25Y-1.85
X2.25Y-1.95
X2.25Y-2.05
X2.25Y-2.15
X2.25Y-2.25
X2.25Y-2.35
X2.25Y-2.45
X2.25Y-2.55
X2.25Y-2.65
X2.25Y-2.75
X2.25Y-2.85
X2.25Y-2.95
X2.25Y-3.05
X2.25Y-3.15
X2.325Y-3.5531
X2.325Y-3.75
X2.4501Y-3.55
X2.4501Y-3.85
X2.5031Y-1.025
X2.5031Y-1.35
X2.5501Y-3.55
X2.5501Y-3.85
X2.6501Y-3.55
X2.6501Y-3.85
X2.7Y-1.025
X2.7Y-1.35
X2.7016Y-1.75
X2.7501Y-3.55
X2.7501Y-3.85
X2.8Y-1.75
X2.8016Y-0.875
X2.8501Y-3.55
X2.8501Y-3.85
X2.9Y-1.1
X2.9Y-1.2921
X2.9501Y-3.55
X2.9501Y-3.85
X2.9984Y-0.875
X3.0498Y-1.85
X3.0498Y-1.95
X3.0498Y-2.05
X3.0498Y-2.15
X3.0498Y-2.25
X3.0498Y-2.35
X3.0498Y-2.45
X3.0498Y-2.55
X3.0498Y-2.65
X3.0498Y-2.75
X3.0498Y-2.85
X3.0498Y-2.95
X3.0498Y-3.05
X3.0498Y-3.15
X3.0501Y-3.55
X3.0501Y-3.85
X3.15Y-0.925
X3.15Y-1.525
X3.1501Y-3.55
X3.1501Y-3.85
X3.1531Y-1.725
X3.25Y-0.925
X3.25Y-1.525
X3.2501Y-3.55
X3.2501Y-3.85
X3.3498Y-1.85
X3.3498Y-1.95
X3.3498Y-2.05
X3.3498Y-2.15
X3.3498Y-2.25
X3.3498Y-2.35
X3.3498Y-2.45
X3.3498Y-2.55
X3.3498Y-2.65
X3.3498Y-2.75
X3.3498Y-2.85
X3.3498Y-2.95
X3.3498Y-3.05
X3.3498Y-3.15
X3.35Y-0.925
X3.35Y-1.525
X3.35Y-1.725
X3.3501Y-3.55
X3.3501Y-3.85
X3.45Y-0.925
X3.45Y-1.525
X3.4501Y-3.55
X3.4501Y-3.85
X3.55Y-0.925
X3.55Y-1.525
X3.5501Y-3.55
X3.5501Y-3.85
X3.65Y-0.925
X3.65Y-1.525
X3.7498Y-1.85
X3.7498Y-1.95
X3.7498Y-2.05
X3.7498Y-2.15
X3.7498Y-2.25
X3.7498Y-2.35
X3.7498Y-2.45
X3.7498Y-2.55
X3.7498Y-2.65
X3.7498Y-2.75
X3.7498Y-2.85
X3.7498Y-2.95
X3.7498Y-3.05
X3.7498Y-3.15
X3.75Y-0.925
X3.75Y-1.525
X3.85Y-0.925
X3.85Y-1.525
X3.8531Y-1.725
X3.875Y-3.624
X3.875Y-3.7224
X3.95Y-0.925
X3.95Y-1.525
X4.0498Y-1.85
X4.0498Y-1.95
X4.0498Y-2.05
X4.0498Y-2.15
X4.0498Y-2.25
X4.0498Y-2.35
X4.0498Y-2.45
X4.0498Y-2.55
X4.0498Y-2.65
X4.0498Y-2.75
X4.0498Y-2.85
X4.0498Y-2.95
X4.0498Y-3.05
X4.0498Y-3.15
X4.05Y-0.925
X4.05Y-1.525
X4.05Y-1.725
X4.05Y-3.55
X4.05Y-3.7469
X4.15Y-0.925
X4.15Y-1.525
X4.175Y-3.55
X4.175Y-3.85
X4.25Y-0.925
X4.25Y-1.525
X4.275Y-3.55
X4.275Y-3.85
X4.35Y-0.925
X4.35Y-1.525
X4.375Y-3.55
X4.375Y-3.85
X4.4498Y-1.85
X4.4498Y-1.95
X4.4498Y-2.05
X4.4498Y-2.15
X4.4498Y-2.25
X4.4498Y-2.35
X4.4498Y-2.45
X4.4498Y-2.55
X4.4498Y-2.65
X4.4498Y-2.75
X4.4498Y-2.85
X4.4498Y-2.95
X4.4498Y-3.05
X4.4498Y-3.15
X4.45Y-0.925
X4.45Y-1.525
X4.475Y-3.55
X4.475Y-3.85
X4.55Y-0.925
X4.55Y-1.525
X4.575Y-3.55
X4.575Y-3.85
X4.65Y-0.925
X4.65Y-1.525
X4.675Y-3.55
X4.675Y-3.85
X4.75Y-0.925
X4.75Y-1.525
X4.775Y-3.55
X4.775Y-3.85
X4.85Y-0.925
X4.85Y-1.525
X4.875Y-3.55
X4.875Y-3.85
X4.95Y-0.925
X4.95Y-1.525
X4.975Y-3.55
X4.975Y-3.85
X5.0498Y-1.85
X5.0498Y-1.95
X5.0498Y-2.05
X5.0498Y-2.15
X5.0498Y-2.25
X5.0498Y-2.35
X5.0498Y-2.45
X5.0498Y-2.55
X5.0498Y-2.65
X5.0498Y-2.75
X5.0498Y-2.85
X5.0498Y-2.95
X5.0498Y-3.05
X5.0498Y-3.15
X5.05Y-0.925
X5.05Y-1.525
X5.075Y-3.55
X5.075Y-3.85
X5.175Y-1.1963
X5.175Y-1.275
X5.175Y-1.85
X5.175Y-2.0469
X5.325Y-4.175
X5.325Y-4.375
X5.425Y-4.275
T3
X1.125Y-1.0
X1.125Y-1.6
X1.125Y-1.7772
X1.225Y-1.0
X1.3809Y-1.6
X1.3809Y-1.7772
X1.775Y-4.25
X1.775Y-4.45
X1.875Y-4.25
X1.875Y-4.45
X1.975Y-4.25
X1.975Y-4.45
X2.075Y-4.25
X2.075Y-4.45
X2.175Y-4.25
X2.175Y-4.45
X2.275Y-4.25
X2.275Y-4.45
X2.375Y-4.25
X2.375Y-4.45
X2.475Y-4.25
X2.475Y-4.45
X2.575Y-4.25
X2.575Y-4.45
X2.675Y-4.25
X2.675Y-4.45
X2.775Y-4.25
X2.775Y-4.45
X2.875Y-4.25
X2.875Y-4.45
X2.975Y-4.25
X2.975Y-4.45
X3.075Y-4.25
X3.075Y-4.45
X3.175Y-4.25
X3.175Y-4.45
X3.275Y-4.25
X3.275Y-4.45
X3.375Y-4.25
X3.375Y-4.45
X3.475Y-4.25
X3.475Y-4.45
X3.575Y-4.25
X3.575Y-4.45
X3.675Y-4.25
X3.675Y-4.45
X3.775Y-4.05
X3.775Y-4.25
X3.775Y-4.45
X3.875Y-4.05
X3.875Y-4.25
X3.875Y-4.45
X3.975Y-4.05
X3.975Y-4.25
X3.975Y-4.45
X4.075Y-4.25
X4.075Y-4.45
X4.175Y-4.05
X4.175Y-4.25
X4.175Y-4.45
X4.275Y-4.05
X4.275Y-4.25
X4.275Y-4.45
X4.375Y-4.05
X4.375Y-4.25
X4.375Y-4.45
X4.475Y-4.05
X4.475Y-4.25
X4.475Y-4.45
X4.575Y-4.05
X4.575Y-4.25
X4.575Y-4.45
X4.675Y-4.05
X4.675Y-4.25
X4.675Y-4.45
X4.775Y-4.05
X4.775Y-4.25
X4.775Y-4.45
X4.875Y-4.05
X4.875Y-4.25
X4.875Y-4.45
X4.975Y-4.05
X5.326Y-0.951
X5.326Y-1.051
X5.326Y-1.151
X5.326Y-1.251
X5.326Y-1.351
X5.326Y-1.451
X5.35Y-2.55
X5.35Y-2.65
X5.35Y-2.75
X5.35Y-2.85
X5.35Y-2.95
X5.35Y-3.05
X5.35Y-3.15
X5.35Y-3.25
X5.35Y-3.35
X5.35Y-3.45
X5.35Y-3.55
X5.35Y-3.65
X5.35Y-3.75
X5.35Y-3.85
X5.35Y-3.95
X5.35Y-4.05
M30
