%TF.GenerationSoftware,KiCad,Pcbnew,7.0.11+dfsg-1build4*%
%TF.CreationDate,2025-05-04T19:09:06+02:00*%
%TF.ProjectId,cpu_board_03,6370755f-626f-4617-9264-5f30332e6b69,rev?*%
%TF.SameCoordinates,Original*%
%TF.FileFunction,Soldermask,Bot*%
%TF.FilePolarity,Negative*%
%FSLAX46Y46*%
G04 Gerber Fmt 4.6, Leading zero omitted, Abs format (unit mm)*
G04 Created by KiCad (PCBNEW 7.0.11+dfsg-1build4) date 2025-05-04 19:09:06*
%MOMM*%
%LPD*%
G01*
G04 APERTURE LIST*
G04 Aperture macros list*
%AMRoundRect*
0 Rectangle with rounded corners*
0 $1 Rounding radius*
0 $2 $3 $4 $5 $6 $7 $8 $9 X,Y pos of 4 corners*
0 Add a 4 corners polygon primitive as box body*
4,1,4,$2,$3,$4,$5,$6,$7,$8,$9,$2,$3,0*
0 Add four circle primitives for the rounded corners*
1,1,$1+$1,$2,$3*
1,1,$1+$1,$4,$5*
1,1,$1+$1,$6,$7*
1,1,$1+$1,$8,$9*
0 Add four rect primitives between the rounded corners*
20,1,$1+$1,$2,$3,$4,$5,0*
20,1,$1+$1,$4,$5,$6,$7,0*
20,1,$1+$1,$6,$7,$8,$9,0*
20,1,$1+$1,$8,$9,$2,$3,0*%
G04 Aperture macros list end*
%ADD10O,1.600000X1.600000*%
%ADD11R,1.600000X1.600000*%
%ADD12C,1.524000*%
%ADD13C,1.600000*%
%ADD14O,1.700000X1.700000*%
%ADD15R,1.700000X1.700000*%
%ADD16C,1.700000*%
%ADD17C,1.200000*%
%ADD18R,1.200000X1.200000*%
%ADD19C,5.600000*%
%ADD20C,1.550000*%
%ADD21RoundRect,0.249999X0.525001X0.525001X-0.525001X0.525001X-0.525001X-0.525001X0.525001X-0.525001X0*%
%ADD22C,2.850000*%
G04 APERTURE END LIST*
D10*
%TO.C,U7*%
X63500000Y-20955000D03*
X63500000Y-23495000D03*
X63500000Y-26035000D03*
X63500000Y-28575000D03*
X63500000Y-31115000D03*
X63500000Y-33655000D03*
X63500000Y-36195000D03*
X63500000Y-38735000D03*
X63500000Y-41275000D03*
X63500000Y-43815000D03*
X63500000Y-46355000D03*
X63500000Y-48895000D03*
X63500000Y-51435000D03*
X63500000Y-53975000D03*
X55880000Y-53975000D03*
X55880000Y-51435000D03*
X55880000Y-48895000D03*
X55880000Y-46355000D03*
X55880000Y-43815000D03*
X55880000Y-41275000D03*
X55880000Y-38735000D03*
X55880000Y-36195000D03*
X55880000Y-33655000D03*
X55880000Y-31115000D03*
X55880000Y-28575000D03*
X55880000Y-26035000D03*
X55880000Y-23495000D03*
D11*
X55880000Y-20955000D03*
%TD*%
D12*
%TO.C,SW2*%
X226695000Y-87550000D03*
X224695000Y-87550000D03*
X222695000Y-87550000D03*
X226695000Y-82550000D03*
X224695000Y-82550000D03*
X222695000Y-82550000D03*
%TD*%
D10*
%TO.C,U2*%
X50165000Y-20955000D03*
X50165000Y-23495000D03*
X50165000Y-26035000D03*
X50165000Y-28575000D03*
X50165000Y-31115000D03*
X50165000Y-33655000D03*
X50165000Y-36195000D03*
X50165000Y-38735000D03*
X50165000Y-41275000D03*
X50165000Y-43815000D03*
X50165000Y-46355000D03*
X50165000Y-48895000D03*
X50165000Y-51435000D03*
X50165000Y-53975000D03*
X42545000Y-53975000D03*
X42545000Y-51435000D03*
X42545000Y-48895000D03*
X42545000Y-46355000D03*
X42545000Y-43815000D03*
X42545000Y-41275000D03*
X42545000Y-38735000D03*
X42545000Y-36195000D03*
X42545000Y-33655000D03*
X42545000Y-31115000D03*
X42545000Y-28575000D03*
X42545000Y-26035000D03*
X42545000Y-23495000D03*
D11*
X42545000Y-20955000D03*
%TD*%
D13*
%TO.C,C11*%
X-3232349Y-70485000D03*
D11*
X1767651Y-70485000D03*
%TD*%
D14*
%TO.C,J11*%
X138430000Y-88900000D03*
X138430000Y-86360000D03*
X138430000Y-83820000D03*
X138430000Y-81280000D03*
X138430000Y-78740000D03*
X138430000Y-76200000D03*
X138430000Y-73660000D03*
X138430000Y-71120000D03*
D15*
X138430000Y-68580000D03*
%TD*%
D16*
%TO.C,SW1*%
X227850000Y-77180000D03*
X221350000Y-77180000D03*
X227850000Y-72680000D03*
D15*
X221350000Y-72680000D03*
%TD*%
D14*
%TO.C,J7*%
X-50800000Y-64770000D03*
D15*
X-48260000Y-64770000D03*
%TD*%
D10*
%TO.C,U3*%
X92075000Y-20955000D03*
X92075000Y-23495000D03*
X92075000Y-26035000D03*
X92075000Y-28575000D03*
X92075000Y-31115000D03*
X92075000Y-33655000D03*
X92075000Y-36195000D03*
X92075000Y-38735000D03*
X92075000Y-41275000D03*
X92075000Y-43815000D03*
X92075000Y-46355000D03*
X92075000Y-48895000D03*
X92075000Y-51435000D03*
X92075000Y-53975000D03*
X76835000Y-53975000D03*
X76835000Y-51435000D03*
X76835000Y-48895000D03*
X76835000Y-46355000D03*
X76835000Y-43815000D03*
X76835000Y-41275000D03*
X76835000Y-38735000D03*
X76835000Y-36195000D03*
X76835000Y-33655000D03*
X76835000Y-31115000D03*
X76835000Y-28575000D03*
X76835000Y-26035000D03*
X76835000Y-23495000D03*
D11*
X76835000Y-20955000D03*
%TD*%
D14*
%TO.C,J10*%
X156845000Y-114935000D03*
X156845000Y-112395000D03*
D15*
X156845000Y-109855000D03*
%TD*%
D17*
%TO.C,C12*%
X57150000Y-3175000D03*
D18*
X55150000Y-3175000D03*
%TD*%
D10*
%TO.C,U4*%
X108595000Y-20950000D03*
X108595000Y-23490000D03*
X108595000Y-26030000D03*
X108595000Y-28570000D03*
X108595000Y-31110000D03*
X108595000Y-33650000D03*
X108595000Y-36190000D03*
X108595000Y-38730000D03*
X108595000Y-41270000D03*
X108595000Y-43810000D03*
X108595000Y-46350000D03*
X108595000Y-48890000D03*
X100975000Y-48890000D03*
X100975000Y-46350000D03*
X100975000Y-43810000D03*
X100975000Y-41270000D03*
X100975000Y-38730000D03*
X100975000Y-36190000D03*
X100975000Y-33650000D03*
X100975000Y-31110000D03*
X100975000Y-28570000D03*
X100975000Y-26030000D03*
X100975000Y-23490000D03*
D11*
X100975000Y-20950000D03*
%TD*%
D14*
%TO.C,J8*%
X-40005000Y-78740000D03*
D15*
X-37465000Y-78740000D03*
%TD*%
D10*
%TO.C,U1*%
X48895000Y-60960000D03*
X51435000Y-60960000D03*
X53975000Y-60960000D03*
X56515000Y-60960000D03*
X59055000Y-60960000D03*
X61595000Y-60960000D03*
X64135000Y-60960000D03*
X66675000Y-60960000D03*
X69215000Y-60960000D03*
X71755000Y-60960000D03*
X74295000Y-60960000D03*
X76835000Y-60960000D03*
X79375000Y-60960000D03*
X81915000Y-60960000D03*
X84455000Y-60960000D03*
X86995000Y-60960000D03*
X89535000Y-60960000D03*
X92075000Y-60960000D03*
X94615000Y-60960000D03*
X97155000Y-60960000D03*
X97155000Y-76200000D03*
X94615000Y-76200000D03*
X92075000Y-76200000D03*
X89535000Y-76200000D03*
X86995000Y-76200000D03*
X84455000Y-76200000D03*
X81915000Y-76200000D03*
X79375000Y-76200000D03*
X76835000Y-76200000D03*
X74295000Y-76200000D03*
X71755000Y-76200000D03*
X69215000Y-76200000D03*
X66675000Y-76200000D03*
X64135000Y-76200000D03*
X61595000Y-76200000D03*
X59055000Y-76200000D03*
X56515000Y-76200000D03*
X53975000Y-76200000D03*
X51435000Y-76200000D03*
D11*
X48895000Y-76200000D03*
%TD*%
D14*
%TO.C,J9*%
X177800000Y-113665000D03*
X177800000Y-116205000D03*
D15*
X177800000Y-118745000D03*
%TD*%
D19*
%TO.C,H1*%
X26670000Y-19050000D03*
%TD*%
D14*
%TO.C,J6*%
X27330000Y-101600000D03*
D15*
X27330000Y-99060000D03*
%TD*%
D10*
%TO.C,X1*%
X124470000Y-21585000D03*
X124470000Y-24125000D03*
X124470000Y-26665000D03*
X124470000Y-29205000D03*
X124470000Y-31745000D03*
X124470000Y-34285000D03*
X124470000Y-36825000D03*
X116850000Y-36825000D03*
X116850000Y-34285000D03*
X116850000Y-31745000D03*
X116850000Y-29205000D03*
X116850000Y-26665000D03*
X116850000Y-24125000D03*
D11*
X116850000Y-21585000D03*
%TD*%
D20*
%TO.C,J1*%
X41910000Y-96520000D03*
X44450000Y-96520000D03*
X46990000Y-96520000D03*
X49530000Y-96520000D03*
X52070000Y-96520000D03*
X54610000Y-96520000D03*
X57150000Y-96520000D03*
X59690000Y-96520000D03*
X62230000Y-96520000D03*
X64770000Y-96520000D03*
X67310000Y-96520000D03*
X69850000Y-96520000D03*
X72390000Y-96520000D03*
X74930000Y-96520000D03*
X77470000Y-96520000D03*
X80010000Y-96520000D03*
X82550000Y-96520000D03*
X85090000Y-96520000D03*
X87630000Y-96520000D03*
X90170000Y-96520000D03*
X92710000Y-96520000D03*
X95250000Y-96520000D03*
X97790000Y-96520000D03*
X100330000Y-96520000D03*
X102870000Y-96520000D03*
X105410000Y-96520000D03*
X107950000Y-96520000D03*
X110490000Y-96520000D03*
X113030000Y-96520000D03*
X115570000Y-96520000D03*
X118110000Y-96520000D03*
X120650000Y-96520000D03*
X41910000Y-101600000D03*
X44450000Y-101600000D03*
X46990000Y-101600000D03*
X49530000Y-101600000D03*
X52070000Y-101600000D03*
X54610000Y-101600000D03*
X57150000Y-101600000D03*
X59690000Y-101600000D03*
X62230000Y-101600000D03*
X64770000Y-101600000D03*
X67310000Y-101600000D03*
X69850000Y-101600000D03*
X72390000Y-101600000D03*
X74930000Y-101600000D03*
X77470000Y-101600000D03*
X80010000Y-101600000D03*
X82550000Y-101600000D03*
X85090000Y-101600000D03*
X87630000Y-101600000D03*
X90170000Y-101600000D03*
X92710000Y-101600000D03*
X95250000Y-101600000D03*
X97790000Y-101600000D03*
X100330000Y-101600000D03*
X102870000Y-101600000D03*
X105410000Y-101600000D03*
X107950000Y-101600000D03*
X110490000Y-101600000D03*
X113030000Y-101600000D03*
X115570000Y-101600000D03*
X118110000Y-101600000D03*
D21*
X120650000Y-101600000D03*
D22*
X36830000Y-104140000D03*
X125730000Y-104140000D03*
%TD*%
D19*
%TO.C,H2*%
X138430000Y-19050000D03*
%TD*%
M02*
