%TF.GenerationSoftware,KiCad,Pcbnew,7.0.11+dfsg-1build4*%
%TF.CreationDate,2025-05-04T19:09:06+02:00*%
%TF.ProjectId,cpu_board_03,6370755f-626f-4617-9264-5f30332e6b69,rev?*%
%TF.SameCoordinates,Original*%
%TF.FileFunction,Soldermask,Top*%
%TF.FilePolarity,Negative*%
%FSLAX46Y46*%
G04 Gerber Fmt 4.6, Leading zero omitted, Abs format (unit mm)*
G04 Created by KiCad (PCBNEW 7.0.11+dfsg-1build4) date 2025-05-04 19:09:06*
%MOMM*%
%LPD*%
G01*
G04 APERTURE LIST*
G04 Aperture macros list*
%AMRoundRect*
0 Rectangle with rounded corners*
0 $1 Rounding radius*
0 $2 $3 $4 $5 $6 $7 $8 $9 X,Y pos of 4 corners*
0 Add a 4 corners polygon primitive as box body*
4,1,4,$2,$3,$4,$5,$6,$7,$8,$9,$2,$3,0*
0 Add four circle primitives for the rounded corners*
1,1,$1+$1,$2,$3*
1,1,$1+$1,$4,$5*
1,1,$1+$1,$6,$7*
1,1,$1+$1,$8,$9*
0 Add four rect primitives between the rounded corners*
20,1,$1+$1,$2,$3,$4,$5,0*
20,1,$1+$1,$4,$5,$6,$7,0*
20,1,$1+$1,$6,$7,$8,$9,0*
20,1,$1+$1,$8,$9,$2,$3,0*%
G04 Aperture macros list end*
%ADD10R,0.600000X1.500000*%
%ADD11R,1.500000X0.600000*%
%ADD12RoundRect,0.150000X0.150000X-0.725000X0.150000X0.725000X-0.150000X0.725000X-0.150000X-0.725000X0*%
%ADD13RoundRect,0.250000X0.450000X-0.325000X0.450000X0.325000X-0.450000X0.325000X-0.450000X-0.325000X0*%
%ADD14RoundRect,0.150000X-0.725000X-0.150000X0.725000X-0.150000X0.725000X0.150000X-0.725000X0.150000X0*%
%ADD15O,1.600000X1.600000*%
%ADD16R,1.600000X1.600000*%
%ADD17C,1.524000*%
%ADD18C,1.600000*%
%ADD19O,1.700000X1.700000*%
%ADD20R,1.700000X1.700000*%
%ADD21C,1.700000*%
%ADD22RoundRect,0.250000X0.475000X-0.337500X0.475000X0.337500X-0.475000X0.337500X-0.475000X-0.337500X0*%
%ADD23R,0.640000X0.700000*%
%ADD24R,0.500000X0.700000*%
%ADD25R,0.700000X0.640000*%
%ADD26R,0.700000X0.500000*%
%ADD27RoundRect,0.250000X0.337500X0.475000X-0.337500X0.475000X-0.337500X-0.475000X0.337500X-0.475000X0*%
%ADD28C,1.200000*%
%ADD29R,1.200000X1.200000*%
%ADD30RoundRect,0.250000X-0.350000X-0.450000X0.350000X-0.450000X0.350000X0.450000X-0.350000X0.450000X0*%
%ADD31RoundRect,0.250000X0.350000X0.450000X-0.350000X0.450000X-0.350000X-0.450000X0.350000X-0.450000X0*%
%ADD32RoundRect,0.250000X-0.337500X-0.475000X0.337500X-0.475000X0.337500X0.475000X-0.337500X0.475000X0*%
%ADD33RoundRect,0.250000X-0.475000X0.337500X-0.475000X-0.337500X0.475000X-0.337500X0.475000X0.337500X0*%
%ADD34C,5.600000*%
%ADD35RoundRect,0.250000X-0.450000X0.350000X-0.450000X-0.350000X0.450000X-0.350000X0.450000X0.350000X0*%
%ADD36C,1.550000*%
%ADD37RoundRect,0.249999X0.525001X0.525001X-0.525001X0.525001X-0.525001X-0.525001X0.525001X-0.525001X0*%
%ADD38C,2.850000*%
G04 APERTURE END LIST*
D10*
%TO.C,U11*%
X90170000Y-81610000D03*
X91440000Y-81610000D03*
X92710000Y-81610000D03*
X93980000Y-81610000D03*
X95250000Y-81610000D03*
X96520000Y-81610000D03*
X97790000Y-81610000D03*
X99060000Y-81610000D03*
X100330000Y-81610000D03*
X101600000Y-81610000D03*
X101600000Y-91110000D03*
X100330000Y-91110000D03*
X99060000Y-91110000D03*
X97790000Y-91110000D03*
X96520000Y-91110000D03*
X95250000Y-91110000D03*
X93980000Y-91110000D03*
X92710000Y-91110000D03*
X91440000Y-91110000D03*
X90170000Y-91110000D03*
%TD*%
%TO.C,U10*%
X71755000Y-81280000D03*
X73025000Y-81280000D03*
X74295000Y-81280000D03*
X75565000Y-81280000D03*
X76835000Y-81280000D03*
X78105000Y-81280000D03*
X79375000Y-81280000D03*
X80645000Y-81280000D03*
X81915000Y-81280000D03*
X83185000Y-81280000D03*
X83185000Y-90780000D03*
X81915000Y-90780000D03*
X80645000Y-90780000D03*
X79375000Y-90780000D03*
X78105000Y-90780000D03*
X76835000Y-90780000D03*
X75565000Y-90780000D03*
X74295000Y-90780000D03*
X73025000Y-90780000D03*
X71755000Y-90780000D03*
%TD*%
D11*
%TO.C,U8*%
X115240000Y-74930000D03*
X115240000Y-76200000D03*
X115240000Y-77470000D03*
X115240000Y-78740000D03*
X115240000Y-80010000D03*
X115240000Y-81280000D03*
X115240000Y-82550000D03*
X115240000Y-83820000D03*
X115240000Y-85090000D03*
X115240000Y-86360000D03*
X105740000Y-86360000D03*
X105740000Y-85090000D03*
X105740000Y-83820000D03*
X105740000Y-82550000D03*
X105740000Y-81280000D03*
X105740000Y-80010000D03*
X105740000Y-78740000D03*
X105740000Y-77470000D03*
X105740000Y-76200000D03*
X105740000Y-74930000D03*
%TD*%
%TO.C,U6*%
X114935000Y-59690000D03*
X114935000Y-60960000D03*
X114935000Y-62230000D03*
X114935000Y-63500000D03*
X114935000Y-64770000D03*
X114935000Y-66040000D03*
X114935000Y-67310000D03*
X114935000Y-68580000D03*
X114935000Y-69850000D03*
X114935000Y-71120000D03*
X105435000Y-71120000D03*
X105435000Y-69850000D03*
X105435000Y-68580000D03*
X105435000Y-67310000D03*
X105435000Y-66040000D03*
X105435000Y-64770000D03*
X105435000Y-63500000D03*
X105435000Y-62230000D03*
X105435000Y-60960000D03*
X105435000Y-59690000D03*
%TD*%
D12*
%TO.C,U5*%
X52705000Y-88970000D03*
X53975000Y-88970000D03*
X55245000Y-88970000D03*
X56515000Y-88970000D03*
X57785000Y-88970000D03*
X59055000Y-88970000D03*
X60325000Y-88970000D03*
X61595000Y-88970000D03*
X61595000Y-83820000D03*
X60325000Y-83820000D03*
X59055000Y-83820000D03*
X57785000Y-83820000D03*
X56515000Y-83820000D03*
X55245000Y-83820000D03*
X53975000Y-83820000D03*
X52705000Y-83820000D03*
%TD*%
D10*
%TO.C,C3*%
X86995000Y-8792500D03*
X88265000Y-8792500D03*
X89535000Y-8792500D03*
X90805000Y-8792500D03*
X92075000Y-8792500D03*
X93345000Y-8792500D03*
X94615000Y-8792500D03*
X95885000Y-8792500D03*
X97155000Y-8792500D03*
X98425000Y-8792500D03*
X98425000Y707500D03*
X97155000Y707500D03*
X95885000Y707500D03*
X94615000Y707500D03*
X93345000Y707500D03*
X92075000Y707500D03*
X90805000Y707500D03*
X89535000Y707500D03*
X88265000Y707500D03*
X86995000Y707500D03*
%TD*%
D13*
%TO.C,D9*%
X122555000Y-2395000D03*
X122555000Y-4445000D03*
%TD*%
D14*
%TO.C,U9*%
X34360000Y-56515000D03*
X34360000Y-57785000D03*
X34360000Y-59055000D03*
X34360000Y-60325000D03*
X29210000Y-60325000D03*
X29210000Y-59055000D03*
X29210000Y-57785000D03*
X29210000Y-56515000D03*
%TD*%
D15*
%TO.C,U7*%
X63500000Y-20955000D03*
X63500000Y-23495000D03*
X63500000Y-26035000D03*
X63500000Y-28575000D03*
X63500000Y-31115000D03*
X63500000Y-33655000D03*
X63500000Y-36195000D03*
X63500000Y-38735000D03*
X63500000Y-41275000D03*
X63500000Y-43815000D03*
X63500000Y-46355000D03*
X63500000Y-48895000D03*
X63500000Y-51435000D03*
X63500000Y-53975000D03*
X55880000Y-53975000D03*
X55880000Y-51435000D03*
X55880000Y-48895000D03*
X55880000Y-46355000D03*
X55880000Y-43815000D03*
X55880000Y-41275000D03*
X55880000Y-38735000D03*
X55880000Y-36195000D03*
X55880000Y-33655000D03*
X55880000Y-31115000D03*
X55880000Y-28575000D03*
X55880000Y-26035000D03*
X55880000Y-23495000D03*
D16*
X55880000Y-20955000D03*
%TD*%
D17*
%TO.C,SW2*%
X226695000Y-87550000D03*
X224695000Y-87550000D03*
X222695000Y-87550000D03*
X226695000Y-82550000D03*
X224695000Y-82550000D03*
X222695000Y-82550000D03*
%TD*%
D13*
%TO.C,D11*%
X127635000Y-2395000D03*
X127635000Y-4445000D03*
%TD*%
%TO.C,D6*%
X142875000Y-52315000D03*
X142875000Y-54365000D03*
%TD*%
D15*
%TO.C,U2*%
X50165000Y-20955000D03*
X50165000Y-23495000D03*
X50165000Y-26035000D03*
X50165000Y-28575000D03*
X50165000Y-31115000D03*
X50165000Y-33655000D03*
X50165000Y-36195000D03*
X50165000Y-38735000D03*
X50165000Y-41275000D03*
X50165000Y-43815000D03*
X50165000Y-46355000D03*
X50165000Y-48895000D03*
X50165000Y-51435000D03*
X50165000Y-53975000D03*
X42545000Y-53975000D03*
X42545000Y-51435000D03*
X42545000Y-48895000D03*
X42545000Y-46355000D03*
X42545000Y-43815000D03*
X42545000Y-41275000D03*
X42545000Y-38735000D03*
X42545000Y-36195000D03*
X42545000Y-33655000D03*
X42545000Y-31115000D03*
X42545000Y-28575000D03*
X42545000Y-26035000D03*
X42545000Y-23495000D03*
D16*
X42545000Y-20955000D03*
%TD*%
D18*
%TO.C,C11*%
X-3232349Y-70485000D03*
D16*
X1767651Y-70485000D03*
%TD*%
D19*
%TO.C,J11*%
X138430000Y-88900000D03*
X138430000Y-86360000D03*
X138430000Y-83820000D03*
X138430000Y-81280000D03*
X138430000Y-78740000D03*
X138430000Y-76200000D03*
X138430000Y-73660000D03*
X138430000Y-71120000D03*
D20*
X138430000Y-68580000D03*
%TD*%
D21*
%TO.C,SW1*%
X227850000Y-77180000D03*
X221350000Y-77180000D03*
X227850000Y-72680000D03*
D20*
X221350000Y-72680000D03*
%TD*%
D19*
%TO.C,J7*%
X-50800000Y-64770000D03*
D20*
X-48260000Y-64770000D03*
%TD*%
D22*
%TO.C,C14*%
X173355000Y-39602500D03*
X173355000Y-41677500D03*
%TD*%
D15*
%TO.C,U3*%
X92075000Y-20955000D03*
X92075000Y-23495000D03*
X92075000Y-26035000D03*
X92075000Y-28575000D03*
X92075000Y-31115000D03*
X92075000Y-33655000D03*
X92075000Y-36195000D03*
X92075000Y-38735000D03*
X92075000Y-41275000D03*
X92075000Y-43815000D03*
X92075000Y-46355000D03*
X92075000Y-48895000D03*
X92075000Y-51435000D03*
X92075000Y-53975000D03*
X76835000Y-53975000D03*
X76835000Y-51435000D03*
X76835000Y-48895000D03*
X76835000Y-46355000D03*
X76835000Y-43815000D03*
X76835000Y-41275000D03*
X76835000Y-38735000D03*
X76835000Y-36195000D03*
X76835000Y-33655000D03*
X76835000Y-31115000D03*
X76835000Y-28575000D03*
X76835000Y-26035000D03*
X76835000Y-23495000D03*
D16*
X76835000Y-20955000D03*
%TD*%
D23*
%TO.C,RN2*%
X139635000Y-47445000D03*
D24*
X138765000Y-47445000D03*
X137965000Y-47445000D03*
D23*
X137095000Y-47445000D03*
X137095000Y-46045000D03*
D24*
X137965000Y-46045000D03*
X138765000Y-46045000D03*
D23*
X139635000Y-46045000D03*
%TD*%
D13*
%TO.C,D10*%
X125095000Y-2395000D03*
X125095000Y-4445000D03*
%TD*%
D19*
%TO.C,J10*%
X156845000Y-114935000D03*
X156845000Y-112395000D03*
D20*
X156845000Y-109855000D03*
%TD*%
D25*
%TO.C,RN3*%
X118615000Y-4700000D03*
D26*
X118615000Y-3830000D03*
X118615000Y-3030000D03*
D25*
X118615000Y-2160000D03*
X120015000Y-2160000D03*
D26*
X120015000Y-3030000D03*
X120015000Y-3830000D03*
D25*
X120015000Y-4700000D03*
%TD*%
D13*
%TO.C,D12*%
X130175000Y-2395000D03*
X130175000Y-4445000D03*
%TD*%
%TO.C,D7*%
X140335000Y-52315000D03*
X140335000Y-54365000D03*
%TD*%
D22*
%TO.C,C5*%
X52070000Y-3005000D03*
X52070000Y-5080000D03*
%TD*%
D27*
%TO.C,C10*%
X-54610000Y-41910000D03*
X-52535000Y-41910000D03*
%TD*%
D28*
%TO.C,C12*%
X57150000Y-3175000D03*
D29*
X55150000Y-3175000D03*
%TD*%
D15*
%TO.C,U4*%
X108595000Y-20950000D03*
X108595000Y-23490000D03*
X108595000Y-26030000D03*
X108595000Y-28570000D03*
X108595000Y-31110000D03*
X108595000Y-33650000D03*
X108595000Y-36190000D03*
X108595000Y-38730000D03*
X108595000Y-41270000D03*
X108595000Y-43810000D03*
X108595000Y-46350000D03*
X108595000Y-48890000D03*
X100975000Y-48890000D03*
X100975000Y-46350000D03*
X100975000Y-43810000D03*
X100975000Y-41270000D03*
X100975000Y-38730000D03*
X100975000Y-36190000D03*
X100975000Y-33650000D03*
X100975000Y-31110000D03*
X100975000Y-28570000D03*
X100975000Y-26030000D03*
X100975000Y-23490000D03*
D16*
X100975000Y-20950000D03*
%TD*%
D23*
%TO.C,RN1*%
X155575000Y-47445000D03*
D24*
X154705000Y-47445000D03*
X153905000Y-47445000D03*
D23*
X153035000Y-47445000D03*
X153035000Y-46045000D03*
D24*
X153905000Y-46045000D03*
X154705000Y-46045000D03*
D23*
X155575000Y-46045000D03*
%TD*%
D22*
%TO.C,C4*%
X117475000Y-9355000D03*
X117475000Y-11430000D03*
%TD*%
%TO.C,C9*%
X220230000Y-54955000D03*
X220230000Y-57030000D03*
%TD*%
%TO.C,C6*%
X67310000Y-3005000D03*
X67310000Y-5080000D03*
%TD*%
D30*
%TO.C,R4*%
X-36735000Y-69850000D03*
X-38735000Y-69850000D03*
%TD*%
D31*
%TO.C,R1*%
X214785000Y-74005000D03*
X216785000Y-74005000D03*
%TD*%
D32*
%TO.C,C8*%
X152400000Y-63500000D03*
X150325000Y-63500000D03*
%TD*%
D13*
%TO.C,D2*%
X153035000Y-52315000D03*
X153035000Y-54365000D03*
%TD*%
D19*
%TO.C,J8*%
X-40005000Y-78740000D03*
D20*
X-37465000Y-78740000D03*
%TD*%
D33*
%TO.C,C7*%
X-45085000Y-92477500D03*
X-45085000Y-90402500D03*
%TD*%
D15*
%TO.C,U1*%
X48895000Y-60960000D03*
X51435000Y-60960000D03*
X53975000Y-60960000D03*
X56515000Y-60960000D03*
X59055000Y-60960000D03*
X61595000Y-60960000D03*
X64135000Y-60960000D03*
X66675000Y-60960000D03*
X69215000Y-60960000D03*
X71755000Y-60960000D03*
X74295000Y-60960000D03*
X76835000Y-60960000D03*
X79375000Y-60960000D03*
X81915000Y-60960000D03*
X84455000Y-60960000D03*
X86995000Y-60960000D03*
X89535000Y-60960000D03*
X92075000Y-60960000D03*
X94615000Y-60960000D03*
X97155000Y-60960000D03*
X97155000Y-76200000D03*
X94615000Y-76200000D03*
X92075000Y-76200000D03*
X89535000Y-76200000D03*
X86995000Y-76200000D03*
X84455000Y-76200000D03*
X81915000Y-76200000D03*
X79375000Y-76200000D03*
X76835000Y-76200000D03*
X74295000Y-76200000D03*
X71755000Y-76200000D03*
X69215000Y-76200000D03*
X66675000Y-76200000D03*
X64135000Y-76200000D03*
X61595000Y-76200000D03*
X59055000Y-76200000D03*
X56515000Y-76200000D03*
X53975000Y-76200000D03*
X51435000Y-76200000D03*
D16*
X48895000Y-76200000D03*
%TD*%
D19*
%TO.C,J9*%
X177800000Y-113665000D03*
X177800000Y-116205000D03*
D20*
X177800000Y-118745000D03*
%TD*%
D13*
%TO.C,D3*%
X150495000Y-52315000D03*
X150495000Y-54365000D03*
%TD*%
%TO.C,D8*%
X137795000Y-52315000D03*
X137795000Y-54365000D03*
%TD*%
%TO.C,D1*%
X155575000Y-52315000D03*
X155575000Y-54365000D03*
%TD*%
D34*
%TO.C,H1*%
X26670000Y-19050000D03*
%TD*%
D35*
%TO.C,R2*%
X217690000Y-65480000D03*
X217690000Y-63480000D03*
%TD*%
D19*
%TO.C,J6*%
X27330000Y-101600000D03*
D20*
X27330000Y-99060000D03*
%TD*%
D15*
%TO.C,X1*%
X124470000Y-21585000D03*
X124470000Y-24125000D03*
X124470000Y-26665000D03*
X124470000Y-29205000D03*
X124470000Y-31745000D03*
X124470000Y-34285000D03*
X124470000Y-36825000D03*
X116850000Y-36825000D03*
X116850000Y-34285000D03*
X116850000Y-31745000D03*
X116850000Y-29205000D03*
X116850000Y-26665000D03*
X116850000Y-24125000D03*
D16*
X116850000Y-21585000D03*
%TD*%
D13*
%TO.C,D13*%
X215150000Y-63455000D03*
X215150000Y-65505000D03*
%TD*%
%TO.C,D5*%
X145415000Y-52315000D03*
X145415000Y-54365000D03*
%TD*%
D36*
%TO.C,J1*%
X41910000Y-96520000D03*
X44450000Y-96520000D03*
X46990000Y-96520000D03*
X49530000Y-96520000D03*
X52070000Y-96520000D03*
X54610000Y-96520000D03*
X57150000Y-96520000D03*
X59690000Y-96520000D03*
X62230000Y-96520000D03*
X64770000Y-96520000D03*
X67310000Y-96520000D03*
X69850000Y-96520000D03*
X72390000Y-96520000D03*
X74930000Y-96520000D03*
X77470000Y-96520000D03*
X80010000Y-96520000D03*
X82550000Y-96520000D03*
X85090000Y-96520000D03*
X87630000Y-96520000D03*
X90170000Y-96520000D03*
X92710000Y-96520000D03*
X95250000Y-96520000D03*
X97790000Y-96520000D03*
X100330000Y-96520000D03*
X102870000Y-96520000D03*
X105410000Y-96520000D03*
X107950000Y-96520000D03*
X110490000Y-96520000D03*
X113030000Y-96520000D03*
X115570000Y-96520000D03*
X118110000Y-96520000D03*
X120650000Y-96520000D03*
X41910000Y-101600000D03*
X44450000Y-101600000D03*
X46990000Y-101600000D03*
X49530000Y-101600000D03*
X52070000Y-101600000D03*
X54610000Y-101600000D03*
X57150000Y-101600000D03*
X59690000Y-101600000D03*
X62230000Y-101600000D03*
X64770000Y-101600000D03*
X67310000Y-101600000D03*
X69850000Y-101600000D03*
X72390000Y-101600000D03*
X74930000Y-101600000D03*
X77470000Y-101600000D03*
X80010000Y-101600000D03*
X82550000Y-101600000D03*
X85090000Y-101600000D03*
X87630000Y-101600000D03*
X90170000Y-101600000D03*
X92710000Y-101600000D03*
X95250000Y-101600000D03*
X97790000Y-101600000D03*
X100330000Y-101600000D03*
X102870000Y-101600000D03*
X105410000Y-101600000D03*
X107950000Y-101600000D03*
X110490000Y-101600000D03*
X113030000Y-101600000D03*
X115570000Y-101600000D03*
X118110000Y-101600000D03*
D37*
X120650000Y-101600000D03*
D38*
X36830000Y-104140000D03*
X125730000Y-104140000D03*
%TD*%
D34*
%TO.C,H2*%
X138430000Y-19050000D03*
%TD*%
D13*
%TO.C,D4*%
X147955000Y-52315000D03*
X147955000Y-54365000D03*
%TD*%
M02*
