%TF.GenerationSoftware,KiCad,Pcbnew,7.0.11+dfsg-1build4*%
%TF.CreationDate,2025-05-04T19:09:06+02:00*%
%TF.ProjectId,cpu_board_03,6370755f-626f-4617-9264-5f30332e6b69,rev?*%
%TF.SameCoordinates,Original*%
%TF.FileFunction,Legend,Top*%
%TF.FilePolarity,Positive*%
%FSLAX46Y46*%
G04 Gerber Fmt 4.6, Leading zero omitted, Abs format (unit mm)*
G04 Created by KiCad (PCBNEW 7.0.11+dfsg-1build4) date 2025-05-04 19:09:06*
%MOMM*%
%LPD*%
G01*
G04 APERTURE LIST*
%ADD10C,0.150000*%
%ADD11C,0.100000*%
%ADD12C,0.120000*%
G04 APERTURE END LIST*
D10*
X124987207Y-1012819D02*
X124653874Y-536628D01*
X124415779Y-1012819D02*
X124415779Y-12819D01*
X124415779Y-12819D02*
X124796731Y-12819D01*
X124796731Y-12819D02*
X124891969Y-60438D01*
X124891969Y-60438D02*
X124939588Y-108057D01*
X124939588Y-108057D02*
X124987207Y-203295D01*
X124987207Y-203295D02*
X124987207Y-346152D01*
X124987207Y-346152D02*
X124939588Y-441390D01*
X124939588Y-441390D02*
X124891969Y-489009D01*
X124891969Y-489009D02*
X124796731Y-536628D01*
X124796731Y-536628D02*
X124415779Y-536628D01*
X125606255Y-12819D02*
X125701493Y-12819D01*
X125701493Y-12819D02*
X125796731Y-60438D01*
X125796731Y-60438D02*
X125844350Y-108057D01*
X125844350Y-108057D02*
X125891969Y-203295D01*
X125891969Y-203295D02*
X125939588Y-393771D01*
X125939588Y-393771D02*
X125939588Y-631866D01*
X125939588Y-631866D02*
X125891969Y-822342D01*
X125891969Y-822342D02*
X125844350Y-917580D01*
X125844350Y-917580D02*
X125796731Y-965200D01*
X125796731Y-965200D02*
X125701493Y-1012819D01*
X125701493Y-1012819D02*
X125606255Y-1012819D01*
X125606255Y-1012819D02*
X125511017Y-965200D01*
X125511017Y-965200D02*
X125463398Y-917580D01*
X125463398Y-917580D02*
X125415779Y-822342D01*
X125415779Y-822342D02*
X125368160Y-631866D01*
X125368160Y-631866D02*
X125368160Y-393771D01*
X125368160Y-393771D02*
X125415779Y-203295D01*
X125415779Y-203295D02*
X125463398Y-108057D01*
X125463398Y-108057D02*
X125511017Y-60438D01*
X125511017Y-60438D02*
X125606255Y-12819D01*
X160261541Y-125234819D02*
X160880588Y-125234819D01*
X160880588Y-125234819D02*
X160547255Y-125615771D01*
X160547255Y-125615771D02*
X160690112Y-125615771D01*
X160690112Y-125615771D02*
X160785350Y-125663390D01*
X160785350Y-125663390D02*
X160832969Y-125711009D01*
X160832969Y-125711009D02*
X160880588Y-125806247D01*
X160880588Y-125806247D02*
X160880588Y-126044342D01*
X160880588Y-126044342D02*
X160832969Y-126139580D01*
X160832969Y-126139580D02*
X160785350Y-126187200D01*
X160785350Y-126187200D02*
X160690112Y-126234819D01*
X160690112Y-126234819D02*
X160404398Y-126234819D01*
X160404398Y-126234819D02*
X160309160Y-126187200D01*
X160309160Y-126187200D02*
X160261541Y-126139580D01*
X161261541Y-125330057D02*
X161309160Y-125282438D01*
X161309160Y-125282438D02*
X161404398Y-125234819D01*
X161404398Y-125234819D02*
X161642493Y-125234819D01*
X161642493Y-125234819D02*
X161737731Y-125282438D01*
X161737731Y-125282438D02*
X161785350Y-125330057D01*
X161785350Y-125330057D02*
X161832969Y-125425295D01*
X161832969Y-125425295D02*
X161832969Y-125520533D01*
X161832969Y-125520533D02*
X161785350Y-125663390D01*
X161785350Y-125663390D02*
X161213922Y-126234819D01*
X161213922Y-126234819D02*
X161832969Y-126234819D01*
X162261541Y-126234819D02*
X162261541Y-125234819D01*
X162832969Y-126234819D02*
X162404398Y-125663390D01*
X162832969Y-125234819D02*
X162261541Y-125806247D01*
X214788207Y-62444819D02*
X214454874Y-61968628D01*
X214216779Y-62444819D02*
X214216779Y-61444819D01*
X214216779Y-61444819D02*
X214597731Y-61444819D01*
X214597731Y-61444819D02*
X214692969Y-61492438D01*
X214692969Y-61492438D02*
X214740588Y-61540057D01*
X214740588Y-61540057D02*
X214788207Y-61635295D01*
X214788207Y-61635295D02*
X214788207Y-61778152D01*
X214788207Y-61778152D02*
X214740588Y-61873390D01*
X214740588Y-61873390D02*
X214692969Y-61921009D01*
X214692969Y-61921009D02*
X214597731Y-61968628D01*
X214597731Y-61968628D02*
X214216779Y-61968628D01*
X215216779Y-61921009D02*
X215550112Y-61921009D01*
X215692969Y-62444819D02*
X215216779Y-62444819D01*
X215216779Y-62444819D02*
X215216779Y-61444819D01*
X215216779Y-61444819D02*
X215692969Y-61444819D01*
X216073922Y-62397200D02*
X216216779Y-62444819D01*
X216216779Y-62444819D02*
X216454874Y-62444819D01*
X216454874Y-62444819D02*
X216550112Y-62397200D01*
X216550112Y-62397200D02*
X216597731Y-62349580D01*
X216597731Y-62349580D02*
X216645350Y-62254342D01*
X216645350Y-62254342D02*
X216645350Y-62159104D01*
X216645350Y-62159104D02*
X216597731Y-62063866D01*
X216597731Y-62063866D02*
X216550112Y-62016247D01*
X216550112Y-62016247D02*
X216454874Y-61968628D01*
X216454874Y-61968628D02*
X216264398Y-61921009D01*
X216264398Y-61921009D02*
X216169160Y-61873390D01*
X216169160Y-61873390D02*
X216121541Y-61825771D01*
X216121541Y-61825771D02*
X216073922Y-61730533D01*
X216073922Y-61730533D02*
X216073922Y-61635295D01*
X216073922Y-61635295D02*
X216121541Y-61540057D01*
X216121541Y-61540057D02*
X216169160Y-61492438D01*
X216169160Y-61492438D02*
X216264398Y-61444819D01*
X216264398Y-61444819D02*
X216502493Y-61444819D01*
X216502493Y-61444819D02*
X216645350Y-61492438D01*
X43167493Y-104279819D02*
X43167493Y-104994104D01*
X43167493Y-104994104D02*
X43119874Y-105136961D01*
X43119874Y-105136961D02*
X43024636Y-105232200D01*
X43024636Y-105232200D02*
X42881779Y-105279819D01*
X42881779Y-105279819D02*
X42786541Y-105279819D01*
X44119874Y-105279819D02*
X43643684Y-105279819D01*
X43643684Y-105279819D02*
X43643684Y-104279819D01*
X45024636Y-105184580D02*
X44977017Y-105232200D01*
X44977017Y-105232200D02*
X44834160Y-105279819D01*
X44834160Y-105279819D02*
X44738922Y-105279819D01*
X44738922Y-105279819D02*
X44596065Y-105232200D01*
X44596065Y-105232200D02*
X44500827Y-105136961D01*
X44500827Y-105136961D02*
X44453208Y-105041723D01*
X44453208Y-105041723D02*
X44405589Y-104851247D01*
X44405589Y-104851247D02*
X44405589Y-104708390D01*
X44405589Y-104708390D02*
X44453208Y-104517914D01*
X44453208Y-104517914D02*
X44500827Y-104422676D01*
X44500827Y-104422676D02*
X44596065Y-104327438D01*
X44596065Y-104327438D02*
X44738922Y-104279819D01*
X44738922Y-104279819D02*
X44834160Y-104279819D01*
X44834160Y-104279819D02*
X44977017Y-104327438D01*
X44977017Y-104327438D02*
X45024636Y-104375057D01*
X45738922Y-104279819D02*
X45738922Y-104994104D01*
X45738922Y-104994104D02*
X45691303Y-105136961D01*
X45691303Y-105136961D02*
X45596065Y-105232200D01*
X45596065Y-105232200D02*
X45453208Y-105279819D01*
X45453208Y-105279819D02*
X45357970Y-105279819D01*
X46691303Y-105279819D02*
X46215113Y-105279819D01*
X46215113Y-105279819D02*
X46215113Y-104279819D01*
X47596065Y-105184580D02*
X47548446Y-105232200D01*
X47548446Y-105232200D02*
X47405589Y-105279819D01*
X47405589Y-105279819D02*
X47310351Y-105279819D01*
X47310351Y-105279819D02*
X47167494Y-105232200D01*
X47167494Y-105232200D02*
X47072256Y-105136961D01*
X47072256Y-105136961D02*
X47024637Y-105041723D01*
X47024637Y-105041723D02*
X46977018Y-104851247D01*
X46977018Y-104851247D02*
X46977018Y-104708390D01*
X46977018Y-104708390D02*
X47024637Y-104517914D01*
X47024637Y-104517914D02*
X47072256Y-104422676D01*
X47072256Y-104422676D02*
X47167494Y-104327438D01*
X47167494Y-104327438D02*
X47310351Y-104279819D01*
X47310351Y-104279819D02*
X47405589Y-104279819D01*
X47405589Y-104279819D02*
X47548446Y-104327438D01*
X47548446Y-104327438D02*
X47596065Y-104375057D01*
X48310351Y-104279819D02*
X48310351Y-104994104D01*
X48310351Y-104994104D02*
X48262732Y-105136961D01*
X48262732Y-105136961D02*
X48167494Y-105232200D01*
X48167494Y-105232200D02*
X48024637Y-105279819D01*
X48024637Y-105279819D02*
X47929399Y-105279819D01*
X49262732Y-105279819D02*
X48786542Y-105279819D01*
X48786542Y-105279819D02*
X48786542Y-104279819D01*
X50167494Y-105184580D02*
X50119875Y-105232200D01*
X50119875Y-105232200D02*
X49977018Y-105279819D01*
X49977018Y-105279819D02*
X49881780Y-105279819D01*
X49881780Y-105279819D02*
X49738923Y-105232200D01*
X49738923Y-105232200D02*
X49643685Y-105136961D01*
X49643685Y-105136961D02*
X49596066Y-105041723D01*
X49596066Y-105041723D02*
X49548447Y-104851247D01*
X49548447Y-104851247D02*
X49548447Y-104708390D01*
X49548447Y-104708390D02*
X49596066Y-104517914D01*
X49596066Y-104517914D02*
X49643685Y-104422676D01*
X49643685Y-104422676D02*
X49738923Y-104327438D01*
X49738923Y-104327438D02*
X49881780Y-104279819D01*
X49881780Y-104279819D02*
X49977018Y-104279819D01*
X49977018Y-104279819D02*
X50119875Y-104327438D01*
X50119875Y-104327438D02*
X50167494Y-104375057D01*
X50881780Y-104279819D02*
X50881780Y-104994104D01*
X50881780Y-104994104D02*
X50834161Y-105136961D01*
X50834161Y-105136961D02*
X50738923Y-105232200D01*
X50738923Y-105232200D02*
X50596066Y-105279819D01*
X50596066Y-105279819D02*
X50500828Y-105279819D01*
X51834161Y-105279819D02*
X51357971Y-105279819D01*
X51357971Y-105279819D02*
X51357971Y-104279819D01*
X52738923Y-105184580D02*
X52691304Y-105232200D01*
X52691304Y-105232200D02*
X52548447Y-105279819D01*
X52548447Y-105279819D02*
X52453209Y-105279819D01*
X52453209Y-105279819D02*
X52310352Y-105232200D01*
X52310352Y-105232200D02*
X52215114Y-105136961D01*
X52215114Y-105136961D02*
X52167495Y-105041723D01*
X52167495Y-105041723D02*
X52119876Y-104851247D01*
X52119876Y-104851247D02*
X52119876Y-104708390D01*
X52119876Y-104708390D02*
X52167495Y-104517914D01*
X52167495Y-104517914D02*
X52215114Y-104422676D01*
X52215114Y-104422676D02*
X52310352Y-104327438D01*
X52310352Y-104327438D02*
X52453209Y-104279819D01*
X52453209Y-104279819D02*
X52548447Y-104279819D01*
X52548447Y-104279819D02*
X52691304Y-104327438D01*
X52691304Y-104327438D02*
X52738923Y-104375057D01*
X129654541Y-12819D02*
X129892636Y-1012819D01*
X129892636Y-1012819D02*
X130083112Y-298533D01*
X130083112Y-298533D02*
X130273588Y-1012819D01*
X130273588Y-1012819D02*
X130511684Y-12819D01*
X130892636Y-489009D02*
X131225969Y-489009D01*
X131368826Y-1012819D02*
X130892636Y-1012819D01*
X130892636Y-1012819D02*
X130892636Y-12819D01*
X130892636Y-12819D02*
X131368826Y-12819D01*
X160785350Y-127774819D02*
X160594874Y-127774819D01*
X160594874Y-127774819D02*
X160499636Y-127822438D01*
X160499636Y-127822438D02*
X160452017Y-127870057D01*
X160452017Y-127870057D02*
X160356779Y-128012914D01*
X160356779Y-128012914D02*
X160309160Y-128203390D01*
X160309160Y-128203390D02*
X160309160Y-128584342D01*
X160309160Y-128584342D02*
X160356779Y-128679580D01*
X160356779Y-128679580D02*
X160404398Y-128727200D01*
X160404398Y-128727200D02*
X160499636Y-128774819D01*
X160499636Y-128774819D02*
X160690112Y-128774819D01*
X160690112Y-128774819D02*
X160785350Y-128727200D01*
X160785350Y-128727200D02*
X160832969Y-128679580D01*
X160832969Y-128679580D02*
X160880588Y-128584342D01*
X160880588Y-128584342D02*
X160880588Y-128346247D01*
X160880588Y-128346247D02*
X160832969Y-128251009D01*
X160832969Y-128251009D02*
X160785350Y-128203390D01*
X160785350Y-128203390D02*
X160690112Y-128155771D01*
X160690112Y-128155771D02*
X160499636Y-128155771D01*
X160499636Y-128155771D02*
X160404398Y-128203390D01*
X160404398Y-128203390D02*
X160356779Y-128251009D01*
X160356779Y-128251009D02*
X160309160Y-128346247D01*
X161737731Y-128108152D02*
X161737731Y-128774819D01*
X161499636Y-127727200D02*
X161261541Y-128441485D01*
X161261541Y-128441485D02*
X161880588Y-128441485D01*
X162261541Y-128774819D02*
X162261541Y-127774819D01*
X162832969Y-128774819D02*
X162404398Y-128203390D01*
X162832969Y-127774819D02*
X162261541Y-128346247D01*
X24466779Y-101723866D02*
X25228684Y-101723866D01*
X120923207Y-1012819D02*
X120589874Y-536628D01*
X120351779Y-1012819D02*
X120351779Y-12819D01*
X120351779Y-12819D02*
X120732731Y-12819D01*
X120732731Y-12819D02*
X120827969Y-60438D01*
X120827969Y-60438D02*
X120875588Y-108057D01*
X120875588Y-108057D02*
X120923207Y-203295D01*
X120923207Y-203295D02*
X120923207Y-346152D01*
X120923207Y-346152D02*
X120875588Y-441390D01*
X120875588Y-441390D02*
X120827969Y-489009D01*
X120827969Y-489009D02*
X120732731Y-536628D01*
X120732731Y-536628D02*
X120351779Y-536628D01*
X121542255Y-12819D02*
X121732731Y-12819D01*
X121732731Y-12819D02*
X121827969Y-60438D01*
X121827969Y-60438D02*
X121923207Y-155676D01*
X121923207Y-155676D02*
X121970826Y-346152D01*
X121970826Y-346152D02*
X121970826Y-679485D01*
X121970826Y-679485D02*
X121923207Y-869961D01*
X121923207Y-869961D02*
X121827969Y-965200D01*
X121827969Y-965200D02*
X121732731Y-1012819D01*
X121732731Y-1012819D02*
X121542255Y-1012819D01*
X121542255Y-1012819D02*
X121447017Y-965200D01*
X121447017Y-965200D02*
X121351779Y-869961D01*
X121351779Y-869961D02*
X121304160Y-679485D01*
X121304160Y-679485D02*
X121304160Y-346152D01*
X121304160Y-346152D02*
X121351779Y-155676D01*
X121351779Y-155676D02*
X121447017Y-60438D01*
X121447017Y-60438D02*
X121542255Y-12819D01*
X122399398Y-1012819D02*
X122399398Y-12819D01*
X122399398Y-12819D02*
X122732731Y-727104D01*
X122732731Y-727104D02*
X123066064Y-12819D01*
X123066064Y-12819D02*
X123066064Y-1012819D01*
X24466779Y-99183866D02*
X25228684Y-99183866D01*
X24847731Y-99564819D02*
X24847731Y-98802914D01*
X27006779Y-95754819D02*
X27006779Y-94754819D01*
X27006779Y-94754819D02*
X27387731Y-94754819D01*
X27387731Y-94754819D02*
X27482969Y-94802438D01*
X27482969Y-94802438D02*
X27530588Y-94850057D01*
X27530588Y-94850057D02*
X27578207Y-94945295D01*
X27578207Y-94945295D02*
X27578207Y-95088152D01*
X27578207Y-95088152D02*
X27530588Y-95183390D01*
X27530588Y-95183390D02*
X27482969Y-95231009D01*
X27482969Y-95231009D02*
X27387731Y-95278628D01*
X27387731Y-95278628D02*
X27006779Y-95278628D01*
X28149636Y-95754819D02*
X28054398Y-95707200D01*
X28054398Y-95707200D02*
X28006779Y-95659580D01*
X28006779Y-95659580D02*
X27959160Y-95564342D01*
X27959160Y-95564342D02*
X27959160Y-95278628D01*
X27959160Y-95278628D02*
X28006779Y-95183390D01*
X28006779Y-95183390D02*
X28054398Y-95135771D01*
X28054398Y-95135771D02*
X28149636Y-95088152D01*
X28149636Y-95088152D02*
X28292493Y-95088152D01*
X28292493Y-95088152D02*
X28387731Y-95135771D01*
X28387731Y-95135771D02*
X28435350Y-95183390D01*
X28435350Y-95183390D02*
X28482969Y-95278628D01*
X28482969Y-95278628D02*
X28482969Y-95564342D01*
X28482969Y-95564342D02*
X28435350Y-95659580D01*
X28435350Y-95659580D02*
X28387731Y-95707200D01*
X28387731Y-95707200D02*
X28292493Y-95754819D01*
X28292493Y-95754819D02*
X28149636Y-95754819D01*
X28816303Y-95088152D02*
X29006779Y-95754819D01*
X29006779Y-95754819D02*
X29197255Y-95278628D01*
X29197255Y-95278628D02*
X29387731Y-95754819D01*
X29387731Y-95754819D02*
X29578207Y-95088152D01*
X30340112Y-95707200D02*
X30244874Y-95754819D01*
X30244874Y-95754819D02*
X30054398Y-95754819D01*
X30054398Y-95754819D02*
X29959160Y-95707200D01*
X29959160Y-95707200D02*
X29911541Y-95611961D01*
X29911541Y-95611961D02*
X29911541Y-95231009D01*
X29911541Y-95231009D02*
X29959160Y-95135771D01*
X29959160Y-95135771D02*
X30054398Y-95088152D01*
X30054398Y-95088152D02*
X30244874Y-95088152D01*
X30244874Y-95088152D02*
X30340112Y-95135771D01*
X30340112Y-95135771D02*
X30387731Y-95231009D01*
X30387731Y-95231009D02*
X30387731Y-95326247D01*
X30387731Y-95326247D02*
X29911541Y-95421485D01*
X30816303Y-95754819D02*
X30816303Y-95088152D01*
X30816303Y-95278628D02*
X30863922Y-95183390D01*
X30863922Y-95183390D02*
X30911541Y-95135771D01*
X30911541Y-95135771D02*
X31006779Y-95088152D01*
X31006779Y-95088152D02*
X31102017Y-95088152D01*
X127527207Y-1012819D02*
X127193874Y-536628D01*
X126955779Y-1012819D02*
X126955779Y-12819D01*
X126955779Y-12819D02*
X127336731Y-12819D01*
X127336731Y-12819D02*
X127431969Y-60438D01*
X127431969Y-60438D02*
X127479588Y-108057D01*
X127479588Y-108057D02*
X127527207Y-203295D01*
X127527207Y-203295D02*
X127527207Y-346152D01*
X127527207Y-346152D02*
X127479588Y-441390D01*
X127479588Y-441390D02*
X127431969Y-489009D01*
X127431969Y-489009D02*
X127336731Y-536628D01*
X127336731Y-536628D02*
X126955779Y-536628D01*
X128479588Y-1012819D02*
X127908160Y-1012819D01*
X128193874Y-1012819D02*
X128193874Y-12819D01*
X128193874Y-12819D02*
X128098636Y-155676D01*
X128098636Y-155676D02*
X128003398Y-250914D01*
X128003398Y-250914D02*
X127908160Y-298533D01*
X71456779Y-90674819D02*
X71456779Y-89674819D01*
X71456779Y-89674819D02*
X72028207Y-90674819D01*
X72028207Y-90674819D02*
X72028207Y-89674819D01*
X72504398Y-90674819D02*
X72504398Y-89674819D01*
X72504398Y-89674819D02*
X72837731Y-90389104D01*
X72837731Y-90389104D02*
X73171064Y-89674819D01*
X73171064Y-89674819D02*
X73171064Y-90674819D01*
X73647255Y-90674819D02*
X73647255Y-89674819D01*
X63836779Y-90674819D02*
X63836779Y-89674819D01*
X64312969Y-90674819D02*
X64312969Y-90008152D01*
X64312969Y-90198628D02*
X64360588Y-90103390D01*
X64360588Y-90103390D02*
X64408207Y-90055771D01*
X64408207Y-90055771D02*
X64503445Y-90008152D01*
X64503445Y-90008152D02*
X64598683Y-90008152D01*
X65360588Y-90008152D02*
X65360588Y-91008152D01*
X65360588Y-90627200D02*
X65265350Y-90674819D01*
X65265350Y-90674819D02*
X65074874Y-90674819D01*
X65074874Y-90674819D02*
X64979636Y-90627200D01*
X64979636Y-90627200D02*
X64932017Y-90579580D01*
X64932017Y-90579580D02*
X64884398Y-90484342D01*
X64884398Y-90484342D02*
X64884398Y-90198628D01*
X64884398Y-90198628D02*
X64932017Y-90103390D01*
X64932017Y-90103390D02*
X64979636Y-90055771D01*
X64979636Y-90055771D02*
X65074874Y-90008152D01*
X65074874Y-90008152D02*
X65265350Y-90008152D01*
X65265350Y-90008152D02*
X65360588Y-90055771D01*
X87919819Y-91288094D02*
X88729342Y-91288094D01*
X88729342Y-91288094D02*
X88824580Y-91240475D01*
X88824580Y-91240475D02*
X88872200Y-91192856D01*
X88872200Y-91192856D02*
X88919819Y-91097618D01*
X88919819Y-91097618D02*
X88919819Y-90907142D01*
X88919819Y-90907142D02*
X88872200Y-90811904D01*
X88872200Y-90811904D02*
X88824580Y-90764285D01*
X88824580Y-90764285D02*
X88729342Y-90716666D01*
X88729342Y-90716666D02*
X87919819Y-90716666D01*
X88919819Y-89716666D02*
X88919819Y-90288094D01*
X88919819Y-90002380D02*
X87919819Y-90002380D01*
X87919819Y-90002380D02*
X88062676Y-90097618D01*
X88062676Y-90097618D02*
X88157914Y-90192856D01*
X88157914Y-90192856D02*
X88205533Y-90288094D01*
X88919819Y-88764285D02*
X88919819Y-89335713D01*
X88919819Y-89049999D02*
X87919819Y-89049999D01*
X87919819Y-89049999D02*
X88062676Y-89145237D01*
X88062676Y-89145237D02*
X88157914Y-89240475D01*
X88157914Y-89240475D02*
X88205533Y-89335713D01*
X69504819Y-90958094D02*
X70314342Y-90958094D01*
X70314342Y-90958094D02*
X70409580Y-90910475D01*
X70409580Y-90910475D02*
X70457200Y-90862856D01*
X70457200Y-90862856D02*
X70504819Y-90767618D01*
X70504819Y-90767618D02*
X70504819Y-90577142D01*
X70504819Y-90577142D02*
X70457200Y-90481904D01*
X70457200Y-90481904D02*
X70409580Y-90434285D01*
X70409580Y-90434285D02*
X70314342Y-90386666D01*
X70314342Y-90386666D02*
X69504819Y-90386666D01*
X70504819Y-89386666D02*
X70504819Y-89958094D01*
X70504819Y-89672380D02*
X69504819Y-89672380D01*
X69504819Y-89672380D02*
X69647676Y-89767618D01*
X69647676Y-89767618D02*
X69742914Y-89862856D01*
X69742914Y-89862856D02*
X69790533Y-89958094D01*
X69504819Y-88767618D02*
X69504819Y-88672380D01*
X69504819Y-88672380D02*
X69552438Y-88577142D01*
X69552438Y-88577142D02*
X69600057Y-88529523D01*
X69600057Y-88529523D02*
X69695295Y-88481904D01*
X69695295Y-88481904D02*
X69885771Y-88434285D01*
X69885771Y-88434285D02*
X70123866Y-88434285D01*
X70123866Y-88434285D02*
X70314342Y-88481904D01*
X70314342Y-88481904D02*
X70409580Y-88529523D01*
X70409580Y-88529523D02*
X70457200Y-88577142D01*
X70457200Y-88577142D02*
X70504819Y-88672380D01*
X70504819Y-88672380D02*
X70504819Y-88767618D01*
X70504819Y-88767618D02*
X70457200Y-88862856D01*
X70457200Y-88862856D02*
X70409580Y-88910475D01*
X70409580Y-88910475D02*
X70314342Y-88958094D01*
X70314342Y-88958094D02*
X70123866Y-89005713D01*
X70123866Y-89005713D02*
X69885771Y-89005713D01*
X69885771Y-89005713D02*
X69695295Y-88958094D01*
X69695295Y-88958094D02*
X69600057Y-88910475D01*
X69600057Y-88910475D02*
X69552438Y-88862856D01*
X69552438Y-88862856D02*
X69504819Y-88767618D01*
X106038095Y-72679819D02*
X106038095Y-73489342D01*
X106038095Y-73489342D02*
X106085714Y-73584580D01*
X106085714Y-73584580D02*
X106133333Y-73632200D01*
X106133333Y-73632200D02*
X106228571Y-73679819D01*
X106228571Y-73679819D02*
X106419047Y-73679819D01*
X106419047Y-73679819D02*
X106514285Y-73632200D01*
X106514285Y-73632200D02*
X106561904Y-73584580D01*
X106561904Y-73584580D02*
X106609523Y-73489342D01*
X106609523Y-73489342D02*
X106609523Y-72679819D01*
X107228571Y-73108390D02*
X107133333Y-73060771D01*
X107133333Y-73060771D02*
X107085714Y-73013152D01*
X107085714Y-73013152D02*
X107038095Y-72917914D01*
X107038095Y-72917914D02*
X107038095Y-72870295D01*
X107038095Y-72870295D02*
X107085714Y-72775057D01*
X107085714Y-72775057D02*
X107133333Y-72727438D01*
X107133333Y-72727438D02*
X107228571Y-72679819D01*
X107228571Y-72679819D02*
X107419047Y-72679819D01*
X107419047Y-72679819D02*
X107514285Y-72727438D01*
X107514285Y-72727438D02*
X107561904Y-72775057D01*
X107561904Y-72775057D02*
X107609523Y-72870295D01*
X107609523Y-72870295D02*
X107609523Y-72917914D01*
X107609523Y-72917914D02*
X107561904Y-73013152D01*
X107561904Y-73013152D02*
X107514285Y-73060771D01*
X107514285Y-73060771D02*
X107419047Y-73108390D01*
X107419047Y-73108390D02*
X107228571Y-73108390D01*
X107228571Y-73108390D02*
X107133333Y-73156009D01*
X107133333Y-73156009D02*
X107085714Y-73203628D01*
X107085714Y-73203628D02*
X107038095Y-73298866D01*
X107038095Y-73298866D02*
X107038095Y-73489342D01*
X107038095Y-73489342D02*
X107085714Y-73584580D01*
X107085714Y-73584580D02*
X107133333Y-73632200D01*
X107133333Y-73632200D02*
X107228571Y-73679819D01*
X107228571Y-73679819D02*
X107419047Y-73679819D01*
X107419047Y-73679819D02*
X107514285Y-73632200D01*
X107514285Y-73632200D02*
X107561904Y-73584580D01*
X107561904Y-73584580D02*
X107609523Y-73489342D01*
X107609523Y-73489342D02*
X107609523Y-73298866D01*
X107609523Y-73298866D02*
X107561904Y-73203628D01*
X107561904Y-73203628D02*
X107514285Y-73156009D01*
X107514285Y-73156009D02*
X107419047Y-73108390D01*
X105733095Y-57439819D02*
X105733095Y-58249342D01*
X105733095Y-58249342D02*
X105780714Y-58344580D01*
X105780714Y-58344580D02*
X105828333Y-58392200D01*
X105828333Y-58392200D02*
X105923571Y-58439819D01*
X105923571Y-58439819D02*
X106114047Y-58439819D01*
X106114047Y-58439819D02*
X106209285Y-58392200D01*
X106209285Y-58392200D02*
X106256904Y-58344580D01*
X106256904Y-58344580D02*
X106304523Y-58249342D01*
X106304523Y-58249342D02*
X106304523Y-57439819D01*
X107209285Y-57439819D02*
X107018809Y-57439819D01*
X107018809Y-57439819D02*
X106923571Y-57487438D01*
X106923571Y-57487438D02*
X106875952Y-57535057D01*
X106875952Y-57535057D02*
X106780714Y-57677914D01*
X106780714Y-57677914D02*
X106733095Y-57868390D01*
X106733095Y-57868390D02*
X106733095Y-58249342D01*
X106733095Y-58249342D02*
X106780714Y-58344580D01*
X106780714Y-58344580D02*
X106828333Y-58392200D01*
X106828333Y-58392200D02*
X106923571Y-58439819D01*
X106923571Y-58439819D02*
X107114047Y-58439819D01*
X107114047Y-58439819D02*
X107209285Y-58392200D01*
X107209285Y-58392200D02*
X107256904Y-58344580D01*
X107256904Y-58344580D02*
X107304523Y-58249342D01*
X107304523Y-58249342D02*
X107304523Y-58011247D01*
X107304523Y-58011247D02*
X107256904Y-57916009D01*
X107256904Y-57916009D02*
X107209285Y-57868390D01*
X107209285Y-57868390D02*
X107114047Y-57820771D01*
X107114047Y-57820771D02*
X106923571Y-57820771D01*
X106923571Y-57820771D02*
X106828333Y-57868390D01*
X106828333Y-57868390D02*
X106780714Y-57916009D01*
X106780714Y-57916009D02*
X106733095Y-58011247D01*
X50704819Y-87156904D02*
X51514342Y-87156904D01*
X51514342Y-87156904D02*
X51609580Y-87109285D01*
X51609580Y-87109285D02*
X51657200Y-87061666D01*
X51657200Y-87061666D02*
X51704819Y-86966428D01*
X51704819Y-86966428D02*
X51704819Y-86775952D01*
X51704819Y-86775952D02*
X51657200Y-86680714D01*
X51657200Y-86680714D02*
X51609580Y-86633095D01*
X51609580Y-86633095D02*
X51514342Y-86585476D01*
X51514342Y-86585476D02*
X50704819Y-86585476D01*
X50704819Y-85633095D02*
X50704819Y-86109285D01*
X50704819Y-86109285D02*
X51181009Y-86156904D01*
X51181009Y-86156904D02*
X51133390Y-86109285D01*
X51133390Y-86109285D02*
X51085771Y-86014047D01*
X51085771Y-86014047D02*
X51085771Y-85775952D01*
X51085771Y-85775952D02*
X51133390Y-85680714D01*
X51133390Y-85680714D02*
X51181009Y-85633095D01*
X51181009Y-85633095D02*
X51276247Y-85585476D01*
X51276247Y-85585476D02*
X51514342Y-85585476D01*
X51514342Y-85585476D02*
X51609580Y-85633095D01*
X51609580Y-85633095D02*
X51657200Y-85680714D01*
X51657200Y-85680714D02*
X51704819Y-85775952D01*
X51704819Y-85775952D02*
X51704819Y-86014047D01*
X51704819Y-86014047D02*
X51657200Y-86109285D01*
X51657200Y-86109285D02*
X51609580Y-86156904D01*
X85649580Y-7899166D02*
X85697200Y-7946785D01*
X85697200Y-7946785D02*
X85744819Y-8089642D01*
X85744819Y-8089642D02*
X85744819Y-8184880D01*
X85744819Y-8184880D02*
X85697200Y-8327737D01*
X85697200Y-8327737D02*
X85601961Y-8422975D01*
X85601961Y-8422975D02*
X85506723Y-8470594D01*
X85506723Y-8470594D02*
X85316247Y-8518213D01*
X85316247Y-8518213D02*
X85173390Y-8518213D01*
X85173390Y-8518213D02*
X84982914Y-8470594D01*
X84982914Y-8470594D02*
X84887676Y-8422975D01*
X84887676Y-8422975D02*
X84792438Y-8327737D01*
X84792438Y-8327737D02*
X84744819Y-8184880D01*
X84744819Y-8184880D02*
X84744819Y-8089642D01*
X84744819Y-8089642D02*
X84792438Y-7946785D01*
X84792438Y-7946785D02*
X84840057Y-7899166D01*
X84744819Y-7565832D02*
X84744819Y-6946785D01*
X84744819Y-6946785D02*
X85125771Y-7280118D01*
X85125771Y-7280118D02*
X85125771Y-7137261D01*
X85125771Y-7137261D02*
X85173390Y-7042023D01*
X85173390Y-7042023D02*
X85221009Y-6994404D01*
X85221009Y-6994404D02*
X85316247Y-6946785D01*
X85316247Y-6946785D02*
X85554342Y-6946785D01*
X85554342Y-6946785D02*
X85649580Y-6994404D01*
X85649580Y-6994404D02*
X85697200Y-7042023D01*
X85697200Y-7042023D02*
X85744819Y-7137261D01*
X85744819Y-7137261D02*
X85744819Y-7422975D01*
X85744819Y-7422975D02*
X85697200Y-7518213D01*
X85697200Y-7518213D02*
X85649580Y-7565832D01*
X31023095Y-54474819D02*
X31023095Y-55284342D01*
X31023095Y-55284342D02*
X31070714Y-55379580D01*
X31070714Y-55379580D02*
X31118333Y-55427200D01*
X31118333Y-55427200D02*
X31213571Y-55474819D01*
X31213571Y-55474819D02*
X31404047Y-55474819D01*
X31404047Y-55474819D02*
X31499285Y-55427200D01*
X31499285Y-55427200D02*
X31546904Y-55379580D01*
X31546904Y-55379580D02*
X31594523Y-55284342D01*
X31594523Y-55284342D02*
X31594523Y-54474819D01*
X32118333Y-55474819D02*
X32308809Y-55474819D01*
X32308809Y-55474819D02*
X32404047Y-55427200D01*
X32404047Y-55427200D02*
X32451666Y-55379580D01*
X32451666Y-55379580D02*
X32546904Y-55236723D01*
X32546904Y-55236723D02*
X32594523Y-55046247D01*
X32594523Y-55046247D02*
X32594523Y-54665295D01*
X32594523Y-54665295D02*
X32546904Y-54570057D01*
X32546904Y-54570057D02*
X32499285Y-54522438D01*
X32499285Y-54522438D02*
X32404047Y-54474819D01*
X32404047Y-54474819D02*
X32213571Y-54474819D01*
X32213571Y-54474819D02*
X32118333Y-54522438D01*
X32118333Y-54522438D02*
X32070714Y-54570057D01*
X32070714Y-54570057D02*
X32023095Y-54665295D01*
X32023095Y-54665295D02*
X32023095Y-54903390D01*
X32023095Y-54903390D02*
X32070714Y-54998628D01*
X32070714Y-54998628D02*
X32118333Y-55046247D01*
X32118333Y-55046247D02*
X32213571Y-55093866D01*
X32213571Y-55093866D02*
X32404047Y-55093866D01*
X32404047Y-55093866D02*
X32499285Y-55046247D01*
X32499285Y-55046247D02*
X32546904Y-54998628D01*
X32546904Y-54998628D02*
X32594523Y-54903390D01*
X58293095Y-55969819D02*
X58293095Y-56779342D01*
X58293095Y-56779342D02*
X58340714Y-56874580D01*
X58340714Y-56874580D02*
X58388333Y-56922200D01*
X58388333Y-56922200D02*
X58483571Y-56969819D01*
X58483571Y-56969819D02*
X58674047Y-56969819D01*
X58674047Y-56969819D02*
X58769285Y-56922200D01*
X58769285Y-56922200D02*
X58816904Y-56874580D01*
X58816904Y-56874580D02*
X58864523Y-56779342D01*
X58864523Y-56779342D02*
X58864523Y-55969819D01*
X59245476Y-55969819D02*
X59912142Y-55969819D01*
X59912142Y-55969819D02*
X59483571Y-56969819D01*
X60144819Y-53005951D02*
X59144819Y-53005951D01*
X59621009Y-53005951D02*
X59621009Y-52434523D01*
X60144819Y-52434523D02*
X59144819Y-52434523D01*
X59144819Y-52053570D02*
X59144819Y-51434523D01*
X59144819Y-51434523D02*
X59525771Y-51767856D01*
X59525771Y-51767856D02*
X59525771Y-51624999D01*
X59525771Y-51624999D02*
X59573390Y-51529761D01*
X59573390Y-51529761D02*
X59621009Y-51482142D01*
X59621009Y-51482142D02*
X59716247Y-51434523D01*
X59716247Y-51434523D02*
X59954342Y-51434523D01*
X59954342Y-51434523D02*
X60049580Y-51482142D01*
X60049580Y-51482142D02*
X60097200Y-51529761D01*
X60097200Y-51529761D02*
X60144819Y-51624999D01*
X60144819Y-51624999D02*
X60144819Y-51910713D01*
X60144819Y-51910713D02*
X60097200Y-52005951D01*
X60097200Y-52005951D02*
X60049580Y-52053570D01*
X59763866Y-51005951D02*
X59763866Y-50244047D01*
X59144819Y-49339285D02*
X59144819Y-49529761D01*
X59144819Y-49529761D02*
X59192438Y-49624999D01*
X59192438Y-49624999D02*
X59240057Y-49672618D01*
X59240057Y-49672618D02*
X59382914Y-49767856D01*
X59382914Y-49767856D02*
X59573390Y-49815475D01*
X59573390Y-49815475D02*
X59954342Y-49815475D01*
X59954342Y-49815475D02*
X60049580Y-49767856D01*
X60049580Y-49767856D02*
X60097200Y-49720237D01*
X60097200Y-49720237D02*
X60144819Y-49624999D01*
X60144819Y-49624999D02*
X60144819Y-49434523D01*
X60144819Y-49434523D02*
X60097200Y-49339285D01*
X60097200Y-49339285D02*
X60049580Y-49291666D01*
X60049580Y-49291666D02*
X59954342Y-49244047D01*
X59954342Y-49244047D02*
X59716247Y-49244047D01*
X59716247Y-49244047D02*
X59621009Y-49291666D01*
X59621009Y-49291666D02*
X59573390Y-49339285D01*
X59573390Y-49339285D02*
X59525771Y-49434523D01*
X59525771Y-49434523D02*
X59525771Y-49624999D01*
X59525771Y-49624999D02*
X59573390Y-49720237D01*
X59573390Y-49720237D02*
X59621009Y-49767856D01*
X59621009Y-49767856D02*
X59716247Y-49815475D01*
X59144819Y-48339285D02*
X59144819Y-48815475D01*
X59144819Y-48815475D02*
X59621009Y-48863094D01*
X59621009Y-48863094D02*
X59573390Y-48815475D01*
X59573390Y-48815475D02*
X59525771Y-48720237D01*
X59525771Y-48720237D02*
X59525771Y-48482142D01*
X59525771Y-48482142D02*
X59573390Y-48386904D01*
X59573390Y-48386904D02*
X59621009Y-48339285D01*
X59621009Y-48339285D02*
X59716247Y-48291666D01*
X59716247Y-48291666D02*
X59954342Y-48291666D01*
X59954342Y-48291666D02*
X60049580Y-48339285D01*
X60049580Y-48339285D02*
X60097200Y-48386904D01*
X60097200Y-48386904D02*
X60144819Y-48482142D01*
X60144819Y-48482142D02*
X60144819Y-48720237D01*
X60144819Y-48720237D02*
X60097200Y-48815475D01*
X60097200Y-48815475D02*
X60049580Y-48863094D01*
X59144819Y-47958332D02*
X59144819Y-47291666D01*
X59144819Y-47291666D02*
X60144819Y-47720237D01*
X59144819Y-46434523D02*
X59144819Y-46910713D01*
X59144819Y-46910713D02*
X59621009Y-46958332D01*
X59621009Y-46958332D02*
X59573390Y-46910713D01*
X59573390Y-46910713D02*
X59525771Y-46815475D01*
X59525771Y-46815475D02*
X59525771Y-46577380D01*
X59525771Y-46577380D02*
X59573390Y-46482142D01*
X59573390Y-46482142D02*
X59621009Y-46434523D01*
X59621009Y-46434523D02*
X59716247Y-46386904D01*
X59716247Y-46386904D02*
X59954342Y-46386904D01*
X59954342Y-46386904D02*
X60049580Y-46434523D01*
X60049580Y-46434523D02*
X60097200Y-46482142D01*
X60097200Y-46482142D02*
X60144819Y-46577380D01*
X60144819Y-46577380D02*
X60144819Y-46815475D01*
X60144819Y-46815475D02*
X60097200Y-46910713D01*
X60097200Y-46910713D02*
X60049580Y-46958332D01*
X59144819Y-45529761D02*
X59144819Y-45720237D01*
X59144819Y-45720237D02*
X59192438Y-45815475D01*
X59192438Y-45815475D02*
X59240057Y-45863094D01*
X59240057Y-45863094D02*
X59382914Y-45958332D01*
X59382914Y-45958332D02*
X59573390Y-46005951D01*
X59573390Y-46005951D02*
X59954342Y-46005951D01*
X59954342Y-46005951D02*
X60049580Y-45958332D01*
X60049580Y-45958332D02*
X60097200Y-45910713D01*
X60097200Y-45910713D02*
X60144819Y-45815475D01*
X60144819Y-45815475D02*
X60144819Y-45624999D01*
X60144819Y-45624999D02*
X60097200Y-45529761D01*
X60097200Y-45529761D02*
X60049580Y-45482142D01*
X60049580Y-45482142D02*
X59954342Y-45434523D01*
X59954342Y-45434523D02*
X59716247Y-45434523D01*
X59716247Y-45434523D02*
X59621009Y-45482142D01*
X59621009Y-45482142D02*
X59573390Y-45529761D01*
X59573390Y-45529761D02*
X59525771Y-45624999D01*
X59525771Y-45624999D02*
X59525771Y-45815475D01*
X59525771Y-45815475D02*
X59573390Y-45910713D01*
X59573390Y-45910713D02*
X59621009Y-45958332D01*
X59621009Y-45958332D02*
X59716247Y-46005951D01*
X60144819Y-45005951D02*
X59144819Y-45005951D01*
X59621009Y-45005951D02*
X59621009Y-44434523D01*
X60144819Y-44434523D02*
X59144819Y-44434523D01*
X59763866Y-43958332D02*
X59763866Y-43196428D01*
X59144819Y-42244047D02*
X59144819Y-42720237D01*
X59144819Y-42720237D02*
X59621009Y-42767856D01*
X59621009Y-42767856D02*
X59573390Y-42720237D01*
X59573390Y-42720237D02*
X59525771Y-42624999D01*
X59525771Y-42624999D02*
X59525771Y-42386904D01*
X59525771Y-42386904D02*
X59573390Y-42291666D01*
X59573390Y-42291666D02*
X59621009Y-42244047D01*
X59621009Y-42244047D02*
X59716247Y-42196428D01*
X59716247Y-42196428D02*
X59954342Y-42196428D01*
X59954342Y-42196428D02*
X60049580Y-42244047D01*
X60049580Y-42244047D02*
X60097200Y-42291666D01*
X60097200Y-42291666D02*
X60144819Y-42386904D01*
X60144819Y-42386904D02*
X60144819Y-42624999D01*
X60144819Y-42624999D02*
X60097200Y-42720237D01*
X60097200Y-42720237D02*
X60049580Y-42767856D01*
D11*
X228536667Y-85499800D02*
X228679524Y-85547419D01*
X228679524Y-85547419D02*
X228917619Y-85547419D01*
X228917619Y-85547419D02*
X229012857Y-85499800D01*
X229012857Y-85499800D02*
X229060476Y-85452180D01*
X229060476Y-85452180D02*
X229108095Y-85356942D01*
X229108095Y-85356942D02*
X229108095Y-85261704D01*
X229108095Y-85261704D02*
X229060476Y-85166466D01*
X229060476Y-85166466D02*
X229012857Y-85118847D01*
X229012857Y-85118847D02*
X228917619Y-85071228D01*
X228917619Y-85071228D02*
X228727143Y-85023609D01*
X228727143Y-85023609D02*
X228631905Y-84975990D01*
X228631905Y-84975990D02*
X228584286Y-84928371D01*
X228584286Y-84928371D02*
X228536667Y-84833133D01*
X228536667Y-84833133D02*
X228536667Y-84737895D01*
X228536667Y-84737895D02*
X228584286Y-84642657D01*
X228584286Y-84642657D02*
X228631905Y-84595038D01*
X228631905Y-84595038D02*
X228727143Y-84547419D01*
X228727143Y-84547419D02*
X228965238Y-84547419D01*
X228965238Y-84547419D02*
X229108095Y-84595038D01*
X229441429Y-84547419D02*
X229679524Y-85547419D01*
X229679524Y-85547419D02*
X229870000Y-84833133D01*
X229870000Y-84833133D02*
X230060476Y-85547419D01*
X230060476Y-85547419D02*
X230298572Y-84547419D01*
X230631905Y-84642657D02*
X230679524Y-84595038D01*
X230679524Y-84595038D02*
X230774762Y-84547419D01*
X230774762Y-84547419D02*
X231012857Y-84547419D01*
X231012857Y-84547419D02*
X231108095Y-84595038D01*
X231108095Y-84595038D02*
X231155714Y-84642657D01*
X231155714Y-84642657D02*
X231203333Y-84737895D01*
X231203333Y-84737895D02*
X231203333Y-84833133D01*
X231203333Y-84833133D02*
X231155714Y-84975990D01*
X231155714Y-84975990D02*
X230584286Y-85547419D01*
X230584286Y-85547419D02*
X231203333Y-85547419D01*
D10*
X143329819Y-51293094D02*
X142329819Y-51293094D01*
X142329819Y-51293094D02*
X142329819Y-51054999D01*
X142329819Y-51054999D02*
X142377438Y-50912142D01*
X142377438Y-50912142D02*
X142472676Y-50816904D01*
X142472676Y-50816904D02*
X142567914Y-50769285D01*
X142567914Y-50769285D02*
X142758390Y-50721666D01*
X142758390Y-50721666D02*
X142901247Y-50721666D01*
X142901247Y-50721666D02*
X143091723Y-50769285D01*
X143091723Y-50769285D02*
X143186961Y-50816904D01*
X143186961Y-50816904D02*
X143282200Y-50912142D01*
X143282200Y-50912142D02*
X143329819Y-51054999D01*
X143329819Y-51054999D02*
X143329819Y-51293094D01*
X142329819Y-49864523D02*
X142329819Y-50054999D01*
X142329819Y-50054999D02*
X142377438Y-50150237D01*
X142377438Y-50150237D02*
X142425057Y-50197856D01*
X142425057Y-50197856D02*
X142567914Y-50293094D01*
X142567914Y-50293094D02*
X142758390Y-50340713D01*
X142758390Y-50340713D02*
X143139342Y-50340713D01*
X143139342Y-50340713D02*
X143234580Y-50293094D01*
X143234580Y-50293094D02*
X143282200Y-50245475D01*
X143282200Y-50245475D02*
X143329819Y-50150237D01*
X143329819Y-50150237D02*
X143329819Y-49959761D01*
X143329819Y-49959761D02*
X143282200Y-49864523D01*
X143282200Y-49864523D02*
X143234580Y-49816904D01*
X143234580Y-49816904D02*
X143139342Y-49769285D01*
X143139342Y-49769285D02*
X142901247Y-49769285D01*
X142901247Y-49769285D02*
X142806009Y-49816904D01*
X142806009Y-49816904D02*
X142758390Y-49864523D01*
X142758390Y-49864523D02*
X142710771Y-49959761D01*
X142710771Y-49959761D02*
X142710771Y-50150237D01*
X142710771Y-50150237D02*
X142758390Y-50245475D01*
X142758390Y-50245475D02*
X142806009Y-50293094D01*
X142806009Y-50293094D02*
X142901247Y-50340713D01*
X45593095Y-55969819D02*
X45593095Y-56779342D01*
X45593095Y-56779342D02*
X45640714Y-56874580D01*
X45640714Y-56874580D02*
X45688333Y-56922200D01*
X45688333Y-56922200D02*
X45783571Y-56969819D01*
X45783571Y-56969819D02*
X45974047Y-56969819D01*
X45974047Y-56969819D02*
X46069285Y-56922200D01*
X46069285Y-56922200D02*
X46116904Y-56874580D01*
X46116904Y-56874580D02*
X46164523Y-56779342D01*
X46164523Y-56779342D02*
X46164523Y-55969819D01*
X46593095Y-56065057D02*
X46640714Y-56017438D01*
X46640714Y-56017438D02*
X46735952Y-55969819D01*
X46735952Y-55969819D02*
X46974047Y-55969819D01*
X46974047Y-55969819D02*
X47069285Y-56017438D01*
X47069285Y-56017438D02*
X47116904Y-56065057D01*
X47116904Y-56065057D02*
X47164523Y-56160295D01*
X47164523Y-56160295D02*
X47164523Y-56255533D01*
X47164523Y-56255533D02*
X47116904Y-56398390D01*
X47116904Y-56398390D02*
X46545476Y-56969819D01*
X46545476Y-56969819D02*
X47164523Y-56969819D01*
X46809819Y-53005951D02*
X45809819Y-53005951D01*
X46286009Y-53005951D02*
X46286009Y-52434523D01*
X46809819Y-52434523D02*
X45809819Y-52434523D01*
X45809819Y-52053570D02*
X45809819Y-51434523D01*
X45809819Y-51434523D02*
X46190771Y-51767856D01*
X46190771Y-51767856D02*
X46190771Y-51624999D01*
X46190771Y-51624999D02*
X46238390Y-51529761D01*
X46238390Y-51529761D02*
X46286009Y-51482142D01*
X46286009Y-51482142D02*
X46381247Y-51434523D01*
X46381247Y-51434523D02*
X46619342Y-51434523D01*
X46619342Y-51434523D02*
X46714580Y-51482142D01*
X46714580Y-51482142D02*
X46762200Y-51529761D01*
X46762200Y-51529761D02*
X46809819Y-51624999D01*
X46809819Y-51624999D02*
X46809819Y-51910713D01*
X46809819Y-51910713D02*
X46762200Y-52005951D01*
X46762200Y-52005951D02*
X46714580Y-52053570D01*
X46428866Y-51005951D02*
X46428866Y-50244047D01*
X45809819Y-49339285D02*
X45809819Y-49529761D01*
X45809819Y-49529761D02*
X45857438Y-49624999D01*
X45857438Y-49624999D02*
X45905057Y-49672618D01*
X45905057Y-49672618D02*
X46047914Y-49767856D01*
X46047914Y-49767856D02*
X46238390Y-49815475D01*
X46238390Y-49815475D02*
X46619342Y-49815475D01*
X46619342Y-49815475D02*
X46714580Y-49767856D01*
X46714580Y-49767856D02*
X46762200Y-49720237D01*
X46762200Y-49720237D02*
X46809819Y-49624999D01*
X46809819Y-49624999D02*
X46809819Y-49434523D01*
X46809819Y-49434523D02*
X46762200Y-49339285D01*
X46762200Y-49339285D02*
X46714580Y-49291666D01*
X46714580Y-49291666D02*
X46619342Y-49244047D01*
X46619342Y-49244047D02*
X46381247Y-49244047D01*
X46381247Y-49244047D02*
X46286009Y-49291666D01*
X46286009Y-49291666D02*
X46238390Y-49339285D01*
X46238390Y-49339285D02*
X46190771Y-49434523D01*
X46190771Y-49434523D02*
X46190771Y-49624999D01*
X46190771Y-49624999D02*
X46238390Y-49720237D01*
X46238390Y-49720237D02*
X46286009Y-49767856D01*
X46286009Y-49767856D02*
X46381247Y-49815475D01*
X45809819Y-48339285D02*
X45809819Y-48815475D01*
X45809819Y-48815475D02*
X46286009Y-48863094D01*
X46286009Y-48863094D02*
X46238390Y-48815475D01*
X46238390Y-48815475D02*
X46190771Y-48720237D01*
X46190771Y-48720237D02*
X46190771Y-48482142D01*
X46190771Y-48482142D02*
X46238390Y-48386904D01*
X46238390Y-48386904D02*
X46286009Y-48339285D01*
X46286009Y-48339285D02*
X46381247Y-48291666D01*
X46381247Y-48291666D02*
X46619342Y-48291666D01*
X46619342Y-48291666D02*
X46714580Y-48339285D01*
X46714580Y-48339285D02*
X46762200Y-48386904D01*
X46762200Y-48386904D02*
X46809819Y-48482142D01*
X46809819Y-48482142D02*
X46809819Y-48720237D01*
X46809819Y-48720237D02*
X46762200Y-48815475D01*
X46762200Y-48815475D02*
X46714580Y-48863094D01*
X45809819Y-47958332D02*
X45809819Y-47291666D01*
X45809819Y-47291666D02*
X46809819Y-47720237D01*
X45809819Y-46434523D02*
X45809819Y-46910713D01*
X45809819Y-46910713D02*
X46286009Y-46958332D01*
X46286009Y-46958332D02*
X46238390Y-46910713D01*
X46238390Y-46910713D02*
X46190771Y-46815475D01*
X46190771Y-46815475D02*
X46190771Y-46577380D01*
X46190771Y-46577380D02*
X46238390Y-46482142D01*
X46238390Y-46482142D02*
X46286009Y-46434523D01*
X46286009Y-46434523D02*
X46381247Y-46386904D01*
X46381247Y-46386904D02*
X46619342Y-46386904D01*
X46619342Y-46386904D02*
X46714580Y-46434523D01*
X46714580Y-46434523D02*
X46762200Y-46482142D01*
X46762200Y-46482142D02*
X46809819Y-46577380D01*
X46809819Y-46577380D02*
X46809819Y-46815475D01*
X46809819Y-46815475D02*
X46762200Y-46910713D01*
X46762200Y-46910713D02*
X46714580Y-46958332D01*
X45809819Y-45529761D02*
X45809819Y-45720237D01*
X45809819Y-45720237D02*
X45857438Y-45815475D01*
X45857438Y-45815475D02*
X45905057Y-45863094D01*
X45905057Y-45863094D02*
X46047914Y-45958332D01*
X46047914Y-45958332D02*
X46238390Y-46005951D01*
X46238390Y-46005951D02*
X46619342Y-46005951D01*
X46619342Y-46005951D02*
X46714580Y-45958332D01*
X46714580Y-45958332D02*
X46762200Y-45910713D01*
X46762200Y-45910713D02*
X46809819Y-45815475D01*
X46809819Y-45815475D02*
X46809819Y-45624999D01*
X46809819Y-45624999D02*
X46762200Y-45529761D01*
X46762200Y-45529761D02*
X46714580Y-45482142D01*
X46714580Y-45482142D02*
X46619342Y-45434523D01*
X46619342Y-45434523D02*
X46381247Y-45434523D01*
X46381247Y-45434523D02*
X46286009Y-45482142D01*
X46286009Y-45482142D02*
X46238390Y-45529761D01*
X46238390Y-45529761D02*
X46190771Y-45624999D01*
X46190771Y-45624999D02*
X46190771Y-45815475D01*
X46190771Y-45815475D02*
X46238390Y-45910713D01*
X46238390Y-45910713D02*
X46286009Y-45958332D01*
X46286009Y-45958332D02*
X46381247Y-46005951D01*
X46809819Y-45005951D02*
X45809819Y-45005951D01*
X46286009Y-45005951D02*
X46286009Y-44434523D01*
X46809819Y-44434523D02*
X45809819Y-44434523D01*
X46428866Y-43958332D02*
X46428866Y-43196428D01*
X45809819Y-42244047D02*
X45809819Y-42720237D01*
X45809819Y-42720237D02*
X46286009Y-42767856D01*
X46286009Y-42767856D02*
X46238390Y-42720237D01*
X46238390Y-42720237D02*
X46190771Y-42624999D01*
X46190771Y-42624999D02*
X46190771Y-42386904D01*
X46190771Y-42386904D02*
X46238390Y-42291666D01*
X46238390Y-42291666D02*
X46286009Y-42244047D01*
X46286009Y-42244047D02*
X46381247Y-42196428D01*
X46381247Y-42196428D02*
X46619342Y-42196428D01*
X46619342Y-42196428D02*
X46714580Y-42244047D01*
X46714580Y-42244047D02*
X46762200Y-42291666D01*
X46762200Y-42291666D02*
X46809819Y-42386904D01*
X46809819Y-42386904D02*
X46809819Y-42624999D01*
X46809819Y-42624999D02*
X46762200Y-42720237D01*
X46762200Y-42720237D02*
X46714580Y-42767856D01*
X-3955206Y-75924580D02*
X-4002825Y-75972200D01*
X-4002825Y-75972200D02*
X-4145682Y-76019819D01*
X-4145682Y-76019819D02*
X-4240920Y-76019819D01*
X-4240920Y-76019819D02*
X-4383777Y-75972200D01*
X-4383777Y-75972200D02*
X-4479015Y-75876961D01*
X-4479015Y-75876961D02*
X-4526634Y-75781723D01*
X-4526634Y-75781723D02*
X-4574253Y-75591247D01*
X-4574253Y-75591247D02*
X-4574253Y-75448390D01*
X-4574253Y-75448390D02*
X-4526634Y-75257914D01*
X-4526634Y-75257914D02*
X-4479015Y-75162676D01*
X-4479015Y-75162676D02*
X-4383777Y-75067438D01*
X-4383777Y-75067438D02*
X-4240920Y-75019819D01*
X-4240920Y-75019819D02*
X-4145682Y-75019819D01*
X-4145682Y-75019819D02*
X-4002825Y-75067438D01*
X-4002825Y-75067438D02*
X-3955206Y-75115057D01*
X-3002825Y-76019819D02*
X-3574253Y-76019819D01*
X-3288539Y-76019819D02*
X-3288539Y-75019819D01*
X-3288539Y-75019819D02*
X-3383777Y-75162676D01*
X-3383777Y-75162676D02*
X-3479015Y-75257914D01*
X-3479015Y-75257914D02*
X-3574253Y-75305533D01*
X-2050444Y-76019819D02*
X-2621872Y-76019819D01*
X-2336158Y-76019819D02*
X-2336158Y-75019819D01*
X-2336158Y-75019819D02*
X-2431396Y-75162676D01*
X-2431396Y-75162676D02*
X-2526634Y-75257914D01*
X-2526634Y-75257914D02*
X-2621872Y-75305533D01*
X137620476Y-65264819D02*
X137620476Y-65979104D01*
X137620476Y-65979104D02*
X137572857Y-66121961D01*
X137572857Y-66121961D02*
X137477619Y-66217200D01*
X137477619Y-66217200D02*
X137334762Y-66264819D01*
X137334762Y-66264819D02*
X137239524Y-66264819D01*
X138620476Y-66264819D02*
X138049048Y-66264819D01*
X138334762Y-66264819D02*
X138334762Y-65264819D01*
X138334762Y-65264819D02*
X138239524Y-65407676D01*
X138239524Y-65407676D02*
X138144286Y-65502914D01*
X138144286Y-65502914D02*
X138049048Y-65550533D01*
X139572857Y-66264819D02*
X139001429Y-66264819D01*
X139287143Y-66264819D02*
X139287143Y-65264819D01*
X139287143Y-65264819D02*
X139191905Y-65407676D01*
X139191905Y-65407676D02*
X139096667Y-65502914D01*
X139096667Y-65502914D02*
X139001429Y-65550533D01*
X228346667Y-75627200D02*
X228489524Y-75674819D01*
X228489524Y-75674819D02*
X228727619Y-75674819D01*
X228727619Y-75674819D02*
X228822857Y-75627200D01*
X228822857Y-75627200D02*
X228870476Y-75579580D01*
X228870476Y-75579580D02*
X228918095Y-75484342D01*
X228918095Y-75484342D02*
X228918095Y-75389104D01*
X228918095Y-75389104D02*
X228870476Y-75293866D01*
X228870476Y-75293866D02*
X228822857Y-75246247D01*
X228822857Y-75246247D02*
X228727619Y-75198628D01*
X228727619Y-75198628D02*
X228537143Y-75151009D01*
X228537143Y-75151009D02*
X228441905Y-75103390D01*
X228441905Y-75103390D02*
X228394286Y-75055771D01*
X228394286Y-75055771D02*
X228346667Y-74960533D01*
X228346667Y-74960533D02*
X228346667Y-74865295D01*
X228346667Y-74865295D02*
X228394286Y-74770057D01*
X228394286Y-74770057D02*
X228441905Y-74722438D01*
X228441905Y-74722438D02*
X228537143Y-74674819D01*
X228537143Y-74674819D02*
X228775238Y-74674819D01*
X228775238Y-74674819D02*
X228918095Y-74722438D01*
X229251429Y-74674819D02*
X229489524Y-75674819D01*
X229489524Y-75674819D02*
X229680000Y-74960533D01*
X229680000Y-74960533D02*
X229870476Y-75674819D01*
X229870476Y-75674819D02*
X230108572Y-74674819D01*
X231013333Y-75674819D02*
X230441905Y-75674819D01*
X230727619Y-75674819D02*
X230727619Y-74674819D01*
X230727619Y-74674819D02*
X230632381Y-74817676D01*
X230632381Y-74817676D02*
X230537143Y-74912914D01*
X230537143Y-74912914D02*
X230441905Y-74960533D01*
X-46475180Y-65103333D02*
X-45760895Y-65103333D01*
X-45760895Y-65103333D02*
X-45618038Y-65150952D01*
X-45618038Y-65150952D02*
X-45522800Y-65246190D01*
X-45522800Y-65246190D02*
X-45475180Y-65389047D01*
X-45475180Y-65389047D02*
X-45475180Y-65484285D01*
X-46475180Y-64722380D02*
X-46475180Y-64055714D01*
X-46475180Y-64055714D02*
X-45475180Y-64484285D01*
X172034580Y-41282857D02*
X172082200Y-41330476D01*
X172082200Y-41330476D02*
X172129819Y-41473333D01*
X172129819Y-41473333D02*
X172129819Y-41568571D01*
X172129819Y-41568571D02*
X172082200Y-41711428D01*
X172082200Y-41711428D02*
X171986961Y-41806666D01*
X171986961Y-41806666D02*
X171891723Y-41854285D01*
X171891723Y-41854285D02*
X171701247Y-41901904D01*
X171701247Y-41901904D02*
X171558390Y-41901904D01*
X171558390Y-41901904D02*
X171367914Y-41854285D01*
X171367914Y-41854285D02*
X171272676Y-41806666D01*
X171272676Y-41806666D02*
X171177438Y-41711428D01*
X171177438Y-41711428D02*
X171129819Y-41568571D01*
X171129819Y-41568571D02*
X171129819Y-41473333D01*
X171129819Y-41473333D02*
X171177438Y-41330476D01*
X171177438Y-41330476D02*
X171225057Y-41282857D01*
X172129819Y-40330476D02*
X172129819Y-40901904D01*
X172129819Y-40616190D02*
X171129819Y-40616190D01*
X171129819Y-40616190D02*
X171272676Y-40711428D01*
X171272676Y-40711428D02*
X171367914Y-40806666D01*
X171367914Y-40806666D02*
X171415533Y-40901904D01*
X171463152Y-39473333D02*
X172129819Y-39473333D01*
X171082200Y-39711428D02*
X171796485Y-39949523D01*
X171796485Y-39949523D02*
X171796485Y-39330476D01*
X83693095Y-55969819D02*
X83693095Y-56779342D01*
X83693095Y-56779342D02*
X83740714Y-56874580D01*
X83740714Y-56874580D02*
X83788333Y-56922200D01*
X83788333Y-56922200D02*
X83883571Y-56969819D01*
X83883571Y-56969819D02*
X84074047Y-56969819D01*
X84074047Y-56969819D02*
X84169285Y-56922200D01*
X84169285Y-56922200D02*
X84216904Y-56874580D01*
X84216904Y-56874580D02*
X84264523Y-56779342D01*
X84264523Y-56779342D02*
X84264523Y-55969819D01*
X84645476Y-55969819D02*
X85264523Y-55969819D01*
X85264523Y-55969819D02*
X84931190Y-56350771D01*
X84931190Y-56350771D02*
X85074047Y-56350771D01*
X85074047Y-56350771D02*
X85169285Y-56398390D01*
X85169285Y-56398390D02*
X85216904Y-56446009D01*
X85216904Y-56446009D02*
X85264523Y-56541247D01*
X85264523Y-56541247D02*
X85264523Y-56779342D01*
X85264523Y-56779342D02*
X85216904Y-56874580D01*
X85216904Y-56874580D02*
X85169285Y-56922200D01*
X85169285Y-56922200D02*
X85074047Y-56969819D01*
X85074047Y-56969819D02*
X84788333Y-56969819D01*
X84788333Y-56969819D02*
X84693095Y-56922200D01*
X84693095Y-56922200D02*
X84645476Y-56874580D01*
X84640057Y-50315475D02*
X84592438Y-50267856D01*
X84592438Y-50267856D02*
X84544819Y-50172618D01*
X84544819Y-50172618D02*
X84544819Y-49934523D01*
X84544819Y-49934523D02*
X84592438Y-49839285D01*
X84592438Y-49839285D02*
X84640057Y-49791666D01*
X84640057Y-49791666D02*
X84735295Y-49744047D01*
X84735295Y-49744047D02*
X84830533Y-49744047D01*
X84830533Y-49744047D02*
X84973390Y-49791666D01*
X84973390Y-49791666D02*
X85544819Y-50363094D01*
X85544819Y-50363094D02*
X85544819Y-49744047D01*
X84544819Y-49410713D02*
X84544819Y-48744047D01*
X84544819Y-48744047D02*
X85544819Y-49172618D01*
X85449580Y-47791666D02*
X85497200Y-47839285D01*
X85497200Y-47839285D02*
X85544819Y-47982142D01*
X85544819Y-47982142D02*
X85544819Y-48077380D01*
X85544819Y-48077380D02*
X85497200Y-48220237D01*
X85497200Y-48220237D02*
X85401961Y-48315475D01*
X85401961Y-48315475D02*
X85306723Y-48363094D01*
X85306723Y-48363094D02*
X85116247Y-48410713D01*
X85116247Y-48410713D02*
X84973390Y-48410713D01*
X84973390Y-48410713D02*
X84782914Y-48363094D01*
X84782914Y-48363094D02*
X84687676Y-48315475D01*
X84687676Y-48315475D02*
X84592438Y-48220237D01*
X84592438Y-48220237D02*
X84544819Y-48077380D01*
X84544819Y-48077380D02*
X84544819Y-47982142D01*
X84544819Y-47982142D02*
X84592438Y-47839285D01*
X84592438Y-47839285D02*
X84640057Y-47791666D01*
X84544819Y-46886904D02*
X84544819Y-47363094D01*
X84544819Y-47363094D02*
X85021009Y-47410713D01*
X85021009Y-47410713D02*
X84973390Y-47363094D01*
X84973390Y-47363094D02*
X84925771Y-47267856D01*
X84925771Y-47267856D02*
X84925771Y-47029761D01*
X84925771Y-47029761D02*
X84973390Y-46934523D01*
X84973390Y-46934523D02*
X85021009Y-46886904D01*
X85021009Y-46886904D02*
X85116247Y-46839285D01*
X85116247Y-46839285D02*
X85354342Y-46839285D01*
X85354342Y-46839285D02*
X85449580Y-46886904D01*
X85449580Y-46886904D02*
X85497200Y-46934523D01*
X85497200Y-46934523D02*
X85544819Y-47029761D01*
X85544819Y-47029761D02*
X85544819Y-47267856D01*
X85544819Y-47267856D02*
X85497200Y-47363094D01*
X85497200Y-47363094D02*
X85449580Y-47410713D01*
X85544819Y-45886904D02*
X85544819Y-46458332D01*
X85544819Y-46172618D02*
X84544819Y-46172618D01*
X84544819Y-46172618D02*
X84687676Y-46267856D01*
X84687676Y-46267856D02*
X84782914Y-46363094D01*
X84782914Y-46363094D02*
X84830533Y-46458332D01*
X84640057Y-45505951D02*
X84592438Y-45458332D01*
X84592438Y-45458332D02*
X84544819Y-45363094D01*
X84544819Y-45363094D02*
X84544819Y-45124999D01*
X84544819Y-45124999D02*
X84592438Y-45029761D01*
X84592438Y-45029761D02*
X84640057Y-44982142D01*
X84640057Y-44982142D02*
X84735295Y-44934523D01*
X84735295Y-44934523D02*
X84830533Y-44934523D01*
X84830533Y-44934523D02*
X84973390Y-44982142D01*
X84973390Y-44982142D02*
X85544819Y-45553570D01*
X85544819Y-45553570D02*
X85544819Y-44934523D01*
X137674523Y-49674819D02*
X137341190Y-49198628D01*
X137103095Y-49674819D02*
X137103095Y-48674819D01*
X137103095Y-48674819D02*
X137484047Y-48674819D01*
X137484047Y-48674819D02*
X137579285Y-48722438D01*
X137579285Y-48722438D02*
X137626904Y-48770057D01*
X137626904Y-48770057D02*
X137674523Y-48865295D01*
X137674523Y-48865295D02*
X137674523Y-49008152D01*
X137674523Y-49008152D02*
X137626904Y-49103390D01*
X137626904Y-49103390D02*
X137579285Y-49151009D01*
X137579285Y-49151009D02*
X137484047Y-49198628D01*
X137484047Y-49198628D02*
X137103095Y-49198628D01*
X138103095Y-49674819D02*
X138103095Y-48674819D01*
X138103095Y-48674819D02*
X138674523Y-49674819D01*
X138674523Y-49674819D02*
X138674523Y-48674819D01*
X139103095Y-48770057D02*
X139150714Y-48722438D01*
X139150714Y-48722438D02*
X139245952Y-48674819D01*
X139245952Y-48674819D02*
X139484047Y-48674819D01*
X139484047Y-48674819D02*
X139579285Y-48722438D01*
X139579285Y-48722438D02*
X139626904Y-48770057D01*
X139626904Y-48770057D02*
X139674523Y-48865295D01*
X139674523Y-48865295D02*
X139674523Y-48960533D01*
X139674523Y-48960533D02*
X139626904Y-49103390D01*
X139626904Y-49103390D02*
X139055476Y-49674819D01*
X139055476Y-49674819D02*
X139674523Y-49674819D01*
X156035476Y-116929819D02*
X156035476Y-117644104D01*
X156035476Y-117644104D02*
X155987857Y-117786961D01*
X155987857Y-117786961D02*
X155892619Y-117882200D01*
X155892619Y-117882200D02*
X155749762Y-117929819D01*
X155749762Y-117929819D02*
X155654524Y-117929819D01*
X157035476Y-117929819D02*
X156464048Y-117929819D01*
X156749762Y-117929819D02*
X156749762Y-116929819D01*
X156749762Y-116929819D02*
X156654524Y-117072676D01*
X156654524Y-117072676D02*
X156559286Y-117167914D01*
X156559286Y-117167914D02*
X156464048Y-117215533D01*
X157654524Y-116929819D02*
X157749762Y-116929819D01*
X157749762Y-116929819D02*
X157845000Y-116977438D01*
X157845000Y-116977438D02*
X157892619Y-117025057D01*
X157892619Y-117025057D02*
X157940238Y-117120295D01*
X157940238Y-117120295D02*
X157987857Y-117310771D01*
X157987857Y-117310771D02*
X157987857Y-117548866D01*
X157987857Y-117548866D02*
X157940238Y-117739342D01*
X157940238Y-117739342D02*
X157892619Y-117834580D01*
X157892619Y-117834580D02*
X157845000Y-117882200D01*
X157845000Y-117882200D02*
X157749762Y-117929819D01*
X157749762Y-117929819D02*
X157654524Y-117929819D01*
X157654524Y-117929819D02*
X157559286Y-117882200D01*
X157559286Y-117882200D02*
X157511667Y-117834580D01*
X157511667Y-117834580D02*
X157464048Y-117739342D01*
X157464048Y-117739342D02*
X157416429Y-117548866D01*
X157416429Y-117548866D02*
X157416429Y-117310771D01*
X157416429Y-117310771D02*
X157464048Y-117120295D01*
X157464048Y-117120295D02*
X157511667Y-117025057D01*
X157511667Y-117025057D02*
X157559286Y-116977438D01*
X157559286Y-116977438D02*
X157654524Y-116929819D01*
X117419523Y-6684819D02*
X117086190Y-6208628D01*
X116848095Y-6684819D02*
X116848095Y-5684819D01*
X116848095Y-5684819D02*
X117229047Y-5684819D01*
X117229047Y-5684819D02*
X117324285Y-5732438D01*
X117324285Y-5732438D02*
X117371904Y-5780057D01*
X117371904Y-5780057D02*
X117419523Y-5875295D01*
X117419523Y-5875295D02*
X117419523Y-6018152D01*
X117419523Y-6018152D02*
X117371904Y-6113390D01*
X117371904Y-6113390D02*
X117324285Y-6161009D01*
X117324285Y-6161009D02*
X117229047Y-6208628D01*
X117229047Y-6208628D02*
X116848095Y-6208628D01*
X117848095Y-6684819D02*
X117848095Y-5684819D01*
X117848095Y-5684819D02*
X118419523Y-6684819D01*
X118419523Y-6684819D02*
X118419523Y-5684819D01*
X118800476Y-5684819D02*
X119419523Y-5684819D01*
X119419523Y-5684819D02*
X119086190Y-6065771D01*
X119086190Y-6065771D02*
X119229047Y-6065771D01*
X119229047Y-6065771D02*
X119324285Y-6113390D01*
X119324285Y-6113390D02*
X119371904Y-6161009D01*
X119371904Y-6161009D02*
X119419523Y-6256247D01*
X119419523Y-6256247D02*
X119419523Y-6494342D01*
X119419523Y-6494342D02*
X119371904Y-6589580D01*
X119371904Y-6589580D02*
X119324285Y-6637200D01*
X119324285Y-6637200D02*
X119229047Y-6684819D01*
X119229047Y-6684819D02*
X118943333Y-6684819D01*
X118943333Y-6684819D02*
X118848095Y-6637200D01*
X118848095Y-6637200D02*
X118800476Y-6589580D01*
X140789819Y-51293094D02*
X139789819Y-51293094D01*
X139789819Y-51293094D02*
X139789819Y-51054999D01*
X139789819Y-51054999D02*
X139837438Y-50912142D01*
X139837438Y-50912142D02*
X139932676Y-50816904D01*
X139932676Y-50816904D02*
X140027914Y-50769285D01*
X140027914Y-50769285D02*
X140218390Y-50721666D01*
X140218390Y-50721666D02*
X140361247Y-50721666D01*
X140361247Y-50721666D02*
X140551723Y-50769285D01*
X140551723Y-50769285D02*
X140646961Y-50816904D01*
X140646961Y-50816904D02*
X140742200Y-50912142D01*
X140742200Y-50912142D02*
X140789819Y-51054999D01*
X140789819Y-51054999D02*
X140789819Y-51293094D01*
X139789819Y-50388332D02*
X139789819Y-49721666D01*
X139789819Y-49721666D02*
X140789819Y-50150237D01*
X50749580Y-4209166D02*
X50797200Y-4256785D01*
X50797200Y-4256785D02*
X50844819Y-4399642D01*
X50844819Y-4399642D02*
X50844819Y-4494880D01*
X50844819Y-4494880D02*
X50797200Y-4637737D01*
X50797200Y-4637737D02*
X50701961Y-4732975D01*
X50701961Y-4732975D02*
X50606723Y-4780594D01*
X50606723Y-4780594D02*
X50416247Y-4828213D01*
X50416247Y-4828213D02*
X50273390Y-4828213D01*
X50273390Y-4828213D02*
X50082914Y-4780594D01*
X50082914Y-4780594D02*
X49987676Y-4732975D01*
X49987676Y-4732975D02*
X49892438Y-4637737D01*
X49892438Y-4637737D02*
X49844819Y-4494880D01*
X49844819Y-4494880D02*
X49844819Y-4399642D01*
X49844819Y-4399642D02*
X49892438Y-4256785D01*
X49892438Y-4256785D02*
X49940057Y-4209166D01*
X49844819Y-3304404D02*
X49844819Y-3780594D01*
X49844819Y-3780594D02*
X50321009Y-3828213D01*
X50321009Y-3828213D02*
X50273390Y-3780594D01*
X50273390Y-3780594D02*
X50225771Y-3685356D01*
X50225771Y-3685356D02*
X50225771Y-3447261D01*
X50225771Y-3447261D02*
X50273390Y-3352023D01*
X50273390Y-3352023D02*
X50321009Y-3304404D01*
X50321009Y-3304404D02*
X50416247Y-3256785D01*
X50416247Y-3256785D02*
X50654342Y-3256785D01*
X50654342Y-3256785D02*
X50749580Y-3304404D01*
X50749580Y-3304404D02*
X50797200Y-3352023D01*
X50797200Y-3352023D02*
X50844819Y-3447261D01*
X50844819Y-3447261D02*
X50844819Y-3685356D01*
X50844819Y-3685356D02*
X50797200Y-3780594D01*
X50797200Y-3780594D02*
X50749580Y-3828213D01*
X-53982857Y-40364580D02*
X-54030476Y-40412200D01*
X-54030476Y-40412200D02*
X-54173333Y-40459819D01*
X-54173333Y-40459819D02*
X-54268571Y-40459819D01*
X-54268571Y-40459819D02*
X-54411428Y-40412200D01*
X-54411428Y-40412200D02*
X-54506666Y-40316961D01*
X-54506666Y-40316961D02*
X-54554285Y-40221723D01*
X-54554285Y-40221723D02*
X-54601904Y-40031247D01*
X-54601904Y-40031247D02*
X-54601904Y-39888390D01*
X-54601904Y-39888390D02*
X-54554285Y-39697914D01*
X-54554285Y-39697914D02*
X-54506666Y-39602676D01*
X-54506666Y-39602676D02*
X-54411428Y-39507438D01*
X-54411428Y-39507438D02*
X-54268571Y-39459819D01*
X-54268571Y-39459819D02*
X-54173333Y-39459819D01*
X-54173333Y-39459819D02*
X-54030476Y-39507438D01*
X-54030476Y-39507438D02*
X-53982857Y-39555057D01*
X-53030476Y-40459819D02*
X-53601904Y-40459819D01*
X-53316190Y-40459819D02*
X-53316190Y-39459819D01*
X-53316190Y-39459819D02*
X-53411428Y-39602676D01*
X-53411428Y-39602676D02*
X-53506666Y-39697914D01*
X-53506666Y-39697914D02*
X-53601904Y-39745533D01*
X-52411428Y-39459819D02*
X-52316190Y-39459819D01*
X-52316190Y-39459819D02*
X-52220952Y-39507438D01*
X-52220952Y-39507438D02*
X-52173333Y-39555057D01*
X-52173333Y-39555057D02*
X-52125714Y-39650295D01*
X-52125714Y-39650295D02*
X-52078095Y-39840771D01*
X-52078095Y-39840771D02*
X-52078095Y-40078866D01*
X-52078095Y-40078866D02*
X-52125714Y-40269342D01*
X-52125714Y-40269342D02*
X-52173333Y-40364580D01*
X-52173333Y-40364580D02*
X-52220952Y-40412200D01*
X-52220952Y-40412200D02*
X-52316190Y-40459819D01*
X-52316190Y-40459819D02*
X-52411428Y-40459819D01*
X-52411428Y-40459819D02*
X-52506666Y-40412200D01*
X-52506666Y-40412200D02*
X-52554285Y-40364580D01*
X-52554285Y-40364580D02*
X-52601904Y-40269342D01*
X-52601904Y-40269342D02*
X-52649523Y-40078866D01*
X-52649523Y-40078866D02*
X-52649523Y-39840771D01*
X-52649523Y-39840771D02*
X-52601904Y-39650295D01*
X-52601904Y-39650295D02*
X-52554285Y-39555057D01*
X-52554285Y-39555057D02*
X-52506666Y-39507438D01*
X-52506666Y-39507438D02*
X-52411428Y-39459819D01*
X55507142Y-284580D02*
X55459523Y-332200D01*
X55459523Y-332200D02*
X55316666Y-379819D01*
X55316666Y-379819D02*
X55221428Y-379819D01*
X55221428Y-379819D02*
X55078571Y-332200D01*
X55078571Y-332200D02*
X54983333Y-236961D01*
X54983333Y-236961D02*
X54935714Y-141723D01*
X54935714Y-141723D02*
X54888095Y48752D01*
X54888095Y48752D02*
X54888095Y191609D01*
X54888095Y191609D02*
X54935714Y382085D01*
X54935714Y382085D02*
X54983333Y477323D01*
X54983333Y477323D02*
X55078571Y572561D01*
X55078571Y572561D02*
X55221428Y620180D01*
X55221428Y620180D02*
X55316666Y620180D01*
X55316666Y620180D02*
X55459523Y572561D01*
X55459523Y572561D02*
X55507142Y524942D01*
X56459523Y-379819D02*
X55888095Y-379819D01*
X56173809Y-379819D02*
X56173809Y620180D01*
X56173809Y620180D02*
X56078571Y477323D01*
X56078571Y477323D02*
X55983333Y382085D01*
X55983333Y382085D02*
X55888095Y334466D01*
X56840476Y524942D02*
X56888095Y572561D01*
X56888095Y572561D02*
X56983333Y620180D01*
X56983333Y620180D02*
X57221428Y620180D01*
X57221428Y620180D02*
X57316666Y572561D01*
X57316666Y572561D02*
X57364285Y524942D01*
X57364285Y524942D02*
X57411904Y429704D01*
X57411904Y429704D02*
X57411904Y334466D01*
X57411904Y334466D02*
X57364285Y191609D01*
X57364285Y191609D02*
X56792857Y-379819D01*
X56792857Y-379819D02*
X57411904Y-379819D01*
X103388095Y-50884819D02*
X103388095Y-51694342D01*
X103388095Y-51694342D02*
X103435714Y-51789580D01*
X103435714Y-51789580D02*
X103483333Y-51837200D01*
X103483333Y-51837200D02*
X103578571Y-51884819D01*
X103578571Y-51884819D02*
X103769047Y-51884819D01*
X103769047Y-51884819D02*
X103864285Y-51837200D01*
X103864285Y-51837200D02*
X103911904Y-51789580D01*
X103911904Y-51789580D02*
X103959523Y-51694342D01*
X103959523Y-51694342D02*
X103959523Y-50884819D01*
X104864285Y-51218152D02*
X104864285Y-51884819D01*
X104626190Y-50837200D02*
X104388095Y-51551485D01*
X104388095Y-51551485D02*
X105007142Y-51551485D01*
X104954104Y-47825952D02*
X104954104Y-47349762D01*
X105239819Y-47921190D02*
X104239819Y-47587857D01*
X104239819Y-47587857D02*
X105239819Y-47254524D01*
X104239819Y-47064047D02*
X104239819Y-46492619D01*
X105239819Y-46778333D02*
X104239819Y-46778333D01*
X104716009Y-45825952D02*
X104716009Y-46159285D01*
X105239819Y-46159285D02*
X104239819Y-46159285D01*
X104239819Y-46159285D02*
X104239819Y-45683095D01*
X104335057Y-45349761D02*
X104287438Y-45302142D01*
X104287438Y-45302142D02*
X104239819Y-45206904D01*
X104239819Y-45206904D02*
X104239819Y-44968809D01*
X104239819Y-44968809D02*
X104287438Y-44873571D01*
X104287438Y-44873571D02*
X104335057Y-44825952D01*
X104335057Y-44825952D02*
X104430295Y-44778333D01*
X104430295Y-44778333D02*
X104525533Y-44778333D01*
X104525533Y-44778333D02*
X104668390Y-44825952D01*
X104668390Y-44825952D02*
X105239819Y-45397380D01*
X105239819Y-45397380D02*
X105239819Y-44778333D01*
X104335057Y-44397380D02*
X104287438Y-44349761D01*
X104287438Y-44349761D02*
X104239819Y-44254523D01*
X104239819Y-44254523D02*
X104239819Y-44016428D01*
X104239819Y-44016428D02*
X104287438Y-43921190D01*
X104287438Y-43921190D02*
X104335057Y-43873571D01*
X104335057Y-43873571D02*
X104430295Y-43825952D01*
X104430295Y-43825952D02*
X104525533Y-43825952D01*
X104525533Y-43825952D02*
X104668390Y-43873571D01*
X104668390Y-43873571D02*
X105239819Y-44444999D01*
X105239819Y-44444999D02*
X105239819Y-43825952D01*
X104239819Y-43540237D02*
X105239819Y-43206904D01*
X105239819Y-43206904D02*
X104239819Y-42873571D01*
X105239819Y-42016428D02*
X105239819Y-42587856D01*
X105239819Y-42302142D02*
X104239819Y-42302142D01*
X104239819Y-42302142D02*
X104382676Y-42397380D01*
X104382676Y-42397380D02*
X104477914Y-42492618D01*
X104477914Y-42492618D02*
X104525533Y-42587856D01*
X104239819Y-41397380D02*
X104239819Y-41302142D01*
X104239819Y-41302142D02*
X104287438Y-41206904D01*
X104287438Y-41206904D02*
X104335057Y-41159285D01*
X104335057Y-41159285D02*
X104430295Y-41111666D01*
X104430295Y-41111666D02*
X104620771Y-41064047D01*
X104620771Y-41064047D02*
X104858866Y-41064047D01*
X104858866Y-41064047D02*
X105049342Y-41111666D01*
X105049342Y-41111666D02*
X105144580Y-41159285D01*
X105144580Y-41159285D02*
X105192200Y-41206904D01*
X105192200Y-41206904D02*
X105239819Y-41302142D01*
X105239819Y-41302142D02*
X105239819Y-41397380D01*
X105239819Y-41397380D02*
X105192200Y-41492618D01*
X105192200Y-41492618D02*
X105144580Y-41540237D01*
X105144580Y-41540237D02*
X105049342Y-41587856D01*
X105049342Y-41587856D02*
X104858866Y-41635475D01*
X104858866Y-41635475D02*
X104620771Y-41635475D01*
X104620771Y-41635475D02*
X104430295Y-41587856D01*
X104430295Y-41587856D02*
X104335057Y-41540237D01*
X104335057Y-41540237D02*
X104287438Y-41492618D01*
X104287438Y-41492618D02*
X104239819Y-41397380D01*
X153614523Y-49674819D02*
X153281190Y-49198628D01*
X153043095Y-49674819D02*
X153043095Y-48674819D01*
X153043095Y-48674819D02*
X153424047Y-48674819D01*
X153424047Y-48674819D02*
X153519285Y-48722438D01*
X153519285Y-48722438D02*
X153566904Y-48770057D01*
X153566904Y-48770057D02*
X153614523Y-48865295D01*
X153614523Y-48865295D02*
X153614523Y-49008152D01*
X153614523Y-49008152D02*
X153566904Y-49103390D01*
X153566904Y-49103390D02*
X153519285Y-49151009D01*
X153519285Y-49151009D02*
X153424047Y-49198628D01*
X153424047Y-49198628D02*
X153043095Y-49198628D01*
X154043095Y-49674819D02*
X154043095Y-48674819D01*
X154043095Y-48674819D02*
X154614523Y-49674819D01*
X154614523Y-49674819D02*
X154614523Y-48674819D01*
X155614523Y-49674819D02*
X155043095Y-49674819D01*
X155328809Y-49674819D02*
X155328809Y-48674819D01*
X155328809Y-48674819D02*
X155233571Y-48817676D01*
X155233571Y-48817676D02*
X155138333Y-48912914D01*
X155138333Y-48912914D02*
X155043095Y-48960533D01*
X119739580Y-10326666D02*
X119787200Y-10374285D01*
X119787200Y-10374285D02*
X119834819Y-10517142D01*
X119834819Y-10517142D02*
X119834819Y-10612380D01*
X119834819Y-10612380D02*
X119787200Y-10755237D01*
X119787200Y-10755237D02*
X119691961Y-10850475D01*
X119691961Y-10850475D02*
X119596723Y-10898094D01*
X119596723Y-10898094D02*
X119406247Y-10945713D01*
X119406247Y-10945713D02*
X119263390Y-10945713D01*
X119263390Y-10945713D02*
X119072914Y-10898094D01*
X119072914Y-10898094D02*
X118977676Y-10850475D01*
X118977676Y-10850475D02*
X118882438Y-10755237D01*
X118882438Y-10755237D02*
X118834819Y-10612380D01*
X118834819Y-10612380D02*
X118834819Y-10517142D01*
X118834819Y-10517142D02*
X118882438Y-10374285D01*
X118882438Y-10374285D02*
X118930057Y-10326666D01*
X119168152Y-9469523D02*
X119834819Y-9469523D01*
X118787200Y-9707618D02*
X119501485Y-9945713D01*
X119501485Y-9945713D02*
X119501485Y-9326666D01*
X218909580Y-56159166D02*
X218957200Y-56206785D01*
X218957200Y-56206785D02*
X219004819Y-56349642D01*
X219004819Y-56349642D02*
X219004819Y-56444880D01*
X219004819Y-56444880D02*
X218957200Y-56587737D01*
X218957200Y-56587737D02*
X218861961Y-56682975D01*
X218861961Y-56682975D02*
X218766723Y-56730594D01*
X218766723Y-56730594D02*
X218576247Y-56778213D01*
X218576247Y-56778213D02*
X218433390Y-56778213D01*
X218433390Y-56778213D02*
X218242914Y-56730594D01*
X218242914Y-56730594D02*
X218147676Y-56682975D01*
X218147676Y-56682975D02*
X218052438Y-56587737D01*
X218052438Y-56587737D02*
X218004819Y-56444880D01*
X218004819Y-56444880D02*
X218004819Y-56349642D01*
X218004819Y-56349642D02*
X218052438Y-56206785D01*
X218052438Y-56206785D02*
X218100057Y-56159166D01*
X219004819Y-55682975D02*
X219004819Y-55492499D01*
X219004819Y-55492499D02*
X218957200Y-55397261D01*
X218957200Y-55397261D02*
X218909580Y-55349642D01*
X218909580Y-55349642D02*
X218766723Y-55254404D01*
X218766723Y-55254404D02*
X218576247Y-55206785D01*
X218576247Y-55206785D02*
X218195295Y-55206785D01*
X218195295Y-55206785D02*
X218100057Y-55254404D01*
X218100057Y-55254404D02*
X218052438Y-55302023D01*
X218052438Y-55302023D02*
X218004819Y-55397261D01*
X218004819Y-55397261D02*
X218004819Y-55587737D01*
X218004819Y-55587737D02*
X218052438Y-55682975D01*
X218052438Y-55682975D02*
X218100057Y-55730594D01*
X218100057Y-55730594D02*
X218195295Y-55778213D01*
X218195295Y-55778213D02*
X218433390Y-55778213D01*
X218433390Y-55778213D02*
X218528628Y-55730594D01*
X218528628Y-55730594D02*
X218576247Y-55682975D01*
X218576247Y-55682975D02*
X218623866Y-55587737D01*
X218623866Y-55587737D02*
X218623866Y-55397261D01*
X218623866Y-55397261D02*
X218576247Y-55302023D01*
X218576247Y-55302023D02*
X218528628Y-55254404D01*
X218528628Y-55254404D02*
X218433390Y-55206785D01*
X65989580Y-4209166D02*
X66037200Y-4256785D01*
X66037200Y-4256785D02*
X66084819Y-4399642D01*
X66084819Y-4399642D02*
X66084819Y-4494880D01*
X66084819Y-4494880D02*
X66037200Y-4637737D01*
X66037200Y-4637737D02*
X65941961Y-4732975D01*
X65941961Y-4732975D02*
X65846723Y-4780594D01*
X65846723Y-4780594D02*
X65656247Y-4828213D01*
X65656247Y-4828213D02*
X65513390Y-4828213D01*
X65513390Y-4828213D02*
X65322914Y-4780594D01*
X65322914Y-4780594D02*
X65227676Y-4732975D01*
X65227676Y-4732975D02*
X65132438Y-4637737D01*
X65132438Y-4637737D02*
X65084819Y-4494880D01*
X65084819Y-4494880D02*
X65084819Y-4399642D01*
X65084819Y-4399642D02*
X65132438Y-4256785D01*
X65132438Y-4256785D02*
X65180057Y-4209166D01*
X65084819Y-3352023D02*
X65084819Y-3542499D01*
X65084819Y-3542499D02*
X65132438Y-3637737D01*
X65132438Y-3637737D02*
X65180057Y-3685356D01*
X65180057Y-3685356D02*
X65322914Y-3780594D01*
X65322914Y-3780594D02*
X65513390Y-3828213D01*
X65513390Y-3828213D02*
X65894342Y-3828213D01*
X65894342Y-3828213D02*
X65989580Y-3780594D01*
X65989580Y-3780594D02*
X66037200Y-3732975D01*
X66037200Y-3732975D02*
X66084819Y-3637737D01*
X66084819Y-3637737D02*
X66084819Y-3447261D01*
X66084819Y-3447261D02*
X66037200Y-3352023D01*
X66037200Y-3352023D02*
X65989580Y-3304404D01*
X65989580Y-3304404D02*
X65894342Y-3256785D01*
X65894342Y-3256785D02*
X65656247Y-3256785D01*
X65656247Y-3256785D02*
X65561009Y-3304404D01*
X65561009Y-3304404D02*
X65513390Y-3352023D01*
X65513390Y-3352023D02*
X65465771Y-3447261D01*
X65465771Y-3447261D02*
X65465771Y-3637737D01*
X65465771Y-3637737D02*
X65513390Y-3732975D01*
X65513390Y-3732975D02*
X65561009Y-3780594D01*
X65561009Y-3780594D02*
X65656247Y-3828213D01*
X-37901666Y-68654819D02*
X-38234999Y-68178628D01*
X-38473094Y-68654819D02*
X-38473094Y-67654819D01*
X-38473094Y-67654819D02*
X-38092142Y-67654819D01*
X-38092142Y-67654819D02*
X-37996904Y-67702438D01*
X-37996904Y-67702438D02*
X-37949285Y-67750057D01*
X-37949285Y-67750057D02*
X-37901666Y-67845295D01*
X-37901666Y-67845295D02*
X-37901666Y-67988152D01*
X-37901666Y-67988152D02*
X-37949285Y-68083390D01*
X-37949285Y-68083390D02*
X-37996904Y-68131009D01*
X-37996904Y-68131009D02*
X-38092142Y-68178628D01*
X-38092142Y-68178628D02*
X-38473094Y-68178628D01*
X-37044523Y-67988152D02*
X-37044523Y-68654819D01*
X-37282618Y-67607200D02*
X-37520713Y-68321485D01*
X-37520713Y-68321485D02*
X-36901666Y-68321485D01*
X215618333Y-76109819D02*
X215285000Y-75633628D01*
X215046905Y-76109819D02*
X215046905Y-75109819D01*
X215046905Y-75109819D02*
X215427857Y-75109819D01*
X215427857Y-75109819D02*
X215523095Y-75157438D01*
X215523095Y-75157438D02*
X215570714Y-75205057D01*
X215570714Y-75205057D02*
X215618333Y-75300295D01*
X215618333Y-75300295D02*
X215618333Y-75443152D01*
X215618333Y-75443152D02*
X215570714Y-75538390D01*
X215570714Y-75538390D02*
X215523095Y-75586009D01*
X215523095Y-75586009D02*
X215427857Y-75633628D01*
X215427857Y-75633628D02*
X215046905Y-75633628D01*
X216570714Y-76109819D02*
X215999286Y-76109819D01*
X216285000Y-76109819D02*
X216285000Y-75109819D01*
X216285000Y-75109819D02*
X216189762Y-75252676D01*
X216189762Y-75252676D02*
X216094524Y-75347914D01*
X216094524Y-75347914D02*
X215999286Y-75395533D01*
X151195833Y-65764580D02*
X151148214Y-65812200D01*
X151148214Y-65812200D02*
X151005357Y-65859819D01*
X151005357Y-65859819D02*
X150910119Y-65859819D01*
X150910119Y-65859819D02*
X150767262Y-65812200D01*
X150767262Y-65812200D02*
X150672024Y-65716961D01*
X150672024Y-65716961D02*
X150624405Y-65621723D01*
X150624405Y-65621723D02*
X150576786Y-65431247D01*
X150576786Y-65431247D02*
X150576786Y-65288390D01*
X150576786Y-65288390D02*
X150624405Y-65097914D01*
X150624405Y-65097914D02*
X150672024Y-65002676D01*
X150672024Y-65002676D02*
X150767262Y-64907438D01*
X150767262Y-64907438D02*
X150910119Y-64859819D01*
X150910119Y-64859819D02*
X151005357Y-64859819D01*
X151005357Y-64859819D02*
X151148214Y-64907438D01*
X151148214Y-64907438D02*
X151195833Y-64955057D01*
X151767262Y-65288390D02*
X151672024Y-65240771D01*
X151672024Y-65240771D02*
X151624405Y-65193152D01*
X151624405Y-65193152D02*
X151576786Y-65097914D01*
X151576786Y-65097914D02*
X151576786Y-65050295D01*
X151576786Y-65050295D02*
X151624405Y-64955057D01*
X151624405Y-64955057D02*
X151672024Y-64907438D01*
X151672024Y-64907438D02*
X151767262Y-64859819D01*
X151767262Y-64859819D02*
X151957738Y-64859819D01*
X151957738Y-64859819D02*
X152052976Y-64907438D01*
X152052976Y-64907438D02*
X152100595Y-64955057D01*
X152100595Y-64955057D02*
X152148214Y-65050295D01*
X152148214Y-65050295D02*
X152148214Y-65097914D01*
X152148214Y-65097914D02*
X152100595Y-65193152D01*
X152100595Y-65193152D02*
X152052976Y-65240771D01*
X152052976Y-65240771D02*
X151957738Y-65288390D01*
X151957738Y-65288390D02*
X151767262Y-65288390D01*
X151767262Y-65288390D02*
X151672024Y-65336009D01*
X151672024Y-65336009D02*
X151624405Y-65383628D01*
X151624405Y-65383628D02*
X151576786Y-65478866D01*
X151576786Y-65478866D02*
X151576786Y-65669342D01*
X151576786Y-65669342D02*
X151624405Y-65764580D01*
X151624405Y-65764580D02*
X151672024Y-65812200D01*
X151672024Y-65812200D02*
X151767262Y-65859819D01*
X151767262Y-65859819D02*
X151957738Y-65859819D01*
X151957738Y-65859819D02*
X152052976Y-65812200D01*
X152052976Y-65812200D02*
X152100595Y-65764580D01*
X152100595Y-65764580D02*
X152148214Y-65669342D01*
X152148214Y-65669342D02*
X152148214Y-65478866D01*
X152148214Y-65478866D02*
X152100595Y-65383628D01*
X152100595Y-65383628D02*
X152052976Y-65336009D01*
X152052976Y-65336009D02*
X151957738Y-65288390D01*
X153489819Y-51293094D02*
X152489819Y-51293094D01*
X152489819Y-51293094D02*
X152489819Y-51054999D01*
X152489819Y-51054999D02*
X152537438Y-50912142D01*
X152537438Y-50912142D02*
X152632676Y-50816904D01*
X152632676Y-50816904D02*
X152727914Y-50769285D01*
X152727914Y-50769285D02*
X152918390Y-50721666D01*
X152918390Y-50721666D02*
X153061247Y-50721666D01*
X153061247Y-50721666D02*
X153251723Y-50769285D01*
X153251723Y-50769285D02*
X153346961Y-50816904D01*
X153346961Y-50816904D02*
X153442200Y-50912142D01*
X153442200Y-50912142D02*
X153489819Y-51054999D01*
X153489819Y-51054999D02*
X153489819Y-51293094D01*
X152585057Y-50340713D02*
X152537438Y-50293094D01*
X152537438Y-50293094D02*
X152489819Y-50197856D01*
X152489819Y-50197856D02*
X152489819Y-49959761D01*
X152489819Y-49959761D02*
X152537438Y-49864523D01*
X152537438Y-49864523D02*
X152585057Y-49816904D01*
X152585057Y-49816904D02*
X152680295Y-49769285D01*
X152680295Y-49769285D02*
X152775533Y-49769285D01*
X152775533Y-49769285D02*
X152918390Y-49816904D01*
X152918390Y-49816904D02*
X153489819Y-50388332D01*
X153489819Y-50388332D02*
X153489819Y-49769285D01*
X-35680180Y-79073333D02*
X-34965895Y-79073333D01*
X-34965895Y-79073333D02*
X-34823038Y-79120952D01*
X-34823038Y-79120952D02*
X-34727800Y-79216190D01*
X-34727800Y-79216190D02*
X-34680180Y-79359047D01*
X-34680180Y-79359047D02*
X-34680180Y-79454285D01*
X-35251609Y-78454285D02*
X-35299228Y-78549523D01*
X-35299228Y-78549523D02*
X-35346847Y-78597142D01*
X-35346847Y-78597142D02*
X-35442085Y-78644761D01*
X-35442085Y-78644761D02*
X-35489704Y-78644761D01*
X-35489704Y-78644761D02*
X-35584942Y-78597142D01*
X-35584942Y-78597142D02*
X-35632561Y-78549523D01*
X-35632561Y-78549523D02*
X-35680180Y-78454285D01*
X-35680180Y-78454285D02*
X-35680180Y-78263809D01*
X-35680180Y-78263809D02*
X-35632561Y-78168571D01*
X-35632561Y-78168571D02*
X-35584942Y-78120952D01*
X-35584942Y-78120952D02*
X-35489704Y-78073333D01*
X-35489704Y-78073333D02*
X-35442085Y-78073333D01*
X-35442085Y-78073333D02*
X-35346847Y-78120952D01*
X-35346847Y-78120952D02*
X-35299228Y-78168571D01*
X-35299228Y-78168571D02*
X-35251609Y-78263809D01*
X-35251609Y-78263809D02*
X-35251609Y-78454285D01*
X-35251609Y-78454285D02*
X-35203990Y-78549523D01*
X-35203990Y-78549523D02*
X-35156371Y-78597142D01*
X-35156371Y-78597142D02*
X-35061133Y-78644761D01*
X-35061133Y-78644761D02*
X-34870657Y-78644761D01*
X-34870657Y-78644761D02*
X-34775419Y-78597142D01*
X-34775419Y-78597142D02*
X-34727800Y-78549523D01*
X-34727800Y-78549523D02*
X-34680180Y-78454285D01*
X-34680180Y-78454285D02*
X-34680180Y-78263809D01*
X-34680180Y-78263809D02*
X-34727800Y-78168571D01*
X-34727800Y-78168571D02*
X-34775419Y-78120952D01*
X-34775419Y-78120952D02*
X-34870657Y-78073333D01*
X-34870657Y-78073333D02*
X-35061133Y-78073333D01*
X-35061133Y-78073333D02*
X-35156371Y-78120952D01*
X-35156371Y-78120952D02*
X-35203990Y-78168571D01*
X-35203990Y-78168571D02*
X-35251609Y-78263809D01*
X-43045419Y-91606666D02*
X-42997800Y-91654285D01*
X-42997800Y-91654285D02*
X-42950180Y-91797142D01*
X-42950180Y-91797142D02*
X-42950180Y-91892380D01*
X-42950180Y-91892380D02*
X-42997800Y-92035237D01*
X-42997800Y-92035237D02*
X-43093038Y-92130475D01*
X-43093038Y-92130475D02*
X-43188276Y-92178094D01*
X-43188276Y-92178094D02*
X-43378752Y-92225713D01*
X-43378752Y-92225713D02*
X-43521609Y-92225713D01*
X-43521609Y-92225713D02*
X-43712085Y-92178094D01*
X-43712085Y-92178094D02*
X-43807323Y-92130475D01*
X-43807323Y-92130475D02*
X-43902561Y-92035237D01*
X-43902561Y-92035237D02*
X-43950180Y-91892380D01*
X-43950180Y-91892380D02*
X-43950180Y-91797142D01*
X-43950180Y-91797142D02*
X-43902561Y-91654285D01*
X-43902561Y-91654285D02*
X-43854942Y-91606666D01*
X-43950180Y-91273332D02*
X-43950180Y-90606666D01*
X-43950180Y-90606666D02*
X-42950180Y-91035237D01*
X46019819Y-69341904D02*
X46829342Y-69341904D01*
X46829342Y-69341904D02*
X46924580Y-69294285D01*
X46924580Y-69294285D02*
X46972200Y-69246666D01*
X46972200Y-69246666D02*
X47019819Y-69151428D01*
X47019819Y-69151428D02*
X47019819Y-68960952D01*
X47019819Y-68960952D02*
X46972200Y-68865714D01*
X46972200Y-68865714D02*
X46924580Y-68818095D01*
X46924580Y-68818095D02*
X46829342Y-68770476D01*
X46829342Y-68770476D02*
X46019819Y-68770476D01*
X47019819Y-67770476D02*
X47019819Y-68341904D01*
X47019819Y-68056190D02*
X46019819Y-68056190D01*
X46019819Y-68056190D02*
X46162676Y-68151428D01*
X46162676Y-68151428D02*
X46257914Y-68246666D01*
X46257914Y-68246666D02*
X46305533Y-68341904D01*
X54840714Y-68034819D02*
X55078809Y-69034819D01*
X55078809Y-69034819D02*
X55269285Y-68320533D01*
X55269285Y-68320533D02*
X55459761Y-69034819D01*
X55459761Y-69034819D02*
X55697857Y-68034819D01*
X56507380Y-68034819D02*
X56316904Y-68034819D01*
X56316904Y-68034819D02*
X56221666Y-68082438D01*
X56221666Y-68082438D02*
X56174047Y-68130057D01*
X56174047Y-68130057D02*
X56078809Y-68272914D01*
X56078809Y-68272914D02*
X56031190Y-68463390D01*
X56031190Y-68463390D02*
X56031190Y-68844342D01*
X56031190Y-68844342D02*
X56078809Y-68939580D01*
X56078809Y-68939580D02*
X56126428Y-68987200D01*
X56126428Y-68987200D02*
X56221666Y-69034819D01*
X56221666Y-69034819D02*
X56412142Y-69034819D01*
X56412142Y-69034819D02*
X56507380Y-68987200D01*
X56507380Y-68987200D02*
X56554999Y-68939580D01*
X56554999Y-68939580D02*
X56602618Y-68844342D01*
X56602618Y-68844342D02*
X56602618Y-68606247D01*
X56602618Y-68606247D02*
X56554999Y-68511009D01*
X56554999Y-68511009D02*
X56507380Y-68463390D01*
X56507380Y-68463390D02*
X56412142Y-68415771D01*
X56412142Y-68415771D02*
X56221666Y-68415771D01*
X56221666Y-68415771D02*
X56126428Y-68463390D01*
X56126428Y-68463390D02*
X56078809Y-68511009D01*
X56078809Y-68511009D02*
X56031190Y-68606247D01*
X57507380Y-68034819D02*
X57031190Y-68034819D01*
X57031190Y-68034819D02*
X56983571Y-68511009D01*
X56983571Y-68511009D02*
X57031190Y-68463390D01*
X57031190Y-68463390D02*
X57126428Y-68415771D01*
X57126428Y-68415771D02*
X57364523Y-68415771D01*
X57364523Y-68415771D02*
X57459761Y-68463390D01*
X57459761Y-68463390D02*
X57507380Y-68511009D01*
X57507380Y-68511009D02*
X57554999Y-68606247D01*
X57554999Y-68606247D02*
X57554999Y-68844342D01*
X57554999Y-68844342D02*
X57507380Y-68939580D01*
X57507380Y-68939580D02*
X57459761Y-68987200D01*
X57459761Y-68987200D02*
X57364523Y-69034819D01*
X57364523Y-69034819D02*
X57126428Y-69034819D01*
X57126428Y-69034819D02*
X57031190Y-68987200D01*
X57031190Y-68987200D02*
X56983571Y-68939580D01*
X58554999Y-68939580D02*
X58507380Y-68987200D01*
X58507380Y-68987200D02*
X58364523Y-69034819D01*
X58364523Y-69034819D02*
X58269285Y-69034819D01*
X58269285Y-69034819D02*
X58126428Y-68987200D01*
X58126428Y-68987200D02*
X58031190Y-68891961D01*
X58031190Y-68891961D02*
X57983571Y-68796723D01*
X57983571Y-68796723D02*
X57935952Y-68606247D01*
X57935952Y-68606247D02*
X57935952Y-68463390D01*
X57935952Y-68463390D02*
X57983571Y-68272914D01*
X57983571Y-68272914D02*
X58031190Y-68177676D01*
X58031190Y-68177676D02*
X58126428Y-68082438D01*
X58126428Y-68082438D02*
X58269285Y-68034819D01*
X58269285Y-68034819D02*
X58364523Y-68034819D01*
X58364523Y-68034819D02*
X58507380Y-68082438D01*
X58507380Y-68082438D02*
X58554999Y-68130057D01*
X59174047Y-68034819D02*
X59269285Y-68034819D01*
X59269285Y-68034819D02*
X59364523Y-68082438D01*
X59364523Y-68082438D02*
X59412142Y-68130057D01*
X59412142Y-68130057D02*
X59459761Y-68225295D01*
X59459761Y-68225295D02*
X59507380Y-68415771D01*
X59507380Y-68415771D02*
X59507380Y-68653866D01*
X59507380Y-68653866D02*
X59459761Y-68844342D01*
X59459761Y-68844342D02*
X59412142Y-68939580D01*
X59412142Y-68939580D02*
X59364523Y-68987200D01*
X59364523Y-68987200D02*
X59269285Y-69034819D01*
X59269285Y-69034819D02*
X59174047Y-69034819D01*
X59174047Y-69034819D02*
X59078809Y-68987200D01*
X59078809Y-68987200D02*
X59031190Y-68939580D01*
X59031190Y-68939580D02*
X58983571Y-68844342D01*
X58983571Y-68844342D02*
X58935952Y-68653866D01*
X58935952Y-68653866D02*
X58935952Y-68415771D01*
X58935952Y-68415771D02*
X58983571Y-68225295D01*
X58983571Y-68225295D02*
X59031190Y-68130057D01*
X59031190Y-68130057D02*
X59078809Y-68082438D01*
X59078809Y-68082438D02*
X59174047Y-68034819D01*
X59888333Y-68130057D02*
X59935952Y-68082438D01*
X59935952Y-68082438D02*
X60031190Y-68034819D01*
X60031190Y-68034819D02*
X60269285Y-68034819D01*
X60269285Y-68034819D02*
X60364523Y-68082438D01*
X60364523Y-68082438D02*
X60412142Y-68130057D01*
X60412142Y-68130057D02*
X60459761Y-68225295D01*
X60459761Y-68225295D02*
X60459761Y-68320533D01*
X60459761Y-68320533D02*
X60412142Y-68463390D01*
X60412142Y-68463390D02*
X59840714Y-69034819D01*
X59840714Y-69034819D02*
X60459761Y-69034819D01*
X60840714Y-68987200D02*
X60983571Y-69034819D01*
X60983571Y-69034819D02*
X61221666Y-69034819D01*
X61221666Y-69034819D02*
X61316904Y-68987200D01*
X61316904Y-68987200D02*
X61364523Y-68939580D01*
X61364523Y-68939580D02*
X61412142Y-68844342D01*
X61412142Y-68844342D02*
X61412142Y-68749104D01*
X61412142Y-68749104D02*
X61364523Y-68653866D01*
X61364523Y-68653866D02*
X61316904Y-68606247D01*
X61316904Y-68606247D02*
X61221666Y-68558628D01*
X61221666Y-68558628D02*
X61031190Y-68511009D01*
X61031190Y-68511009D02*
X60935952Y-68463390D01*
X60935952Y-68463390D02*
X60888333Y-68415771D01*
X60888333Y-68415771D02*
X60840714Y-68320533D01*
X60840714Y-68320533D02*
X60840714Y-68225295D01*
X60840714Y-68225295D02*
X60888333Y-68130057D01*
X60888333Y-68130057D02*
X60935952Y-68082438D01*
X60935952Y-68082438D02*
X61031190Y-68034819D01*
X61031190Y-68034819D02*
X61269285Y-68034819D01*
X61269285Y-68034819D02*
X61412142Y-68082438D01*
X61745476Y-69034819D02*
X62269285Y-68368152D01*
X61745476Y-68368152D02*
X62269285Y-69034819D01*
X62650238Y-69034819D02*
X62650238Y-68034819D01*
X62650238Y-68034819D02*
X63031190Y-68034819D01*
X63031190Y-68034819D02*
X63126428Y-68082438D01*
X63126428Y-68082438D02*
X63174047Y-68130057D01*
X63174047Y-68130057D02*
X63221666Y-68225295D01*
X63221666Y-68225295D02*
X63221666Y-68368152D01*
X63221666Y-68368152D02*
X63174047Y-68463390D01*
X63174047Y-68463390D02*
X63126428Y-68511009D01*
X63126428Y-68511009D02*
X63031190Y-68558628D01*
X63031190Y-68558628D02*
X62650238Y-68558628D01*
X174926666Y-114389819D02*
X174926666Y-115104104D01*
X174926666Y-115104104D02*
X174879047Y-115246961D01*
X174879047Y-115246961D02*
X174783809Y-115342200D01*
X174783809Y-115342200D02*
X174640952Y-115389819D01*
X174640952Y-115389819D02*
X174545714Y-115389819D01*
X175450476Y-115389819D02*
X175640952Y-115389819D01*
X175640952Y-115389819D02*
X175736190Y-115342200D01*
X175736190Y-115342200D02*
X175783809Y-115294580D01*
X175783809Y-115294580D02*
X175879047Y-115151723D01*
X175879047Y-115151723D02*
X175926666Y-114961247D01*
X175926666Y-114961247D02*
X175926666Y-114580295D01*
X175926666Y-114580295D02*
X175879047Y-114485057D01*
X175879047Y-114485057D02*
X175831428Y-114437438D01*
X175831428Y-114437438D02*
X175736190Y-114389819D01*
X175736190Y-114389819D02*
X175545714Y-114389819D01*
X175545714Y-114389819D02*
X175450476Y-114437438D01*
X175450476Y-114437438D02*
X175402857Y-114485057D01*
X175402857Y-114485057D02*
X175355238Y-114580295D01*
X175355238Y-114580295D02*
X175355238Y-114818390D01*
X175355238Y-114818390D02*
X175402857Y-114913628D01*
X175402857Y-114913628D02*
X175450476Y-114961247D01*
X175450476Y-114961247D02*
X175545714Y-115008866D01*
X175545714Y-115008866D02*
X175736190Y-115008866D01*
X175736190Y-115008866D02*
X175831428Y-114961247D01*
X175831428Y-114961247D02*
X175879047Y-114913628D01*
X175879047Y-114913628D02*
X175926666Y-114818390D01*
X150949819Y-51293094D02*
X149949819Y-51293094D01*
X149949819Y-51293094D02*
X149949819Y-51054999D01*
X149949819Y-51054999D02*
X149997438Y-50912142D01*
X149997438Y-50912142D02*
X150092676Y-50816904D01*
X150092676Y-50816904D02*
X150187914Y-50769285D01*
X150187914Y-50769285D02*
X150378390Y-50721666D01*
X150378390Y-50721666D02*
X150521247Y-50721666D01*
X150521247Y-50721666D02*
X150711723Y-50769285D01*
X150711723Y-50769285D02*
X150806961Y-50816904D01*
X150806961Y-50816904D02*
X150902200Y-50912142D01*
X150902200Y-50912142D02*
X150949819Y-51054999D01*
X150949819Y-51054999D02*
X150949819Y-51293094D01*
X149949819Y-50388332D02*
X149949819Y-49769285D01*
X149949819Y-49769285D02*
X150330771Y-50102618D01*
X150330771Y-50102618D02*
X150330771Y-49959761D01*
X150330771Y-49959761D02*
X150378390Y-49864523D01*
X150378390Y-49864523D02*
X150426009Y-49816904D01*
X150426009Y-49816904D02*
X150521247Y-49769285D01*
X150521247Y-49769285D02*
X150759342Y-49769285D01*
X150759342Y-49769285D02*
X150854580Y-49816904D01*
X150854580Y-49816904D02*
X150902200Y-49864523D01*
X150902200Y-49864523D02*
X150949819Y-49959761D01*
X150949819Y-49959761D02*
X150949819Y-50245475D01*
X150949819Y-50245475D02*
X150902200Y-50340713D01*
X150902200Y-50340713D02*
X150854580Y-50388332D01*
X138249819Y-51293094D02*
X137249819Y-51293094D01*
X137249819Y-51293094D02*
X137249819Y-51054999D01*
X137249819Y-51054999D02*
X137297438Y-50912142D01*
X137297438Y-50912142D02*
X137392676Y-50816904D01*
X137392676Y-50816904D02*
X137487914Y-50769285D01*
X137487914Y-50769285D02*
X137678390Y-50721666D01*
X137678390Y-50721666D02*
X137821247Y-50721666D01*
X137821247Y-50721666D02*
X138011723Y-50769285D01*
X138011723Y-50769285D02*
X138106961Y-50816904D01*
X138106961Y-50816904D02*
X138202200Y-50912142D01*
X138202200Y-50912142D02*
X138249819Y-51054999D01*
X138249819Y-51054999D02*
X138249819Y-51293094D01*
X137678390Y-50150237D02*
X137630771Y-50245475D01*
X137630771Y-50245475D02*
X137583152Y-50293094D01*
X137583152Y-50293094D02*
X137487914Y-50340713D01*
X137487914Y-50340713D02*
X137440295Y-50340713D01*
X137440295Y-50340713D02*
X137345057Y-50293094D01*
X137345057Y-50293094D02*
X137297438Y-50245475D01*
X137297438Y-50245475D02*
X137249819Y-50150237D01*
X137249819Y-50150237D02*
X137249819Y-49959761D01*
X137249819Y-49959761D02*
X137297438Y-49864523D01*
X137297438Y-49864523D02*
X137345057Y-49816904D01*
X137345057Y-49816904D02*
X137440295Y-49769285D01*
X137440295Y-49769285D02*
X137487914Y-49769285D01*
X137487914Y-49769285D02*
X137583152Y-49816904D01*
X137583152Y-49816904D02*
X137630771Y-49864523D01*
X137630771Y-49864523D02*
X137678390Y-49959761D01*
X137678390Y-49959761D02*
X137678390Y-50150237D01*
X137678390Y-50150237D02*
X137726009Y-50245475D01*
X137726009Y-50245475D02*
X137773628Y-50293094D01*
X137773628Y-50293094D02*
X137868866Y-50340713D01*
X137868866Y-50340713D02*
X138059342Y-50340713D01*
X138059342Y-50340713D02*
X138154580Y-50293094D01*
X138154580Y-50293094D02*
X138202200Y-50245475D01*
X138202200Y-50245475D02*
X138249819Y-50150237D01*
X138249819Y-50150237D02*
X138249819Y-49959761D01*
X138249819Y-49959761D02*
X138202200Y-49864523D01*
X138202200Y-49864523D02*
X138154580Y-49816904D01*
X138154580Y-49816904D02*
X138059342Y-49769285D01*
X138059342Y-49769285D02*
X137868866Y-49769285D01*
X137868866Y-49769285D02*
X137773628Y-49816904D01*
X137773628Y-49816904D02*
X137726009Y-49864523D01*
X137726009Y-49864523D02*
X137678390Y-49959761D01*
X156029819Y-51293094D02*
X155029819Y-51293094D01*
X155029819Y-51293094D02*
X155029819Y-51054999D01*
X155029819Y-51054999D02*
X155077438Y-50912142D01*
X155077438Y-50912142D02*
X155172676Y-50816904D01*
X155172676Y-50816904D02*
X155267914Y-50769285D01*
X155267914Y-50769285D02*
X155458390Y-50721666D01*
X155458390Y-50721666D02*
X155601247Y-50721666D01*
X155601247Y-50721666D02*
X155791723Y-50769285D01*
X155791723Y-50769285D02*
X155886961Y-50816904D01*
X155886961Y-50816904D02*
X155982200Y-50912142D01*
X155982200Y-50912142D02*
X156029819Y-51054999D01*
X156029819Y-51054999D02*
X156029819Y-51293094D01*
X156029819Y-49769285D02*
X156029819Y-50340713D01*
X156029819Y-50054999D02*
X155029819Y-50054999D01*
X155029819Y-50054999D02*
X155172676Y-50150237D01*
X155172676Y-50150237D02*
X155267914Y-50245475D01*
X155267914Y-50245475D02*
X155315533Y-50340713D01*
X29718095Y-20139819D02*
X29718095Y-19139819D01*
X29718095Y-19616009D02*
X30289523Y-19616009D01*
X30289523Y-20139819D02*
X30289523Y-19139819D01*
X31289523Y-20139819D02*
X30718095Y-20139819D01*
X31003809Y-20139819D02*
X31003809Y-19139819D01*
X31003809Y-19139819D02*
X30908571Y-19282676D01*
X30908571Y-19282676D02*
X30813333Y-19377914D01*
X30813333Y-19377914D02*
X30718095Y-19425533D01*
X216239819Y-64646666D02*
X215763628Y-64979999D01*
X216239819Y-65218094D02*
X215239819Y-65218094D01*
X215239819Y-65218094D02*
X215239819Y-64837142D01*
X215239819Y-64837142D02*
X215287438Y-64741904D01*
X215287438Y-64741904D02*
X215335057Y-64694285D01*
X215335057Y-64694285D02*
X215430295Y-64646666D01*
X215430295Y-64646666D02*
X215573152Y-64646666D01*
X215573152Y-64646666D02*
X215668390Y-64694285D01*
X215668390Y-64694285D02*
X215716009Y-64741904D01*
X215716009Y-64741904D02*
X215763628Y-64837142D01*
X215763628Y-64837142D02*
X215763628Y-65218094D01*
X215335057Y-64265713D02*
X215287438Y-64218094D01*
X215287438Y-64218094D02*
X215239819Y-64122856D01*
X215239819Y-64122856D02*
X215239819Y-63884761D01*
X215239819Y-63884761D02*
X215287438Y-63789523D01*
X215287438Y-63789523D02*
X215335057Y-63741904D01*
X215335057Y-63741904D02*
X215430295Y-63694285D01*
X215430295Y-63694285D02*
X215525533Y-63694285D01*
X215525533Y-63694285D02*
X215668390Y-63741904D01*
X215668390Y-63741904D02*
X216239819Y-64313332D01*
X216239819Y-64313332D02*
X216239819Y-63694285D01*
X26971666Y-103594819D02*
X26971666Y-104309104D01*
X26971666Y-104309104D02*
X26924047Y-104451961D01*
X26924047Y-104451961D02*
X26828809Y-104547200D01*
X26828809Y-104547200D02*
X26685952Y-104594819D01*
X26685952Y-104594819D02*
X26590714Y-104594819D01*
X27876428Y-103594819D02*
X27685952Y-103594819D01*
X27685952Y-103594819D02*
X27590714Y-103642438D01*
X27590714Y-103642438D02*
X27543095Y-103690057D01*
X27543095Y-103690057D02*
X27447857Y-103832914D01*
X27447857Y-103832914D02*
X27400238Y-104023390D01*
X27400238Y-104023390D02*
X27400238Y-104404342D01*
X27400238Y-104404342D02*
X27447857Y-104499580D01*
X27447857Y-104499580D02*
X27495476Y-104547200D01*
X27495476Y-104547200D02*
X27590714Y-104594819D01*
X27590714Y-104594819D02*
X27781190Y-104594819D01*
X27781190Y-104594819D02*
X27876428Y-104547200D01*
X27876428Y-104547200D02*
X27924047Y-104499580D01*
X27924047Y-104499580D02*
X27971666Y-104404342D01*
X27971666Y-104404342D02*
X27971666Y-104166247D01*
X27971666Y-104166247D02*
X27924047Y-104071009D01*
X27924047Y-104071009D02*
X27876428Y-104023390D01*
X27876428Y-104023390D02*
X27781190Y-103975771D01*
X27781190Y-103975771D02*
X27590714Y-103975771D01*
X27590714Y-103975771D02*
X27495476Y-104023390D01*
X27495476Y-104023390D02*
X27447857Y-104071009D01*
X27447857Y-104071009D02*
X27400238Y-104166247D01*
X119850476Y-22309819D02*
X120517142Y-23309819D01*
X120517142Y-22309819D02*
X119850476Y-23309819D01*
X121421904Y-23309819D02*
X120850476Y-23309819D01*
X121136190Y-23309819D02*
X121136190Y-22309819D01*
X121136190Y-22309819D02*
X121040952Y-22452676D01*
X121040952Y-22452676D02*
X120945714Y-22547914D01*
X120945714Y-22547914D02*
X120850476Y-22595533D01*
X213699819Y-65694285D02*
X212699819Y-65694285D01*
X212699819Y-65694285D02*
X212699819Y-65456190D01*
X212699819Y-65456190D02*
X212747438Y-65313333D01*
X212747438Y-65313333D02*
X212842676Y-65218095D01*
X212842676Y-65218095D02*
X212937914Y-65170476D01*
X212937914Y-65170476D02*
X213128390Y-65122857D01*
X213128390Y-65122857D02*
X213271247Y-65122857D01*
X213271247Y-65122857D02*
X213461723Y-65170476D01*
X213461723Y-65170476D02*
X213556961Y-65218095D01*
X213556961Y-65218095D02*
X213652200Y-65313333D01*
X213652200Y-65313333D02*
X213699819Y-65456190D01*
X213699819Y-65456190D02*
X213699819Y-65694285D01*
X213699819Y-64170476D02*
X213699819Y-64741904D01*
X213699819Y-64456190D02*
X212699819Y-64456190D01*
X212699819Y-64456190D02*
X212842676Y-64551428D01*
X212842676Y-64551428D02*
X212937914Y-64646666D01*
X212937914Y-64646666D02*
X212985533Y-64741904D01*
X212699819Y-63837142D02*
X212699819Y-63218095D01*
X212699819Y-63218095D02*
X213080771Y-63551428D01*
X213080771Y-63551428D02*
X213080771Y-63408571D01*
X213080771Y-63408571D02*
X213128390Y-63313333D01*
X213128390Y-63313333D02*
X213176009Y-63265714D01*
X213176009Y-63265714D02*
X213271247Y-63218095D01*
X213271247Y-63218095D02*
X213509342Y-63218095D01*
X213509342Y-63218095D02*
X213604580Y-63265714D01*
X213604580Y-63265714D02*
X213652200Y-63313333D01*
X213652200Y-63313333D02*
X213699819Y-63408571D01*
X213699819Y-63408571D02*
X213699819Y-63694285D01*
X213699819Y-63694285D02*
X213652200Y-63789523D01*
X213652200Y-63789523D02*
X213604580Y-63837142D01*
X145869819Y-51293094D02*
X144869819Y-51293094D01*
X144869819Y-51293094D02*
X144869819Y-51054999D01*
X144869819Y-51054999D02*
X144917438Y-50912142D01*
X144917438Y-50912142D02*
X145012676Y-50816904D01*
X145012676Y-50816904D02*
X145107914Y-50769285D01*
X145107914Y-50769285D02*
X145298390Y-50721666D01*
X145298390Y-50721666D02*
X145441247Y-50721666D01*
X145441247Y-50721666D02*
X145631723Y-50769285D01*
X145631723Y-50769285D02*
X145726961Y-50816904D01*
X145726961Y-50816904D02*
X145822200Y-50912142D01*
X145822200Y-50912142D02*
X145869819Y-51054999D01*
X145869819Y-51054999D02*
X145869819Y-51293094D01*
X144869819Y-49816904D02*
X144869819Y-50293094D01*
X144869819Y-50293094D02*
X145346009Y-50340713D01*
X145346009Y-50340713D02*
X145298390Y-50293094D01*
X145298390Y-50293094D02*
X145250771Y-50197856D01*
X145250771Y-50197856D02*
X145250771Y-49959761D01*
X145250771Y-49959761D02*
X145298390Y-49864523D01*
X145298390Y-49864523D02*
X145346009Y-49816904D01*
X145346009Y-49816904D02*
X145441247Y-49769285D01*
X145441247Y-49769285D02*
X145679342Y-49769285D01*
X145679342Y-49769285D02*
X145774580Y-49816904D01*
X145774580Y-49816904D02*
X145822200Y-49864523D01*
X145822200Y-49864523D02*
X145869819Y-49959761D01*
X145869819Y-49959761D02*
X145869819Y-50197856D01*
X145869819Y-50197856D02*
X145822200Y-50293094D01*
X145822200Y-50293094D02*
X145774580Y-50340713D01*
X125396666Y-100054819D02*
X125396666Y-100769104D01*
X125396666Y-100769104D02*
X125349047Y-100911961D01*
X125349047Y-100911961D02*
X125253809Y-101007200D01*
X125253809Y-101007200D02*
X125110952Y-101054819D01*
X125110952Y-101054819D02*
X125015714Y-101054819D01*
X126396666Y-101054819D02*
X125825238Y-101054819D01*
X126110952Y-101054819D02*
X126110952Y-100054819D01*
X126110952Y-100054819D02*
X126015714Y-100197676D01*
X126015714Y-100197676D02*
X125920476Y-100292914D01*
X125920476Y-100292914D02*
X125825238Y-100340533D01*
X133223095Y-19504819D02*
X133223095Y-18504819D01*
X133223095Y-18981009D02*
X133794523Y-18981009D01*
X133794523Y-19504819D02*
X133794523Y-18504819D01*
X134223095Y-18600057D02*
X134270714Y-18552438D01*
X134270714Y-18552438D02*
X134365952Y-18504819D01*
X134365952Y-18504819D02*
X134604047Y-18504819D01*
X134604047Y-18504819D02*
X134699285Y-18552438D01*
X134699285Y-18552438D02*
X134746904Y-18600057D01*
X134746904Y-18600057D02*
X134794523Y-18695295D01*
X134794523Y-18695295D02*
X134794523Y-18790533D01*
X134794523Y-18790533D02*
X134746904Y-18933390D01*
X134746904Y-18933390D02*
X134175476Y-19504819D01*
X134175476Y-19504819D02*
X134794523Y-19504819D01*
X148409819Y-51293094D02*
X147409819Y-51293094D01*
X147409819Y-51293094D02*
X147409819Y-51054999D01*
X147409819Y-51054999D02*
X147457438Y-50912142D01*
X147457438Y-50912142D02*
X147552676Y-50816904D01*
X147552676Y-50816904D02*
X147647914Y-50769285D01*
X147647914Y-50769285D02*
X147838390Y-50721666D01*
X147838390Y-50721666D02*
X147981247Y-50721666D01*
X147981247Y-50721666D02*
X148171723Y-50769285D01*
X148171723Y-50769285D02*
X148266961Y-50816904D01*
X148266961Y-50816904D02*
X148362200Y-50912142D01*
X148362200Y-50912142D02*
X148409819Y-51054999D01*
X148409819Y-51054999D02*
X148409819Y-51293094D01*
X147743152Y-49864523D02*
X148409819Y-49864523D01*
X147362200Y-50102618D02*
X148076485Y-50340713D01*
X148076485Y-50340713D02*
X148076485Y-49721666D01*
%TO.C,U11*%
D12*
X89610000Y-91085000D02*
X89280000Y-91325000D01*
X89280000Y-90845000D01*
X89610000Y-91085000D01*
G36*
X89610000Y-91085000D02*
G01*
X89280000Y-91325000D01*
X89280000Y-90845000D01*
X89610000Y-91085000D01*
G37*
X101935000Y-84060000D02*
X102415000Y-84060000D01*
X89835000Y-84060000D02*
X89355000Y-84060000D01*
X102415000Y-88660000D02*
X102415000Y-84060000D01*
X102415000Y-88660000D02*
X101935000Y-88660000D01*
X89835000Y-88660000D02*
X89355000Y-88660000D01*
X89355000Y-88660000D02*
X89355000Y-84060000D01*
%TO.C,U10*%
X71195000Y-90755000D02*
X70865000Y-90995000D01*
X70865000Y-90515000D01*
X71195000Y-90755000D01*
G36*
X71195000Y-90755000D02*
G01*
X70865000Y-90995000D01*
X70865000Y-90515000D01*
X71195000Y-90755000D01*
G37*
X83520000Y-83730000D02*
X84000000Y-83730000D01*
X71420000Y-83730000D02*
X70940000Y-83730000D01*
X84000000Y-88330000D02*
X84000000Y-83730000D01*
X84000000Y-88330000D02*
X83520000Y-88330000D01*
X71420000Y-88330000D02*
X70940000Y-88330000D01*
X70940000Y-88330000D02*
X70940000Y-83730000D01*
%TO.C,U8*%
X105765000Y-74370000D02*
X105525000Y-74040000D01*
X106005000Y-74040000D01*
X105765000Y-74370000D01*
G36*
X105765000Y-74370000D02*
G01*
X105525000Y-74040000D01*
X106005000Y-74040000D01*
X105765000Y-74370000D01*
G37*
X112790000Y-86695000D02*
X112790000Y-87175000D01*
X112790000Y-74595000D02*
X112790000Y-74115000D01*
X108190000Y-87175000D02*
X112790000Y-87175000D01*
X108190000Y-87175000D02*
X108190000Y-86695000D01*
X108190000Y-74595000D02*
X108190000Y-74115000D01*
X108190000Y-74115000D02*
X112790000Y-74115000D01*
%TO.C,U6*%
X105460000Y-59130000D02*
X105220000Y-58800000D01*
X105700000Y-58800000D01*
X105460000Y-59130000D01*
G36*
X105460000Y-59130000D02*
G01*
X105220000Y-58800000D01*
X105700000Y-58800000D01*
X105460000Y-59130000D01*
G37*
X112485000Y-71455000D02*
X112485000Y-71935000D01*
X112485000Y-59355000D02*
X112485000Y-58875000D01*
X107885000Y-71935000D02*
X112485000Y-71935000D01*
X107885000Y-71935000D02*
X107885000Y-71455000D01*
X107885000Y-59355000D02*
X107885000Y-58875000D01*
X107885000Y-58875000D02*
X112485000Y-58875000D01*
%TO.C,U5*%
X62210000Y-86395000D02*
X62210000Y-84445000D01*
X62210000Y-86395000D02*
X62210000Y-88345000D01*
X52090000Y-86395000D02*
X52090000Y-84445000D01*
X52090000Y-86395000D02*
X52090000Y-88345000D01*
X52145000Y-89095000D02*
X51815000Y-89335000D01*
X51815000Y-88855000D01*
X52145000Y-89095000D01*
G36*
X52145000Y-89095000D02*
G01*
X51815000Y-89335000D01*
X51815000Y-88855000D01*
X52145000Y-89095000D01*
G37*
%TO.C,C3*%
X86180000Y-6342500D02*
X86180000Y-1742500D01*
X86660000Y-6342500D02*
X86180000Y-6342500D01*
X99240000Y-6342500D02*
X98760000Y-6342500D01*
X99240000Y-6342500D02*
X99240000Y-1742500D01*
X86660000Y-1742500D02*
X86180000Y-1742500D01*
X98760000Y-1742500D02*
X99240000Y-1742500D01*
X86435000Y-8767500D02*
X86105000Y-9007500D01*
X86105000Y-8527500D01*
X86435000Y-8767500D01*
G36*
X86435000Y-8767500D02*
G01*
X86105000Y-9007500D01*
X86105000Y-8527500D01*
X86435000Y-8767500D01*
G37*
%TO.C,D9*%
X121595000Y-2420000D02*
X121595000Y-5280000D01*
X123515000Y-5280000D02*
X123515000Y-2420000D01*
X121595000Y-5280000D02*
X123515000Y-5280000D01*
%TO.C,U9*%
X29085000Y-55955000D02*
X28845000Y-55625000D01*
X29325000Y-55625000D01*
X29085000Y-55955000D01*
G36*
X29085000Y-55955000D02*
G01*
X28845000Y-55625000D01*
X29325000Y-55625000D01*
X29085000Y-55955000D01*
G37*
X31785000Y-60980000D02*
X33735000Y-60980000D01*
X31785000Y-60980000D02*
X29835000Y-60980000D01*
X31785000Y-55860000D02*
X33735000Y-55860000D01*
X31785000Y-55860000D02*
X29835000Y-55860000D01*
%TO.C,U7*%
X58690000Y-19625000D02*
G75*
G03*
X60690000Y-19625000I1000000J0D01*
G01*
X64830000Y-55365000D02*
X64830000Y-19565000D01*
X64830000Y-19565000D02*
X54550000Y-19565000D01*
X62340000Y-55305000D02*
X62340000Y-19625000D01*
X62340000Y-19625000D02*
X60690000Y-19625000D01*
X58690000Y-19625000D02*
X57040000Y-19625000D01*
X57040000Y-55305000D02*
X62340000Y-55305000D01*
X57040000Y-19625000D02*
X57040000Y-55305000D01*
X54550000Y-55365000D02*
X64830000Y-55365000D01*
X54550000Y-19565000D02*
X54550000Y-55365000D01*
D11*
%TO.C,SW2*%
X221195000Y-81550000D02*
X228195000Y-81550000D01*
X228195000Y-81550000D02*
X228195000Y-88550000D01*
X228195000Y-88550000D02*
X221195000Y-88550000D01*
X221195000Y-88550000D02*
X221195000Y-81550000D01*
D12*
%TO.C,D11*%
X126675000Y-2420000D02*
X126675000Y-5280000D01*
X128595000Y-5280000D02*
X128595000Y-2420000D01*
X126675000Y-5280000D02*
X128595000Y-5280000D01*
%TO.C,D6*%
X141915000Y-52340000D02*
X141915000Y-55200000D01*
X143835000Y-55200000D02*
X143835000Y-52340000D01*
X141915000Y-55200000D02*
X143835000Y-55200000D01*
%TO.C,U2*%
X45355000Y-19625000D02*
G75*
G03*
X47355000Y-19625000I1000000J0D01*
G01*
X51495000Y-55365000D02*
X51495000Y-19565000D01*
X51495000Y-19565000D02*
X41215000Y-19565000D01*
X49005000Y-55305000D02*
X49005000Y-19625000D01*
X49005000Y-19625000D02*
X47355000Y-19625000D01*
X45355000Y-19625000D02*
X43705000Y-19625000D01*
X43705000Y-55305000D02*
X49005000Y-55305000D01*
X43705000Y-19625000D02*
X43705000Y-55305000D01*
X41215000Y-55365000D02*
X51495000Y-55365000D01*
X41215000Y-19565000D02*
X41215000Y-55365000D01*
%TO.C,C11*%
X3387651Y-70485000D02*
G75*
G03*
X-4852349Y-70485000I-4120000J0D01*
G01*
X-4852349Y-70485000D02*
G75*
G03*
X3387651Y-70485000I4120000J0D01*
G01*
X-4813349Y-71018000D02*
X-4813349Y-69952000D01*
X-4773349Y-71253000D02*
X-4773349Y-69717000D01*
X-4733349Y-71433000D02*
X-4733349Y-69537000D01*
X-4693349Y-71583000D02*
X-4693349Y-69387000D01*
X-4653349Y-71714000D02*
X-4653349Y-69256000D01*
X-4613349Y-71831000D02*
X-4613349Y-69139000D01*
X-4573349Y-71938000D02*
X-4573349Y-69032000D01*
X-4533349Y-72037000D02*
X-4533349Y-68933000D01*
X-4493349Y-72130000D02*
X-4493349Y-68840000D01*
X-4453349Y-72216000D02*
X-4453349Y-68754000D01*
X-4413349Y-72298000D02*
X-4413349Y-68672000D01*
X-4373349Y-72375000D02*
X-4373349Y-68595000D01*
X-4333349Y-72449000D02*
X-4333349Y-68521000D01*
X-4293349Y-72519000D02*
X-4293349Y-68451000D01*
X-4253349Y-69445000D02*
X-4253349Y-68383000D01*
X-4253349Y-72587000D02*
X-4253349Y-71525000D01*
X-4213349Y-69445000D02*
X-4213349Y-68319000D01*
X-4213349Y-72651000D02*
X-4213349Y-71525000D01*
X-4173349Y-69445000D02*
X-4173349Y-68257000D01*
X-4173349Y-72713000D02*
X-4173349Y-71525000D01*
X-4133349Y-69445000D02*
X-4133349Y-68198000D01*
X-4133349Y-72772000D02*
X-4133349Y-71525000D01*
X-4093349Y-69445000D02*
X-4093349Y-68140000D01*
X-4093349Y-72830000D02*
X-4093349Y-71525000D01*
X-4053349Y-69445000D02*
X-4053349Y-68085000D01*
X-4053349Y-72885000D02*
X-4053349Y-71525000D01*
X-4013349Y-69445000D02*
X-4013349Y-68031000D01*
X-4013349Y-72939000D02*
X-4013349Y-71525000D01*
X-3973349Y-69445000D02*
X-3973349Y-67980000D01*
X-3973349Y-72990000D02*
X-3973349Y-71525000D01*
X-3933349Y-69445000D02*
X-3933349Y-67929000D01*
X-3933349Y-73041000D02*
X-3933349Y-71525000D01*
X-3893349Y-69445000D02*
X-3893349Y-67881000D01*
X-3893349Y-73089000D02*
X-3893349Y-71525000D01*
X-3853349Y-69445000D02*
X-3853349Y-67834000D01*
X-3853349Y-73136000D02*
X-3853349Y-71525000D01*
X-3813349Y-69445000D02*
X-3813349Y-67788000D01*
X-3813349Y-73182000D02*
X-3813349Y-71525000D01*
X-3773349Y-69445000D02*
X-3773349Y-67744000D01*
X-3773349Y-73226000D02*
X-3773349Y-71525000D01*
X-3733349Y-69445000D02*
X-3733349Y-67701000D01*
X-3733349Y-73269000D02*
X-3733349Y-71525000D01*
X-3693349Y-69445000D02*
X-3693349Y-67659000D01*
X-3693349Y-73311000D02*
X-3693349Y-71525000D01*
X-3653349Y-69445000D02*
X-3653349Y-67618000D01*
X-3653349Y-73352000D02*
X-3653349Y-71525000D01*
X-3613349Y-69445000D02*
X-3613349Y-67578000D01*
X-3613349Y-73392000D02*
X-3613349Y-71525000D01*
X-3573349Y-69445000D02*
X-3573349Y-67540000D01*
X-3573349Y-73430000D02*
X-3573349Y-71525000D01*
X-3533349Y-69445000D02*
X-3533349Y-67502000D01*
X-3533349Y-73468000D02*
X-3533349Y-71525000D01*
X-3493349Y-69445000D02*
X-3493349Y-67466000D01*
X-3493349Y-73504000D02*
X-3493349Y-71525000D01*
X-3453349Y-69445000D02*
X-3453349Y-67430000D01*
X-3453349Y-73540000D02*
X-3453349Y-71525000D01*
X-3413349Y-69445000D02*
X-3413349Y-67395000D01*
X-3413349Y-73575000D02*
X-3413349Y-71525000D01*
X-3373349Y-69445000D02*
X-3373349Y-67361000D01*
X-3373349Y-73609000D02*
X-3373349Y-71525000D01*
X-3333349Y-69445000D02*
X-3333349Y-67329000D01*
X-3333349Y-73641000D02*
X-3333349Y-71525000D01*
X-3293349Y-69445000D02*
X-3293349Y-67296000D01*
X-3293349Y-73674000D02*
X-3293349Y-71525000D01*
X-3253349Y-69445000D02*
X-3253349Y-67265000D01*
X-3253349Y-73705000D02*
X-3253349Y-71525000D01*
X-3213349Y-69445000D02*
X-3213349Y-67235000D01*
X-3213349Y-73735000D02*
X-3213349Y-71525000D01*
X-3173349Y-69445000D02*
X-3173349Y-67205000D01*
X-3173349Y-73765000D02*
X-3173349Y-71525000D01*
X-3133349Y-69445000D02*
X-3133349Y-67176000D01*
X-3133349Y-73794000D02*
X-3133349Y-71525000D01*
X-3093349Y-69445000D02*
X-3093349Y-67147000D01*
X-3093349Y-73823000D02*
X-3093349Y-71525000D01*
X-3053349Y-69445000D02*
X-3053349Y-67120000D01*
X-3053349Y-73850000D02*
X-3053349Y-71525000D01*
X-3013349Y-69445000D02*
X-3013349Y-67093000D01*
X-3013349Y-73877000D02*
X-3013349Y-71525000D01*
X-2973349Y-69445000D02*
X-2973349Y-67067000D01*
X-2973349Y-73903000D02*
X-2973349Y-71525000D01*
X-2933349Y-69445000D02*
X-2933349Y-67041000D01*
X-2933349Y-73929000D02*
X-2933349Y-71525000D01*
X-2893349Y-69445000D02*
X-2893349Y-67016000D01*
X-2893349Y-73954000D02*
X-2893349Y-71525000D01*
X-2853349Y-69445000D02*
X-2853349Y-66992000D01*
X-2853349Y-73978000D02*
X-2853349Y-71525000D01*
X-2813349Y-69445000D02*
X-2813349Y-66968000D01*
X-2813349Y-74002000D02*
X-2813349Y-71525000D01*
X-2773349Y-69445000D02*
X-2773349Y-66945000D01*
X-2773349Y-74025000D02*
X-2773349Y-71525000D01*
X-2733349Y-69445000D02*
X-2733349Y-66923000D01*
X-2733349Y-74047000D02*
X-2733349Y-71525000D01*
X-2693349Y-69445000D02*
X-2693349Y-66901000D01*
X-2693349Y-74069000D02*
X-2693349Y-71525000D01*
X-2653349Y-69445000D02*
X-2653349Y-66879000D01*
X-2653349Y-74091000D02*
X-2653349Y-71525000D01*
X-2613349Y-69445000D02*
X-2613349Y-66858000D01*
X-2613349Y-74112000D02*
X-2613349Y-71525000D01*
X-2573349Y-69445000D02*
X-2573349Y-66838000D01*
X-2573349Y-74132000D02*
X-2573349Y-71525000D01*
X-2533349Y-69445000D02*
X-2533349Y-66819000D01*
X-2533349Y-74151000D02*
X-2533349Y-71525000D01*
X-2493349Y-69445000D02*
X-2493349Y-66799000D01*
X-2493349Y-74171000D02*
X-2493349Y-71525000D01*
X-2453349Y-69445000D02*
X-2453349Y-66781000D01*
X-2453349Y-74189000D02*
X-2453349Y-71525000D01*
X-2413349Y-69445000D02*
X-2413349Y-66763000D01*
X-2413349Y-74207000D02*
X-2413349Y-71525000D01*
X-2373349Y-69445000D02*
X-2373349Y-66745000D01*
X-2373349Y-74225000D02*
X-2373349Y-71525000D01*
X-2333349Y-69445000D02*
X-2333349Y-66728000D01*
X-2333349Y-74242000D02*
X-2333349Y-71525000D01*
X-2293349Y-69445000D02*
X-2293349Y-66711000D01*
X-2293349Y-74259000D02*
X-2293349Y-71525000D01*
X-2253349Y-69445000D02*
X-2253349Y-66695000D01*
X-2253349Y-74275000D02*
X-2253349Y-71525000D01*
X-2213349Y-69445000D02*
X-2213349Y-66680000D01*
X-2213349Y-74290000D02*
X-2213349Y-71525000D01*
X-2173349Y-74306000D02*
X-2173349Y-66664000D01*
X-2133349Y-74320000D02*
X-2133349Y-66650000D01*
X-2093349Y-74335000D02*
X-2093349Y-66635000D01*
X-2053349Y-74348000D02*
X-2053349Y-66622000D01*
X-2013349Y-74362000D02*
X-2013349Y-66608000D01*
X-1973349Y-74374000D02*
X-1973349Y-66596000D01*
X-1933349Y-74387000D02*
X-1933349Y-66583000D01*
X-1893349Y-74399000D02*
X-1893349Y-66571000D01*
X-1853349Y-74410000D02*
X-1853349Y-66560000D01*
X-1813349Y-74421000D02*
X-1813349Y-66549000D01*
X-1773349Y-74432000D02*
X-1773349Y-66538000D01*
X-1733349Y-74442000D02*
X-1733349Y-66528000D01*
X-1693349Y-74452000D02*
X-1693349Y-66518000D01*
X-1653349Y-74461000D02*
X-1653349Y-66509000D01*
X-1613349Y-74470000D02*
X-1613349Y-66500000D01*
X-1573349Y-74479000D02*
X-1573349Y-66491000D01*
X-1533349Y-74487000D02*
X-1533349Y-66483000D01*
X-1493349Y-74495000D02*
X-1493349Y-66475000D01*
X-1453349Y-74502000D02*
X-1453349Y-66468000D01*
X-1412349Y-74509000D02*
X-1412349Y-66461000D01*
X-1372349Y-74515000D02*
X-1372349Y-66455000D01*
X-1332349Y-74522000D02*
X-1332349Y-66448000D01*
X-1292349Y-74527000D02*
X-1292349Y-66443000D01*
X-1252349Y-74533000D02*
X-1252349Y-66437000D01*
X-1212349Y-74537000D02*
X-1212349Y-66433000D01*
X-1172349Y-74542000D02*
X-1172349Y-66428000D01*
X-1132349Y-74546000D02*
X-1132349Y-66424000D01*
X-1092349Y-74550000D02*
X-1092349Y-66420000D01*
X-1052349Y-74553000D02*
X-1052349Y-66417000D01*
X-1012349Y-74556000D02*
X-1012349Y-66414000D01*
X-972349Y-74559000D02*
X-972349Y-66411000D01*
X-932349Y-74561000D02*
X-932349Y-66409000D01*
X-892349Y-74562000D02*
X-892349Y-66408000D01*
X-852349Y-74564000D02*
X-852349Y-66406000D01*
X-812349Y-74565000D02*
X-812349Y-66405000D01*
X-772349Y-74565000D02*
X-772349Y-66405000D01*
X-732349Y-74565000D02*
X-732349Y-66405000D01*
X3277349Y-73200000D02*
X3277349Y-72400000D01*
X3677349Y-72800000D02*
X2877349Y-72800000D01*
%TO.C,J11*%
X139760000Y-69850000D02*
X139760000Y-90230000D01*
X139760000Y-67250000D02*
X139760000Y-68580000D01*
X138430000Y-67250000D02*
X139760000Y-67250000D01*
X137100000Y-90230000D02*
X139760000Y-90230000D01*
X137100000Y-69850000D02*
X139760000Y-69850000D01*
X137100000Y-69850000D02*
X137100000Y-90230000D01*
%TO.C,SW1*%
X226014214Y-74930000D02*
G75*
G03*
X223185786Y-74930000I-1414214J0D01*
G01*
X223185786Y-74930000D02*
G75*
G03*
X226014214Y-74930000I1414214J0D01*
G01*
X227720000Y-73880000D02*
X227720000Y-76080000D01*
X222550000Y-71810000D02*
X226950000Y-71810000D01*
X221950000Y-78050000D02*
X227150000Y-78050000D01*
X221480000Y-76080000D02*
X221480000Y-73880000D01*
%TO.C,J7*%
X-49530000Y-66100000D02*
X-52130000Y-66100000D01*
X-52130000Y-63440000D02*
X-52130000Y-66100000D01*
X-49530000Y-63440000D02*
X-49530000Y-66100000D01*
X-49530000Y-63440000D02*
X-52130000Y-63440000D01*
X-48260000Y-63440000D02*
X-46930000Y-63440000D01*
X-46930000Y-63440000D02*
X-46930000Y-64770000D01*
%TO.C,C14*%
X174090000Y-40901252D02*
X174090000Y-40378748D01*
X172620000Y-40901252D02*
X172620000Y-40378748D01*
%TO.C,U3*%
X83455000Y-19625000D02*
G75*
G03*
X85455000Y-19625000I1000000J0D01*
G01*
X93405000Y-55365000D02*
X93405000Y-19565000D01*
X93405000Y-19565000D02*
X75505000Y-19565000D01*
X90915000Y-55305000D02*
X90915000Y-19625000D01*
X90915000Y-19625000D02*
X85455000Y-19625000D01*
X83455000Y-19625000D02*
X77995000Y-19625000D01*
X77995000Y-55305000D02*
X90915000Y-55305000D01*
X77995000Y-19625000D02*
X77995000Y-55305000D01*
X75505000Y-55365000D02*
X93405000Y-55365000D01*
X75505000Y-19565000D02*
X75505000Y-55365000D01*
%TO.C,RN2*%
X136685000Y-47245000D02*
X136685000Y-46245000D01*
X140045000Y-47245000D02*
X140045000Y-46245000D01*
%TO.C,D10*%
X124135000Y-2420000D02*
X124135000Y-5280000D01*
X126055000Y-5280000D02*
X126055000Y-2420000D01*
X124135000Y-5280000D02*
X126055000Y-5280000D01*
%TO.C,J10*%
X158175000Y-111125000D02*
X158175000Y-116265000D01*
X158175000Y-108525000D02*
X158175000Y-109855000D01*
X156845000Y-108525000D02*
X158175000Y-108525000D01*
X155515000Y-116265000D02*
X158175000Y-116265000D01*
X155515000Y-111125000D02*
X158175000Y-111125000D01*
X155515000Y-111125000D02*
X155515000Y-116265000D01*
%TO.C,RN3*%
X118815000Y-1750000D02*
X119815000Y-1750000D01*
X118815000Y-5110000D02*
X119815000Y-5110000D01*
%TO.C,D12*%
X129215000Y-2420000D02*
X129215000Y-5280000D01*
X131135000Y-5280000D02*
X131135000Y-2420000D01*
X129215000Y-5280000D02*
X131135000Y-5280000D01*
%TO.C,D7*%
X139375000Y-52340000D02*
X139375000Y-55200000D01*
X141295000Y-55200000D02*
X141295000Y-52340000D01*
X139375000Y-55200000D02*
X141295000Y-55200000D01*
%TO.C,C5*%
X52805000Y-4303752D02*
X52805000Y-3781248D01*
X51335000Y-4303752D02*
X51335000Y-3781248D01*
%TO.C,C10*%
X-53311248Y-41175000D02*
X-53833752Y-41175000D01*
X-53311248Y-42645000D02*
X-53833752Y-42645000D01*
%TO.C,C12*%
X58270000Y-3175000D02*
G75*
G03*
X54030000Y-3175000I-2120000J0D01*
G01*
X54030000Y-3175000D02*
G75*
G03*
X58270000Y-3175000I2120000J0D01*
G01*
X58231000Y-2805000D02*
X58231000Y-3545000D01*
X58191000Y-2638000D02*
X58191000Y-3712000D01*
X58151000Y-2511000D02*
X58151000Y-3839000D01*
X58111000Y-2407000D02*
X58111000Y-3943000D01*
X58071000Y-2316000D02*
X58071000Y-4034000D01*
X58031000Y-2235000D02*
X58031000Y-4115000D01*
X57991000Y-2162000D02*
X57991000Y-4188000D01*
X57951000Y-4015000D02*
X57951000Y-4255000D01*
X57951000Y-2095000D02*
X57951000Y-2335000D01*
X57911000Y-4015000D02*
X57911000Y-4317000D01*
X57911000Y-2033000D02*
X57911000Y-2335000D01*
X57871000Y-4015000D02*
X57871000Y-4375000D01*
X57871000Y-1975000D02*
X57871000Y-2335000D01*
X57831000Y-4015000D02*
X57831000Y-4429000D01*
X57831000Y-1921000D02*
X57831000Y-2335000D01*
X57791000Y-4015000D02*
X57791000Y-4479000D01*
X57791000Y-1871000D02*
X57791000Y-2335000D01*
X57751000Y-4015000D02*
X57751000Y-4526000D01*
X57751000Y-1824000D02*
X57751000Y-2335000D01*
X57711000Y-4015000D02*
X57711000Y-4571000D01*
X57711000Y-1779000D02*
X57711000Y-2335000D01*
X57671000Y-4015000D02*
X57671000Y-4613000D01*
X57671000Y-1737000D02*
X57671000Y-2335000D01*
X57631000Y-4015000D02*
X57631000Y-4653000D01*
X57631000Y-1697000D02*
X57631000Y-2335000D01*
X57591000Y-4015000D02*
X57591000Y-4691000D01*
X57591000Y-1659000D02*
X57591000Y-2335000D01*
X57551000Y-4015000D02*
X57551000Y-4727000D01*
X57551000Y-1623000D02*
X57551000Y-2335000D01*
X57511000Y-4015000D02*
X57511000Y-4762000D01*
X57511000Y-1588000D02*
X57511000Y-2335000D01*
X57471000Y-4015000D02*
X57471000Y-4794000D01*
X57471000Y-1556000D02*
X57471000Y-2335000D01*
X57431000Y-4015000D02*
X57431000Y-4825000D01*
X57431000Y-1525000D02*
X57431000Y-2335000D01*
X57391000Y-4015000D02*
X57391000Y-4855000D01*
X57391000Y-1495000D02*
X57391000Y-2335000D01*
X57351000Y-4015000D02*
X57351000Y-4883000D01*
X57351000Y-1467000D02*
X57351000Y-2335000D01*
X57311000Y-4015000D02*
X57311000Y-4910000D01*
X57311000Y-1440000D02*
X57311000Y-2335000D01*
X57271000Y-4015000D02*
X57271000Y-4935000D01*
X57271000Y-1415000D02*
X57271000Y-2335000D01*
X57231000Y-4015000D02*
X57231000Y-4960000D01*
X57231000Y-1390000D02*
X57231000Y-2335000D01*
X57191000Y-4015000D02*
X57191000Y-4983000D01*
X57191000Y-1367000D02*
X57191000Y-2335000D01*
X57151000Y-4015000D02*
X57151000Y-5005000D01*
X57151000Y-1345000D02*
X57151000Y-2335000D01*
X57111000Y-4015000D02*
X57111000Y-5026000D01*
X57111000Y-1324000D02*
X57111000Y-2335000D01*
X57071000Y-4015000D02*
X57071000Y-5045000D01*
X57071000Y-1305000D02*
X57071000Y-2335000D01*
X57031000Y-4015000D02*
X57031000Y-5064000D01*
X57031000Y-1286000D02*
X57031000Y-2335000D01*
X56991000Y-4015000D02*
X56991000Y-5082000D01*
X56991000Y-1268000D02*
X56991000Y-2335000D01*
X56951000Y-4015000D02*
X56951000Y-5099000D01*
X56951000Y-1251000D02*
X56951000Y-2335000D01*
X56911000Y-4015000D02*
X56911000Y-5115000D01*
X56911000Y-1235000D02*
X56911000Y-2335000D01*
X56871000Y-4015000D02*
X56871000Y-5129000D01*
X56871000Y-1221000D02*
X56871000Y-2335000D01*
X56830000Y-4015000D02*
X56830000Y-5143000D01*
X56830000Y-1207000D02*
X56830000Y-2335000D01*
X56790000Y-4015000D02*
X56790000Y-5157000D01*
X56790000Y-1193000D02*
X56790000Y-2335000D01*
X56750000Y-4015000D02*
X56750000Y-5169000D01*
X56750000Y-1181000D02*
X56750000Y-2335000D01*
X56710000Y-4015000D02*
X56710000Y-5180000D01*
X56710000Y-1170000D02*
X56710000Y-2335000D01*
X56670000Y-4015000D02*
X56670000Y-5191000D01*
X56670000Y-1159000D02*
X56670000Y-2335000D01*
X56630000Y-4015000D02*
X56630000Y-5200000D01*
X56630000Y-1150000D02*
X56630000Y-2335000D01*
X56590000Y-4015000D02*
X56590000Y-5209000D01*
X56590000Y-1141000D02*
X56590000Y-2335000D01*
X56550000Y-4015000D02*
X56550000Y-5217000D01*
X56550000Y-1133000D02*
X56550000Y-2335000D01*
X56510000Y-4015000D02*
X56510000Y-5225000D01*
X56510000Y-1125000D02*
X56510000Y-2335000D01*
X56470000Y-4015000D02*
X56470000Y-5231000D01*
X56470000Y-1119000D02*
X56470000Y-2335000D01*
X56430000Y-4015000D02*
X56430000Y-5237000D01*
X56430000Y-1113000D02*
X56430000Y-2335000D01*
X56390000Y-4015000D02*
X56390000Y-5242000D01*
X56390000Y-1108000D02*
X56390000Y-2335000D01*
X56350000Y-4015000D02*
X56350000Y-5246000D01*
X56350000Y-1104000D02*
X56350000Y-2335000D01*
X56310000Y-1101000D02*
X56310000Y-5249000D01*
X56270000Y-1098000D02*
X56270000Y-5252000D01*
X56230000Y-1096000D02*
X56230000Y-5254000D01*
X56190000Y-1095000D02*
X56190000Y-5255000D01*
X56150000Y-1095000D02*
X56150000Y-5255000D01*
X54080199Y-1780000D02*
X54080199Y-2180000D01*
X53880199Y-1980000D02*
X54280199Y-1980000D01*
%TO.C,U4*%
X103785000Y-19620000D02*
G75*
G03*
X105785000Y-19620000I1000000J0D01*
G01*
X109925000Y-50280000D02*
X109925000Y-19560000D01*
X109925000Y-19560000D02*
X99645000Y-19560000D01*
X107435000Y-50220000D02*
X107435000Y-19620000D01*
X107435000Y-19620000D02*
X105785000Y-19620000D01*
X103785000Y-19620000D02*
X102135000Y-19620000D01*
X102135000Y-50220000D02*
X107435000Y-50220000D01*
X102135000Y-19620000D02*
X102135000Y-50220000D01*
X99645000Y-50280000D02*
X109925000Y-50280000D01*
X99645000Y-19560000D02*
X99645000Y-50280000D01*
%TO.C,RN1*%
X152625000Y-47245000D02*
X152625000Y-46245000D01*
X155985000Y-47245000D02*
X155985000Y-46245000D01*
%TO.C,C4*%
X118210000Y-10653752D02*
X118210000Y-10131248D01*
X116740000Y-10653752D02*
X116740000Y-10131248D01*
%TO.C,C9*%
X220965000Y-56253752D02*
X220965000Y-55731248D01*
X219495000Y-56253752D02*
X219495000Y-55731248D01*
%TO.C,C6*%
X68045000Y-4303752D02*
X68045000Y-3781248D01*
X66575000Y-4303752D02*
X66575000Y-3781248D01*
%TO.C,R4*%
X-37962064Y-70585000D02*
X-37507936Y-70585000D01*
X-37962064Y-69115000D02*
X-37507936Y-69115000D01*
%TO.C,R1*%
X216012064Y-73270000D02*
X215557936Y-73270000D01*
X216012064Y-74740000D02*
X215557936Y-74740000D01*
%TO.C,C8*%
X151101248Y-64235000D02*
X151623752Y-64235000D01*
X151101248Y-62765000D02*
X151623752Y-62765000D01*
%TO.C,D2*%
X152075000Y-52340000D02*
X152075000Y-55200000D01*
X153995000Y-55200000D02*
X153995000Y-52340000D01*
X152075000Y-55200000D02*
X153995000Y-55200000D01*
%TO.C,J8*%
X-38735000Y-80070000D02*
X-41335000Y-80070000D01*
X-41335000Y-77410000D02*
X-41335000Y-80070000D01*
X-38735000Y-77410000D02*
X-38735000Y-80070000D01*
X-38735000Y-77410000D02*
X-41335000Y-77410000D01*
X-37465000Y-77410000D02*
X-36135000Y-77410000D01*
X-36135000Y-77410000D02*
X-36135000Y-78740000D01*
%TO.C,C7*%
X-45820000Y-91178748D02*
X-45820000Y-91701252D01*
X-44350000Y-91178748D02*
X-44350000Y-91701252D01*
%TO.C,U1*%
X47565000Y-69580000D02*
G75*
G03*
X47565000Y-67580000I0J1000000D01*
G01*
X98545000Y-59630000D02*
X47505000Y-59630000D01*
X47505000Y-59630000D02*
X47505000Y-77530000D01*
X98485000Y-62120000D02*
X47565000Y-62120000D01*
X47565000Y-62120000D02*
X47565000Y-67580000D01*
X47565000Y-69580000D02*
X47565000Y-75040000D01*
X98485000Y-75040000D02*
X98485000Y-62120000D01*
X47565000Y-75040000D02*
X98485000Y-75040000D01*
X98545000Y-77530000D02*
X98545000Y-59630000D01*
X47505000Y-77530000D02*
X98545000Y-77530000D01*
%TO.C,J9*%
X176470000Y-117475000D02*
X176470000Y-112335000D01*
X179130000Y-112335000D02*
X176470000Y-112335000D01*
X179130000Y-117475000D02*
X176470000Y-117475000D01*
X179130000Y-117475000D02*
X179130000Y-112335000D01*
X179130000Y-118745000D02*
X179130000Y-120075000D01*
X179130000Y-120075000D02*
X177800000Y-120075000D01*
%TO.C,D3*%
X149535000Y-52340000D02*
X149535000Y-55200000D01*
X151455000Y-55200000D02*
X151455000Y-52340000D01*
X149535000Y-55200000D02*
X151455000Y-55200000D01*
%TO.C,D8*%
X136835000Y-52340000D02*
X136835000Y-55200000D01*
X138755000Y-55200000D02*
X138755000Y-52340000D01*
X136835000Y-55200000D02*
X138755000Y-55200000D01*
%TO.C,D1*%
X154615000Y-52340000D02*
X154615000Y-55200000D01*
X156535000Y-55200000D02*
X156535000Y-52340000D01*
X154615000Y-55200000D02*
X156535000Y-55200000D01*
%TO.C,R2*%
X216955000Y-64252936D02*
X216955000Y-64707064D01*
X218425000Y-64252936D02*
X218425000Y-64707064D01*
%TO.C,J6*%
X28660000Y-100330000D02*
X28660000Y-102930000D01*
X28660000Y-97730000D02*
X28660000Y-99060000D01*
X27330000Y-97730000D02*
X28660000Y-97730000D01*
X26000000Y-102930000D02*
X28660000Y-102930000D01*
X26000000Y-100330000D02*
X28660000Y-100330000D01*
X26000000Y-100330000D02*
X26000000Y-102930000D01*
%TO.C,X1*%
X119660000Y-20255000D02*
G75*
G03*
X121660000Y-20255000I1000000J0D01*
G01*
X123310000Y-38155000D02*
X123310000Y-20255000D01*
X123310000Y-20255000D02*
X121660000Y-20255000D01*
X119660000Y-20255000D02*
X118010000Y-20255000D01*
X118010000Y-38155000D02*
X123310000Y-38155000D01*
X118010000Y-20255000D02*
X118010000Y-38155000D01*
%TO.C,D13*%
X214190000Y-63480000D02*
X214190000Y-66340000D01*
X216110000Y-66340000D02*
X216110000Y-63480000D01*
X214190000Y-66340000D02*
X216110000Y-66340000D01*
%TO.C,D5*%
X144455000Y-52340000D02*
X144455000Y-55200000D01*
X146375000Y-55200000D02*
X146375000Y-52340000D01*
X144455000Y-55200000D02*
X146375000Y-55200000D01*
%TO.C,J1*%
X34020000Y-101340000D02*
X39540000Y-101340000D01*
X34020000Y-106340000D02*
X34020000Y-101340000D01*
X39540000Y-101340000D02*
X39540000Y-102340000D01*
X41040000Y-102340000D02*
X39540000Y-102340000D01*
X43580000Y-102340000D02*
X42779000Y-102340000D01*
X46120000Y-102340000D02*
X45319000Y-102340000D01*
X48660000Y-102340000D02*
X47859000Y-102340000D01*
X51200000Y-102340000D02*
X50399000Y-102340000D01*
X53740000Y-102340000D02*
X52939000Y-102340000D01*
X56280000Y-102340000D02*
X55479000Y-102340000D01*
X58820000Y-102340000D02*
X58019000Y-102340000D01*
X61360000Y-102340000D02*
X60559000Y-102340000D01*
X63900000Y-102340000D02*
X63099000Y-102340000D01*
X66440000Y-102340000D02*
X65639000Y-102340000D01*
X68980000Y-102340000D02*
X68179000Y-102340000D01*
X71520000Y-102340000D02*
X70719000Y-102340000D01*
X74060000Y-102340000D02*
X73259000Y-102340000D01*
X76600000Y-102340000D02*
X75799000Y-102340000D01*
X79140000Y-102340000D02*
X78339000Y-102340000D01*
X81680000Y-102340000D02*
X80879000Y-102340000D01*
X84220000Y-102340000D02*
X83419000Y-102340000D01*
X86760000Y-102340000D02*
X85959000Y-102340000D01*
X89300000Y-102340000D02*
X88499000Y-102340000D01*
X91840000Y-102340000D02*
X91039000Y-102340000D01*
X94380000Y-102340000D02*
X93579000Y-102340000D01*
X96920000Y-102340000D02*
X96119000Y-102340000D01*
X99460000Y-102340000D02*
X98659000Y-102340000D01*
X102000000Y-102340000D02*
X101199000Y-102340000D01*
X104540000Y-102340000D02*
X103739000Y-102340000D01*
X107080000Y-102340000D02*
X106279000Y-102340000D01*
X109620000Y-102340000D02*
X108819000Y-102340000D01*
X112160000Y-102340000D02*
X111359000Y-102340000D01*
X114700000Y-102340000D02*
X113899000Y-102340000D01*
X117240000Y-102340000D02*
X116439000Y-102340000D01*
X119555000Y-102340000D02*
X118979000Y-102340000D01*
X121745000Y-101600000D02*
X122345000Y-101900000D01*
X122345000Y-101300000D02*
X121745000Y-101600000D01*
X122345000Y-101900000D02*
X122345000Y-101300000D01*
X123020000Y-101340000D02*
X123020000Y-102340000D01*
X123021000Y-102340000D02*
X121745000Y-102340000D01*
X128540000Y-101340000D02*
X123020000Y-101340000D01*
X128540000Y-106340000D02*
X128540000Y-101340000D01*
%TO.C,D4*%
X146995000Y-52340000D02*
X146995000Y-55200000D01*
X148915000Y-55200000D02*
X148915000Y-52340000D01*
X146995000Y-55200000D02*
X148915000Y-55200000D01*
%TD*%
M02*
