M48
; DRILL file {KiCad 7.0.11+dfsg-1build4} date Sun 04 May 2025 07:09:55 PM CEST
; FORMAT={-:-/ absolute / inch / decimal}
; #@! TF.CreationDate,2025-05-04T19:09:55+02:00
; #@! TF.GenerationSoftware,Kicad,Pcbnew,7.0.11+dfsg-1build4
; #@! TF.FileFunction,Plated,1,4,PTH
FMAT,2
INCH
; #@! TA.AperFunction,Plated,PTH,ComponentDrill
T1C0.0236
; #@! TA.AperFunction,Plated,PTH,ComponentDrill
T2C0.0300
; #@! TA.AperFunction,Plated,PTH,ComponentDrill
T3C0.0315
; #@! TA.AperFunction,Plated,PTH,ComponentDrill
T4C0.0394
; #@! TA.AperFunction,Plated,PTH,ComponentDrill
T5C0.1260
%
G90
G05
T1
X2.1713Y-0.125
X2.25Y-0.125
T2
X8.7675Y-3.25
X8.7675Y-3.4469
X8.8463Y-3.25
X8.8463Y-3.4469
X8.925Y-3.25
X8.925Y-3.4469
T3
X-0.1273Y-2.775
X0.0696Y-2.775
X1.675Y-0.825
X1.675Y-0.925
X1.675Y-1.025
X1.675Y-1.125
X1.675Y-1.225
X1.675Y-1.325
X1.675Y-1.425
X1.675Y-1.525
X1.675Y-1.625
X1.675Y-1.725
X1.675Y-1.825
X1.675Y-1.925
X1.675Y-2.025
X1.675Y-2.125
X1.925Y-2.4
X1.925Y-3.0
X1.975Y-0.825
X1.975Y-0.925
X1.975Y-1.025
X1.975Y-1.125
X1.975Y-1.225
X1.975Y-1.325
X1.975Y-1.425
X1.975Y-1.525
X1.975Y-1.625
X1.975Y-1.725
X1.975Y-1.825
X1.975Y-1.925
X1.975Y-2.025
X1.975Y-2.125
X2.025Y-2.4
X2.025Y-3.0
X2.125Y-2.4
X2.125Y-3.0
X2.2Y-0.825
X2.2Y-0.925
X2.2Y-1.025
X2.2Y-1.125
X2.2Y-1.225
X2.2Y-1.325
X2.2Y-1.425
X2.2Y-1.525
X2.2Y-1.625
X2.2Y-1.725
X2.2Y-1.825
X2.2Y-1.925
X2.2Y-2.025
X2.2Y-2.125
X2.225Y-2.4
X2.225Y-3.0
X2.325Y-2.4
X2.325Y-3.0
X2.425Y-2.4
X2.425Y-3.0
X2.5Y-0.825
X2.5Y-0.925
X2.5Y-1.025
X2.5Y-1.125
X2.5Y-1.225
X2.5Y-1.325
X2.5Y-1.425
X2.5Y-1.525
X2.5Y-1.625
X2.5Y-1.725
X2.5Y-1.825
X2.5Y-1.925
X2.5Y-2.025
X2.5Y-2.125
X2.525Y-2.4
X2.525Y-3.0
X2.625Y-2.4
X2.625Y-3.0
X2.725Y-2.4
X2.725Y-3.0
X2.825Y-2.4
X2.825Y-3.0
X2.925Y-2.4
X2.925Y-3.0
X3.025Y-0.825
X3.025Y-0.925
X3.025Y-1.025
X3.025Y-1.125
X3.025Y-1.225
X3.025Y-1.325
X3.025Y-1.425
X3.025Y-1.525
X3.025Y-1.625
X3.025Y-1.725
X3.025Y-1.825
X3.025Y-1.925
X3.025Y-2.025
X3.025Y-2.125
X3.025Y-2.4
X3.025Y-3.0
X3.125Y-2.4
X3.125Y-3.0
X3.225Y-2.4
X3.225Y-3.0
X3.325Y-2.4
X3.325Y-3.0
X3.425Y-2.4
X3.425Y-3.0
X3.525Y-2.4
X3.525Y-3.0
X3.625Y-0.825
X3.625Y-0.925
X3.625Y-1.025
X3.625Y-1.125
X3.625Y-1.225
X3.625Y-1.325
X3.625Y-1.425
X3.625Y-1.525
X3.625Y-1.625
X3.625Y-1.725
X3.625Y-1.825
X3.625Y-1.925
X3.625Y-2.025
X3.625Y-2.125
X3.625Y-2.4
X3.625Y-3.0
X3.725Y-2.4
X3.725Y-3.0
X3.825Y-2.4
X3.825Y-3.0
X3.9754Y-0.8248
X3.9754Y-0.9248
X3.9754Y-1.0248
X3.9754Y-1.1248
X3.9754Y-1.2248
X3.9754Y-1.3248
X3.9754Y-1.4248
X3.9754Y-1.5248
X3.9754Y-1.6248
X3.9754Y-1.7248
X3.9754Y-1.8248
X3.9754Y-1.9248
X4.2754Y-0.8248
X4.2754Y-0.9248
X4.2754Y-1.0248
X4.2754Y-1.1248
X4.2754Y-1.2248
X4.2754Y-1.3248
X4.2754Y-1.4248
X4.2754Y-1.5248
X4.2754Y-1.6248
X4.2754Y-1.7248
X4.2754Y-1.8248
X4.2754Y-1.9248
X4.6004Y-0.8498
X4.6004Y-0.9498
X4.6004Y-1.0498
X4.6004Y-1.1498
X4.6004Y-1.2498
X4.6004Y-1.3498
X4.6004Y-1.4498
X4.9004Y-0.8498
X4.9004Y-0.9498
X4.9004Y-1.0498
X4.9004Y-1.1498
X4.9004Y-1.2498
X4.9004Y-1.3498
X4.9004Y-1.4498
T4
X-2.0Y-2.55
X-1.9Y-2.55
X-1.575Y-3.1
X-1.475Y-3.1
X1.076Y-3.9
X1.076Y-4.0
X1.65Y-3.8
X1.65Y-4.0
X1.75Y-3.8
X1.75Y-4.0
X1.85Y-3.8
X1.85Y-4.0
X1.95Y-3.8
X1.95Y-4.0
X2.05Y-3.8
X2.05Y-4.0
X2.15Y-3.8
X2.15Y-4.0
X2.25Y-3.8
X2.25Y-4.0
X2.35Y-3.8
X2.35Y-4.0
X2.45Y-3.8
X2.45Y-4.0
X2.55Y-3.8
X2.55Y-4.0
X2.65Y-3.8
X2.65Y-4.0
X2.75Y-3.8
X2.75Y-4.0
X2.85Y-3.8
X2.85Y-4.0
X2.95Y-3.8
X2.95Y-4.0
X3.05Y-3.8
X3.05Y-4.0
X3.15Y-3.8
X3.15Y-4.0
X3.25Y-3.8
X3.25Y-4.0
X3.35Y-3.8
X3.35Y-4.0
X3.45Y-3.8
X3.45Y-4.0
X3.55Y-3.8
X3.55Y-4.0
X3.65Y-3.8
X3.65Y-4.0
X3.75Y-3.8
X3.75Y-4.0
X3.85Y-3.8
X3.85Y-4.0
X3.95Y-3.8
X3.95Y-4.0
X4.05Y-3.8
X4.05Y-4.0
X4.15Y-3.8
X4.15Y-4.0
X4.25Y-3.8
X4.25Y-4.0
X4.35Y-3.8
X4.35Y-4.0
X4.45Y-3.8
X4.45Y-4.0
X4.55Y-3.8
X4.55Y-4.0
X4.65Y-3.8
X4.65Y-4.0
X4.75Y-3.8
X4.75Y-4.0
X5.45Y-2.7
X5.45Y-2.8
X5.45Y-2.9
X5.45Y-3.0
X5.45Y-3.1
X5.45Y-3.2
X5.45Y-3.3
X5.45Y-3.4
X5.45Y-3.5
X6.175Y-4.325
X6.175Y-4.425
X6.175Y-4.525
X7.0Y-4.475
X7.0Y-4.575
X7.0Y-4.675
X8.7146Y-2.8614
X8.7146Y-3.0386
X8.9705Y-2.8614
X8.9705Y-3.0386
T5
X1.05Y-0.75
X5.45Y-0.75
M30
